<svg width="399" height="57" viewBox="0 0 399 57" fill="none" xmlns="http://www.w3.org/2000/svg">
<path d="M18.7494 56.32C12.9894 56.32 7.22938 56.1067 1.46938 55.68L1.06938 47.84L6.90938 46.24V15.76C6.90938 14.3733 6.80271 13.4667 6.58938 13.04C6.37604 12.56 5.81604 12.1333 4.90938 11.76L0.749375 9.44L1.22938 2.8C9.86938 1.68 17.2827 1.12 23.4694 1.12C31.0427 1.12 36.5894 2.24 40.1094 4.48C43.6294 6.72 45.3894 10.2667 45.3894 15.12C45.3894 17.52 45.016 19.6533 44.2694 21.52C43.5227 23.3333 42.376 24.9867 40.8294 26.48C46.1627 28.88 48.8294 32.7733 48.8294 38.16C48.8294 42.96 47.496 46.8267 44.8294 49.76C42.1627 52.6933 38.2427 54.6133 33.0694 55.52C31.1494 56.0533 26.376 56.32 18.7494 56.32ZM30.5094 23.92C31.0427 22.5333 31.3094 20.2133 31.3094 16.96C31.3094 14.72 30.776 13.0667 29.7094 12C28.696 10.9333 27.1227 10.3467 24.9894 10.24C23.6027 10.24 22.216 10.2933 20.8294 10.4V23.76C21.736 23.7067 22.9094 23.68 24.3494 23.68C26.536 23.68 28.5894 23.76 30.5094 23.92ZM27.1494 46.4C30.1894 46.4 32.3494 46.1333 33.6294 45.6C34.1627 43.4667 34.4294 41.5733 34.4294 39.92C34.4294 37.2533 33.736 35.36 32.3494 34.24C30.9627 33.12 28.616 32.56 25.3094 32.56C24.616 32.56 23.736 32.6133 22.6694 32.72L20.8294 32.8V45.84C22.696 46.2133 24.8027 46.4 27.1494 46.4ZM142.866 47.84L148.706 46.24V15.76C148.706 14.3733 148.6 13.4667 148.386 13.04C148.173 12.56 147.613 12.1333 146.706 11.76L142.546 9.44L143.026 2.88C151.026 1.70666 158.733 1.12 166.146 1.12C171.906 1.12 176.546 1.70666 180.066 2.88C183.586 4 186.146 5.78667 187.746 8.24C189.4 10.64 190.226 13.84 190.226 17.84C190.226 21.1467 189.373 24.0533 187.666 26.56C185.96 29.0133 183.533 30.9067 180.386 32.24L193.186 52.88L193.106 56H178.546L166.706 34.64L163.186 34.56V43.52C163.186 44.8 163.266 45.6267 163.426 46C163.64 46.32 164.12 46.6933 164.866 47.12L168.306 49.12L167.986 56H143.266L142.866 47.84ZM168.306 25.6C171.133 25.6 173.213 25.3333 174.546 24.8C175.08 22.88 175.346 20.5867 175.346 17.92C175.346 15.2533 174.76 13.36 173.586 12.24C172.466 11.12 170.573 10.56 167.906 10.56C166.413 10.56 164.893 10.64 163.346 10.8V25.12C164.733 25.44 166.386 25.6 168.306 25.6ZM280.816 47.84L286.656 46.24V15.6C286.656 14.2133 286.55 13.3067 286.336 12.88C286.123 12.4 285.563 11.9733 284.656 11.6L280.656 9.28L280.896 2.08H324.336C324.71 7.68 324.896 13.1467 324.896 18.48L318.976 18.88L313.296 11.84L301.216 11.52V24.56L318.256 23.12V35.44L301.216 33.6V46.48L314.496 46.24L320.656 39.2L326.576 39.6C326.363 45.2 325.963 50.6667 325.376 56H281.216L280.816 47.84Z" fill="#002C85"/>
<path d="M67.7488 48.88L70.2288 47.36L88.9488 2L102.549 0.799995L118.549 44C119.082 45.3867 119.455 46.2933 119.669 46.72C119.882 47.1467 120.282 47.7333 120.869 48.48L122.309 50.32L121.829 56H99.3488L98.5488 48.4L104.229 46.96L101.669 38.88L85.4288 39.12L83.6688 44.16C83.5088 44.64 83.4288 45.04 83.4288 45.36C83.4288 45.7333 83.4821 46.0267 83.5888 46.24C83.7488 46.4 83.9888 46.5333 84.3088 46.64L89.8288 48.96L89.0288 56H68.0688L67.7488 48.88ZM93.9088 14.48L88.6288 29.84L98.9488 30.32L93.9088 14.48ZM230.937 56.32C225.177 56.32 219.417 56.1067 213.657 55.68L213.257 47.84L219.097 46.24V15.76C219.097 14.3733 218.99 13.4667 218.777 13.04C218.564 12.56 218.004 12.1333 217.097 11.76L212.937 9.44L213.417 2.8C222.057 1.68 229.47 1.12 235.657 1.12C243.23 1.12 248.777 2.24 252.297 4.48C255.817 6.72 257.577 10.2667 257.577 15.12C257.577 17.52 257.204 19.6533 256.457 21.52C255.71 23.3333 254.564 24.9867 253.017 26.48C258.35 28.88 261.017 32.7733 261.017 38.16C261.017 42.96 259.684 46.8267 257.017 49.76C254.35 52.6933 250.43 54.6133 245.257 55.52C243.337 56.0533 238.564 56.32 230.937 56.32ZM242.697 23.92C243.23 22.5333 243.497 20.2133 243.497 16.96C243.497 14.72 242.964 13.0667 241.897 12C240.884 10.9333 239.31 10.3467 237.177 10.24C235.79 10.24 234.404 10.2933 233.017 10.4V23.76C233.924 23.7067 235.097 23.68 236.537 23.68C238.724 23.68 240.777 23.76 242.697 23.92ZM239.337 46.4C242.377 46.4 244.537 46.1333 245.817 45.6C246.35 43.4667 246.617 41.5733 246.617 39.92C246.617 37.2533 245.924 35.36 244.537 34.24C243.15 33.12 240.804 32.56 237.497 32.56C236.804 32.56 235.924 32.6133 234.857 32.72L233.017 32.8V45.84C234.884 46.2133 236.99 46.4 239.337 46.4ZM347.944 47.84L353.784 46.24V15.76C353.784 14.3733 353.678 13.4667 353.464 13.04C353.251 12.56 352.691 12.1333 351.784 11.76L347.624 9.44L348.104 2.88C356.104 1.70666 363.811 1.12 371.224 1.12C376.984 1.12 381.624 1.70666 385.144 2.88C388.664 4 391.224 5.78667 392.824 8.24C394.478 10.64 395.304 13.84 395.304 17.84C395.304 21.1467 394.451 24.0533 392.744 26.56C391.038 29.0133 388.611 30.9067 385.464 32.24L398.264 52.88L398.184 56H383.624L371.784 34.64L368.264 34.56V43.52C368.264 44.8 368.344 45.6267 368.504 46C368.718 46.32 369.198 46.6933 369.944 47.12L373.384 49.12L373.064 56H348.344L347.944 47.84ZM373.384 25.6C376.211 25.6 378.291 25.3333 379.624 24.8C380.158 22.88 380.424 20.5867 380.424 17.92C380.424 15.2533 379.838 13.36 378.664 12.24C377.544 11.12 375.651 10.56 372.984 10.56C371.491 10.56 369.971 10.64 368.424 10.8V25.12C369.811 25.44 371.464 25.6 373.384 25.6Z" fill="#B00000"/>
<path d="M1.46938 55.68L0.470674 55.731L0.51563 56.6121L1.3955 56.6773L1.46938 55.68ZM1.06938 47.84L0.80514 46.8755L0.0297064 47.088L0.070674 47.891L1.06938 47.84ZM6.90938 46.24L7.17361 47.2045L7.90938 47.0029V46.24H6.90938ZM6.58938 13.04L5.67556 13.4461L5.68479 13.4669L5.69495 13.4872L6.58938 13.04ZM4.90938 11.76L4.42231 12.6334L4.47395 12.6622L4.52862 12.6847L4.90938 11.76ZM0.749375 9.44L-0.248022 9.3679L-0.293944 10.0031L0.262307 10.3134L0.749375 9.44ZM1.22938 2.8L1.10082 1.8083L0.290865 1.91329L0.231978 2.7279L1.22938 2.8ZM40.1094 4.48L40.6463 3.63633L40.6463 3.63633L40.1094 4.48ZM44.2694 21.52L45.1941 21.9008L45.1979 21.8914L44.2694 21.52ZM40.8294 26.48L40.1348 25.7606L39.0727 26.7861L40.419 27.3919L40.8294 26.48ZM44.8294 49.76L45.5693 50.4327L45.5693 50.4327L44.8294 49.76ZM33.0694 55.52L32.8967 54.535L32.8487 54.5434L32.8017 54.5565L33.0694 55.52ZM30.5094 23.92L30.4263 24.9165L31.1736 24.9788L31.4427 24.279L30.5094 23.92ZM29.7094 12L28.9844 12.6887L28.9932 12.698L29.0023 12.7071L29.7094 12ZM24.9894 10.24L25.0393 9.24125L25.0144 9.24H24.9894V10.24ZM20.8294 10.4L20.7527 9.40294L19.8294 9.47396V10.4H20.8294ZM20.8294 23.76H19.8294V24.8205L20.8881 24.7583L20.8294 23.76ZM33.6294 45.6L34.014 46.5231L34.4777 46.3299L34.5995 45.8425L33.6294 45.6ZM32.3494 34.24L32.9777 33.4621L32.9777 33.4621L32.3494 34.24ZM22.6694 32.72L22.7128 33.7191L22.7409 33.7178L22.7689 33.715L22.6694 32.72ZM20.8294 32.8L20.7859 31.8009L19.8294 31.8425V32.8H20.8294ZM20.8294 45.84H19.8294V46.6598L20.6333 46.8206L20.8294 45.84ZM18.7494 55.32C13.0141 55.32 7.27873 55.1076 1.54325 54.6827L1.3955 56.6773C7.18002 57.1058 12.9647 57.32 18.7494 57.32V55.32ZM2.46808 55.629L2.06808 47.789L0.070674 47.891L0.470674 55.731L2.46808 55.629ZM1.33361 48.8045L7.17361 47.2045L6.64514 45.2755L0.80514 46.8755L1.33361 48.8045ZM7.90938 46.24V15.76H5.90938V46.24H7.90938ZM7.90938 15.76C7.90938 15.0454 7.88211 14.4296 7.82253 13.9232C7.76569 13.44 7.67024 12.9657 7.4838 12.5928L5.69495 13.4872C5.72185 13.541 5.7864 13.7333 5.83622 14.1568C5.88331 14.557 5.90938 15.0879 5.90938 15.76H7.90938ZM7.50319 12.6339C7.12587 11.7849 6.25081 11.2309 5.29013 10.8353L4.52862 12.6847C5.38127 13.0358 5.62622 13.3351 5.67556 13.4461L7.50319 12.6339ZM5.39644 10.8866L1.23644 8.56663L0.262307 10.3134L4.42231 12.6334L5.39644 10.8866ZM1.74677 9.5121L2.22677 2.8721L0.231978 2.7279L-0.248022 9.3679L1.74677 9.5121ZM1.35793 3.7917C9.97103 2.67519 17.3391 2.12 23.4694 2.12V0.119996C17.2263 0.119996 9.76772 0.684807 1.10082 1.8083L1.35793 3.7917ZM23.4694 2.12C30.9861 2.12 36.2972 3.23935 39.5725 5.32366L40.6463 3.63633C36.8816 1.24064 31.0993 0.119996 23.4694 0.119996V2.12ZM39.5725 5.32366C42.7529 7.34758 44.3894 10.5432 44.3894 15.12H46.3894C46.3894 9.99009 44.5058 6.09241 40.6463 3.63633L39.5725 5.32366ZM44.3894 15.12C44.3894 17.4169 44.0321 19.4206 43.3409 21.1486L45.1979 21.8914C46 19.8861 46.3894 17.6231 46.3894 15.12H44.3894ZM43.3447 21.1392C42.6554 22.8132 41.5919 24.3538 40.1348 25.7606L41.524 27.1994C43.1602 25.6196 44.39 23.8535 45.1941 21.9007L43.3447 21.1392ZM40.419 27.3919C42.9581 28.5345 44.797 30.0023 46.0043 31.7651C47.2081 33.5226 47.8294 35.6389 47.8294 38.16H49.8294C49.8294 35.2945 49.1173 32.7708 47.6544 30.6349C46.1951 28.5043 44.034 26.8255 41.2397 25.5681L40.419 27.3919ZM47.8294 38.16C47.8294 42.7664 46.555 46.3752 44.0894 49.0873L45.5693 50.4327C48.4371 47.2782 49.8294 43.1536 49.8294 38.16H47.8294ZM44.0894 49.0873C41.6141 51.8102 37.9225 53.6542 32.8967 54.535L33.242 56.505C38.5629 55.5725 42.7113 53.5765 45.5693 50.4327L44.0894 49.0873ZM32.8017 54.5565C31.9565 54.7913 30.3803 54.9882 27.9936 55.1216C25.6331 55.2534 22.5536 55.32 18.7494 55.32V57.32C22.5718 57.32 25.6924 57.2532 28.1052 57.1184C30.4918 56.9851 32.2623 56.7821 33.337 56.4835L32.8017 54.5565ZM31.4427 24.279C32.0475 22.7066 32.3094 20.2249 32.3094 16.96H30.3094C30.3094 20.2017 30.0379 22.3601 29.576 23.561L31.4427 24.279ZM32.3094 16.96C32.3094 14.5824 31.7449 12.6213 30.4165 11.2929L29.0023 12.7071C29.8072 13.512 30.3094 14.8576 30.3094 16.96H32.3094ZM30.4344 11.3113C29.1781 9.9889 27.314 9.35498 25.0393 9.24125L24.9394 11.2388C26.9314 11.3383 28.2139 11.8778 28.9844 12.6887L30.4344 11.3113ZM24.9894 9.24C23.577 9.24 22.1648 9.29432 20.7527 9.40294L20.9061 11.3971C22.2673 11.2923 23.6284 11.24 24.9894 11.24V9.24ZM19.8294 10.4V23.76H21.8294V10.4H19.8294ZM20.8881 24.7583C21.7674 24.7066 22.9191 24.68 24.3494 24.68V22.68C22.8997 22.68 21.7047 22.7068 20.7707 22.7617L20.8881 24.7583ZM24.3494 24.68C26.5119 24.68 28.5373 24.7591 30.4263 24.9165L30.5924 22.9235C28.6414 22.7609 26.5601 22.68 24.3494 22.68V24.68ZM27.1494 47.4C30.2012 47.4 32.5361 47.1389 34.014 46.5231L33.2448 44.6769C32.1627 45.1278 30.1775 45.4 27.1494 45.4V47.4ZM34.5995 45.8425C35.1466 43.6542 35.4294 41.6769 35.4294 39.92H33.4294C33.4294 41.4698 33.1788 43.2791 32.6592 45.3575L34.5995 45.8425ZM35.4294 39.92C35.4294 37.1047 34.6973 34.851 32.9777 33.4621L31.721 35.0179C32.7748 35.869 33.4294 37.402 33.4294 39.92H35.4294ZM32.9777 33.4621C31.3146 32.1188 28.6736 31.56 25.3094 31.56V33.56C28.5584 33.56 30.6108 34.1212 31.721 35.0179L32.9777 33.4621ZM25.3094 31.56C24.5701 31.56 23.6539 31.6166 22.5699 31.725L22.7689 33.715C23.8182 33.6101 24.662 33.56 25.3094 33.56V31.56ZM22.6259 31.7209L20.7859 31.8009L20.8728 33.7991L22.7128 33.7191L22.6259 31.7209ZM19.8294 32.8V45.84H21.8294V32.8H19.8294ZM20.6333 46.8206C22.5774 47.2094 24.7514 47.4 27.1494 47.4V45.4C24.854 45.4 22.8147 45.2173 21.0255 44.8594L20.6333 46.8206ZM67.7488 48.88L67.2262 48.0274L66.7233 48.3356L66.7498 48.9249L67.7488 48.88ZM70.2288 47.36L70.7513 48.2126L71.0289 48.0425L71.1531 47.7415L70.2288 47.36ZM88.9488 2L88.8609 1.00387L88.256 1.05724L88.0244 1.61851L88.9488 2ZM102.549 0.799995L103.487 0.452681L103.221 -0.263237L102.461 -0.196134L102.549 0.799995ZM118.549 44L117.611 44.3473L117.615 44.359L118.549 44ZM120.869 48.48L121.656 47.8637L121.655 47.8622L120.869 48.48ZM122.309 50.32L123.305 50.4042L123.338 50.0129L123.096 49.7037L122.309 50.32ZM121.829 56V57H122.748L122.825 56.0842L121.829 56ZM99.3488 56L98.3542 56.1047L98.4485 57H99.3488V56ZM98.5488 48.4L98.303 47.4307L97.4636 47.6435L97.5542 48.5047L98.5488 48.4ZM104.229 46.96L104.474 47.9293L105.502 47.6688L105.182 46.658L104.229 46.96ZM101.669 38.88L102.622 38.578L102.397 37.8691L101.654 37.8801L101.669 38.88ZM85.4288 39.12L85.414 38.1201L84.7151 38.1304L84.4847 38.7903L85.4288 39.12ZM83.6688 44.16L82.7247 43.8303L82.7223 43.837L82.7201 43.8438L83.6688 44.16ZM83.5888 46.24L82.6943 46.6872L82.7669 46.8324L82.8816 46.9471L83.5888 46.24ZM84.3088 46.64L84.6962 45.7181L84.6611 45.7034L84.625 45.6913L84.3088 46.64ZM89.8288 48.96L90.8224 49.0729L90.907 48.3284L90.2162 48.0381L89.8288 48.96ZM89.0288 56V57H89.9215L90.0224 56.1129L89.0288 56ZM68.0688 56L67.0698 56.0449L67.1127 57H68.0688V56ZM93.9088 14.48L94.8617 14.1768L93.9454 11.2971L92.9631 14.1549L93.9088 14.48ZM88.6288 29.84L87.6831 29.5149L87.2493 30.7769L88.5823 30.8389L88.6288 29.84ZM98.9488 30.32L98.9023 31.3189L100.337 31.3857L99.9017 30.0168L98.9488 30.32ZM68.2713 49.7326L70.7513 48.2126L69.7062 46.5074L67.2262 48.0274L68.2713 49.7326ZM71.1531 47.7415L89.8731 2.38149L88.0244 1.61851L69.3044 46.9785L71.1531 47.7415ZM89.0366 2.99613L102.637 1.79613L102.461 -0.196134L88.8609 1.00387L89.0366 2.99613ZM101.611 1.14731L117.611 44.3473L119.487 43.6527L103.487 0.452681L101.611 1.14731ZM117.615 44.359C118.145 45.7368 118.536 46.6898 118.774 47.1672L120.563 46.2728C120.375 45.8969 120.019 45.0365 119.482 43.641L117.615 44.359ZM118.774 47.1672C119.035 47.6879 119.486 48.3394 120.082 49.0978L121.655 47.8622C121.078 47.1273 120.73 46.6055 120.563 46.2728L118.774 47.1672ZM120.081 49.0963L121.521 50.9363L123.096 49.7037L121.656 47.8637L120.081 49.0963ZM121.312 50.2358L120.832 55.9158L122.825 56.0842L123.305 50.4042L121.312 50.2358ZM121.829 55H99.3488V57H121.829V55ZM100.343 55.8953L99.5433 48.2953L97.5542 48.5047L98.3542 56.1047L100.343 55.8953ZM98.7945 49.3693L104.474 47.9293L103.983 45.9907L98.303 47.4307L98.7945 49.3693ZM105.182 46.658L102.622 38.578L100.715 39.182L103.275 47.262L105.182 46.658ZM101.654 37.8801L85.414 38.1201L85.4435 40.1199L101.684 39.8799L101.654 37.8801ZM84.4847 38.7903L82.7247 43.8303L84.6128 44.4897L86.3728 39.4497L84.4847 38.7903ZM82.7201 43.8438C82.5434 44.3737 82.4288 44.8887 82.4288 45.36H84.4288C84.4288 45.1913 84.4741 44.9063 84.6174 44.4762L82.7201 43.8438ZM82.4288 45.36C82.4288 45.8096 82.4899 46.2784 82.6943 46.6872L84.4832 45.7928C84.4743 45.775 84.4288 45.6571 84.4288 45.36H82.4288ZM82.8816 46.9471C83.192 47.2575 83.5916 47.455 83.9925 47.5887L84.625 45.6913C84.3859 45.6116 84.3055 45.5425 84.2959 45.5329L82.8816 46.9471ZM83.9213 47.5619L89.4413 49.8819L90.2162 48.0381L84.6962 45.7181L83.9213 47.5619ZM88.8351 48.8471L88.0351 55.8871L90.0224 56.1129L90.8224 49.0729L88.8351 48.8471ZM89.0288 55H68.0688V57H89.0288V55ZM69.0677 55.9551L68.7477 48.8351L66.7498 48.9249L67.0698 56.0449L69.0677 55.9551ZM92.9631 14.1549L87.6831 29.5149L89.5744 30.1651L94.8544 14.8051L92.9631 14.1549ZM88.5823 30.8389L98.9023 31.3189L98.9952 29.3211L88.6752 28.8411L88.5823 30.8389ZM99.9017 30.0168L94.8617 14.1768L92.9558 14.7832L97.9958 30.6232L99.9017 30.0168ZM142.866 47.84L142.602 46.8755L141.828 47.0876L141.867 47.889L142.866 47.84ZM148.706 46.24L148.97 47.2045L149.706 47.0029V46.24H148.706ZM148.386 13.04L147.472 13.4461L147.482 13.4669L147.492 13.4872L148.386 13.04ZM146.706 11.76L146.219 12.6334L146.271 12.6622L146.325 12.6847L146.706 11.76ZM142.546 9.44L141.549 9.36702L141.502 10.0028L142.059 10.3134L142.546 9.44ZM143.026 2.88L142.881 1.89058L142.087 2.00699L142.029 2.80702L143.026 2.88ZM180.066 2.88L179.75 3.82877L179.763 3.83292L180.066 2.88ZM187.746 8.24L186.909 8.78627L186.916 8.79688L186.923 8.8073L187.746 8.24ZM187.666 26.56L188.487 27.1311L188.493 27.1228L187.666 26.56ZM180.386 32.24L179.996 31.3192L178.921 31.7748L179.536 32.767L180.386 32.24ZM193.186 52.88L194.186 52.9056L194.194 52.6069L194.036 52.353L193.186 52.88ZM193.106 56V57H194.081L194.106 56.0256L193.106 56ZM178.546 56L177.672 56.4848L177.957 57H178.546V56ZM166.706 34.64L167.581 34.1552L167.303 33.6533L166.729 33.6403L166.706 34.64ZM163.186 34.56L163.209 33.5603L162.186 33.537V34.56H163.186ZM163.426 46L162.507 46.3939L162.543 46.4783L162.594 46.5547L163.426 46ZM164.866 47.12L165.369 46.2555L165.362 46.2518L164.866 47.12ZM168.306 49.12L169.305 49.1665L169.333 48.5604L168.809 48.2555L168.306 49.12ZM167.986 56V57H168.941L168.985 56.0465L167.986 56ZM143.266 56L142.267 56.049L142.314 57H143.266V56ZM174.546 24.8L174.918 25.7285L175.377 25.5446L175.51 25.0676L174.546 24.8ZM173.586 12.24L172.879 12.9471L172.887 12.9553L172.896 12.9634L173.586 12.24ZM163.346 10.8L163.243 9.80531L162.346 9.89811V10.8H163.346ZM163.346 25.12H162.346V25.9155L163.121 26.0944L163.346 25.12ZM143.13 48.8045L148.97 47.2045L148.442 45.2755L142.602 46.8755L143.13 48.8045ZM149.706 46.24V15.76H147.706V46.24H149.706ZM149.706 15.76C149.706 15.0454 149.679 14.4296 149.619 13.9232C149.563 13.44 149.467 12.9657 149.281 12.5928L147.492 13.4872C147.519 13.541 147.583 13.7333 147.633 14.1568C147.68 14.557 147.706 15.0879 147.706 15.76H149.706ZM149.3 12.6339C148.923 11.7849 148.048 11.2309 147.087 10.8353L146.325 12.6847C147.178 13.0358 147.423 13.3351 147.472 13.4461L149.3 12.6339ZM147.193 10.8866L143.033 8.56663L142.059 10.3134L146.219 12.6334L147.193 10.8866ZM143.544 9.51297L144.024 2.95297L142.029 2.80702L141.549 9.36702L143.544 9.51297ZM143.171 3.86941C151.128 2.7025 158.786 2.12 166.146 2.12V0.119996C158.68 0.119996 150.925 0.710828 142.881 1.89058L143.171 3.86941ZM166.146 2.12C171.851 2.12 176.372 2.70271 179.75 3.82868L180.382 1.93131C176.72 0.71062 171.961 0.119996 166.146 0.119996V2.12ZM179.763 3.83292C183.122 4.9017 185.465 6.57199 186.909 8.78627L188.584 7.69373C186.828 5.00134 184.05 3.0983 180.369 1.92707L179.763 3.83292ZM186.923 8.8073C188.426 10.9887 189.226 13.9691 189.226 17.84H191.226C191.226 13.7109 190.374 10.2912 188.57 7.67269L186.923 8.8073ZM189.226 17.84C189.226 20.9649 188.423 23.6715 186.84 25.9972L188.493 27.1228C190.323 24.4351 191.226 21.3284 191.226 17.84H189.226ZM186.845 25.9889C185.261 28.2661 182.995 30.0487 179.996 31.3192L180.776 33.1607C184.071 31.7646 186.658 29.7605 188.487 27.1311L186.845 25.9889ZM179.536 32.767L192.336 53.407L194.036 52.353L181.236 31.713L179.536 32.767ZM192.187 52.8544L192.107 55.9744L194.106 56.0256L194.186 52.9056L192.187 52.8544ZM193.106 55H178.546V57H193.106V55ZM179.421 55.5152L167.581 34.1552L165.832 35.1248L177.672 56.4848L179.421 55.5152ZM166.729 33.6403L163.209 33.5603L163.164 35.5597L166.684 35.6397L166.729 33.6403ZM162.186 34.56V43.52H164.186V34.56H162.186ZM162.186 43.52C162.186 44.177 162.207 44.7388 162.251 45.1963C162.293 45.6284 162.363 46.0578 162.507 46.3939L164.345 45.6061C164.346 45.6063 164.344 45.603 164.341 45.5953C164.339 45.5877 164.335 45.5769 164.331 45.5623C164.323 45.5327 164.312 45.4922 164.302 45.4389C164.28 45.3311 164.259 45.1878 164.242 45.0037C164.206 44.6346 164.186 44.143 164.186 43.52H162.186ZM162.594 46.5547C162.949 47.0867 163.616 47.5572 164.37 47.9882L165.362 46.2518C164.623 45.8294 164.33 45.5533 164.258 45.4453L162.594 46.5547ZM164.364 47.9845L167.804 49.9845L168.809 48.2555L165.369 46.2555L164.364 47.9845ZM167.307 49.0735L166.987 55.9535L168.985 56.0465L169.305 49.1665L167.307 49.0735ZM167.986 55H143.266V57H167.986V55ZM144.265 55.951L143.865 47.791L141.867 47.889L142.267 56.049L144.265 55.951ZM168.306 26.6C171.161 26.6 173.4 26.3355 174.918 25.7285L174.175 23.8715C173.026 24.3311 171.105 24.6 168.306 24.6V26.6ZM175.51 25.0676C176.074 23.0368 176.346 20.6487 176.346 17.92H174.346C174.346 20.5247 174.085 22.7232 173.583 24.5324L175.51 25.0676ZM176.346 17.92C176.346 15.1486 175.743 12.9165 174.277 11.5166L172.896 12.9634C173.776 13.8035 174.346 15.358 174.346 17.92H176.346ZM174.293 11.5329C172.892 10.1319 170.667 9.56 167.906 9.56V11.56C170.478 11.56 172.04 12.1081 172.879 12.9471L174.293 11.5329ZM167.906 9.56C166.377 9.56 164.823 9.64192 163.243 9.80531L163.449 11.7947C164.963 11.6381 166.449 11.56 167.906 11.56V9.56ZM162.346 10.8V25.12H164.346V10.8H162.346ZM163.121 26.0944C164.602 26.4361 166.335 26.6 168.306 26.6V24.6C166.438 24.6 164.864 24.4439 163.571 24.1456L163.121 26.0944ZM213.657 55.68L212.658 55.731L212.703 56.6121L213.583 56.6773L213.657 55.68ZM213.257 47.84L212.993 46.8755L212.217 47.088L212.258 47.891L213.257 47.84ZM219.097 46.24L219.361 47.2045L220.097 47.0029V46.24H219.097ZM218.777 13.04L217.863 13.4461L217.872 13.4669L217.882 13.4872L218.777 13.04ZM217.097 11.76L216.61 12.6334L216.661 12.6622L216.716 12.6847L217.097 11.76ZM212.937 9.44L211.939 9.3679L211.894 10.0031L212.45 10.3134L212.937 9.44ZM213.417 2.8L213.288 1.8083L212.478 1.91329L212.419 2.7279L213.417 2.8ZM252.297 4.48L252.834 3.63633L252.834 3.63633L252.297 4.48ZM256.457 21.52L257.382 21.9008L257.385 21.8914L256.457 21.52ZM253.017 26.48L252.322 25.7606L251.26 26.7861L252.607 27.3919L253.017 26.48ZM257.017 49.76L257.757 50.4327L257.757 50.4327L257.017 49.76ZM245.257 55.52L245.084 54.535L245.036 54.5434L244.989 54.5565L245.257 55.52ZM242.697 23.92L242.614 24.9165L243.361 24.9788L243.63 24.279L242.697 23.92ZM241.897 12L241.172 12.6887L241.181 12.698L241.19 12.7071L241.897 12ZM237.177 10.24L237.227 9.24125L237.202 9.24H237.177V10.24ZM233.017 10.4L232.94 9.40294L232.017 9.47396V10.4H233.017ZM233.017 23.76H232.017V24.8205L233.076 24.7583L233.017 23.76ZM245.817 45.6L246.201 46.5231L246.665 46.3299L246.787 45.8425L245.817 45.6ZM244.537 34.24L245.165 33.4621L245.165 33.4621L244.537 34.24ZM234.857 32.72L234.9 33.7191L234.928 33.7178L234.956 33.715L234.857 32.72ZM233.017 32.8L232.973 31.8009L232.017 31.8425V32.8H233.017ZM233.017 45.84H232.017V46.6598L232.821 46.8206L233.017 45.84ZM230.937 55.32C225.202 55.32 219.466 55.1076 213.731 54.6827L213.583 56.6773C219.368 57.1058 225.152 57.32 230.937 57.32V55.32ZM214.656 55.629L214.256 47.789L212.258 47.891L212.658 55.731L214.656 55.629ZM213.521 48.8045L219.361 47.2045L218.833 45.2755L212.993 46.8755L213.521 48.8045ZM220.097 46.24V15.76H218.097V46.24H220.097ZM220.097 15.76C220.097 15.0454 220.07 14.4296 220.01 13.9232C219.953 13.44 219.858 12.9657 219.671 12.5928L217.882 13.4872C217.909 13.541 217.974 13.7333 218.024 14.1568C218.071 14.557 218.097 15.0879 218.097 15.76H220.097ZM219.691 12.6339C219.313 11.7849 218.438 11.2309 217.478 10.8353L216.716 12.6847C217.569 13.0358 217.814 13.3351 217.863 13.4461L219.691 12.6339ZM217.584 10.8866L213.424 8.56663L212.45 10.3134L216.61 12.6334L217.584 10.8866ZM213.934 9.5121L214.414 2.8721L212.419 2.7279L211.939 9.3679L213.934 9.5121ZM213.545 3.7917C222.159 2.67519 229.527 2.12 235.657 2.12V0.119996C229.414 0.119996 221.955 0.684807 213.288 1.8083L213.545 3.7917ZM235.657 2.12C243.174 2.12 248.485 3.23935 251.76 5.32366L252.834 3.63633C249.069 1.24064 243.287 0.119996 235.657 0.119996V2.12ZM251.76 5.32366C254.94 7.34758 256.577 10.5432 256.577 15.12H258.577C258.577 9.99009 256.693 6.09241 252.834 3.63633L251.76 5.32366ZM256.577 15.12C256.577 17.4169 256.22 19.4206 255.528 21.1486L257.385 21.8914C258.187 19.8861 258.577 17.6231 258.577 15.12H256.577ZM255.532 21.1392C254.843 22.8132 253.779 24.3538 252.322 25.7606L253.711 27.1994C255.348 25.6196 256.578 23.8535 257.382 21.9007L255.532 21.1392ZM252.607 27.3919C255.146 28.5345 256.984 30.0023 258.192 31.7651C259.396 33.5226 260.017 35.6389 260.017 38.16H262.017C262.017 35.2945 261.305 32.7708 259.842 30.6349C258.383 28.5043 256.221 26.8255 253.427 25.5681L252.607 27.3919ZM260.017 38.16C260.017 42.7664 258.743 46.3752 256.277 49.0873L257.757 50.4327C260.625 47.2782 262.017 43.1536 262.017 38.16H260.017ZM256.277 49.0873C253.802 51.8102 250.11 53.6542 245.084 54.535L245.43 56.505C250.75 55.5725 254.899 53.5765 257.757 50.4327L256.277 49.0873ZM244.989 54.5565C244.144 54.7913 242.568 54.9882 240.181 55.1216C237.821 55.2534 234.741 55.32 230.937 55.32V57.32C234.759 57.32 237.88 57.2532 240.293 57.1184C242.679 56.9851 244.45 56.7821 245.525 56.4835L244.989 54.5565ZM243.63 24.279C244.235 22.7066 244.497 20.2249 244.497 16.96H242.497C242.497 20.2017 242.225 22.3601 241.764 23.561L243.63 24.279ZM244.497 16.96C244.497 14.5824 243.932 12.6213 242.604 11.2929L241.19 12.7071C241.995 13.512 242.497 14.8576 242.497 16.96H244.497ZM242.622 11.3113C241.366 9.9889 239.501 9.35498 237.227 9.24125L237.127 11.2388C239.119 11.3383 240.401 11.8778 241.172 12.6887L242.622 11.3113ZM237.177 9.24C235.765 9.24 234.352 9.29432 232.94 9.40294L233.094 11.3971C234.455 11.2923 235.816 11.24 237.177 11.24V9.24ZM232.017 10.4V23.76H234.017V10.4H232.017ZM233.076 24.7583C233.955 24.7066 235.107 24.68 236.537 24.68V22.68C235.087 22.68 233.892 22.7068 232.958 22.7617L233.076 24.7583ZM236.537 24.68C238.699 24.68 240.725 24.7591 242.614 24.9165L242.78 22.9235C240.829 22.7609 238.748 22.68 236.537 22.68V24.68ZM239.337 47.4C242.389 47.4 244.724 47.1389 246.201 46.5231L245.432 44.6769C244.35 45.1278 242.365 45.4 239.337 45.4V47.4ZM246.787 45.8425C247.334 43.6542 247.617 41.6769 247.617 39.92H245.617C245.617 41.4698 245.366 43.2791 244.847 45.3575L246.787 45.8425ZM247.617 39.92C247.617 37.1047 246.885 34.851 245.165 33.4621L243.909 35.0179C244.962 35.869 245.617 37.402 245.617 39.92H247.617ZM245.165 33.4621C243.502 32.1188 240.861 31.56 237.497 31.56V33.56C240.746 33.56 242.798 34.1212 243.909 35.0179L245.165 33.4621ZM237.497 31.56C236.758 31.56 235.841 31.6166 234.757 31.725L234.956 33.715C236.006 33.6101 236.85 33.56 237.497 33.56V31.56ZM234.813 31.7209L232.973 31.8009L233.06 33.7991L234.9 33.7191L234.813 31.7209ZM232.017 32.8V45.84H234.017V32.8H232.017ZM232.821 46.8206C234.765 47.2094 236.939 47.4 239.337 47.4V45.4C237.042 45.4 235.002 45.2173 233.213 44.8594L232.821 46.8206ZM280.816 47.84L280.552 46.8755L279.778 47.0876L279.817 47.889L280.816 47.84ZM286.656 46.24L286.92 47.2045L287.656 47.0029V46.24H286.656ZM286.336 12.88L285.422 13.2861L285.432 13.3069L285.442 13.3272L286.336 12.88ZM284.656 11.6L284.155 12.465L284.213 12.4989L284.276 12.5247L284.656 11.6ZM280.656 9.28L279.657 9.24668L279.637 9.84478L280.155 10.145L280.656 9.28ZM280.896 2.08V1.08H279.929L279.897 2.04668L280.896 2.08ZM324.336 2.08L325.334 2.01348L325.272 1.08H324.336V2.08ZM324.896 18.48L324.964 19.4777L325.896 19.4147V18.48H324.896ZM318.976 18.88L318.198 19.5079L318.525 19.9128L319.044 19.8777L318.976 18.88ZM313.296 11.84L314.075 11.2121L313.784 10.8526L313.323 10.8403L313.296 11.84ZM301.216 11.52L301.243 10.5203L300.216 10.4932V11.52H301.216ZM301.216 24.56H300.216V25.6481L301.3 25.5564L301.216 24.56ZM318.256 23.12H319.256V22.0319L318.172 22.1236L318.256 23.12ZM318.256 35.44L318.149 36.4342L319.256 36.5538V35.44H318.256ZM301.216 33.6L301.324 32.6058L300.216 32.4862V33.6H301.216ZM301.216 46.48H300.216V47.4982L301.234 47.4798L301.216 46.48ZM314.496 46.24L314.514 47.2398L314.957 47.2318L315.249 46.8985L314.496 46.24ZM320.656 39.2L320.724 38.2023L320.23 38.1689L319.904 38.5415L320.656 39.2ZM326.576 39.6L327.576 39.6381L327.612 38.6677L326.644 38.6023L326.576 39.6ZM325.376 56V57H326.272L326.37 56.1093L325.376 56ZM281.216 56L280.217 56.049L280.264 57H281.216V56ZM281.08 48.8045L286.92 47.2045L286.392 45.2755L280.552 46.8755L281.08 48.8045ZM287.656 46.24V15.6H285.656V46.24H287.656ZM287.656 15.6C287.656 14.8854 287.629 14.2696 287.569 13.7632C287.513 13.28 287.417 12.8057 287.231 12.4328L285.442 13.3272C285.469 13.381 285.533 13.5733 285.583 13.9968C285.63 14.397 285.656 14.9279 285.656 15.6H287.656ZM287.25 12.4739C286.873 11.6249 285.998 11.0709 285.037 10.6753L284.276 12.5247C285.128 12.8758 285.373 13.1751 285.422 13.2861L287.25 12.4739ZM285.158 10.735L281.158 8.41497L280.155 10.145L284.155 12.465L285.158 10.735ZM281.656 9.31331L281.896 2.11331L279.897 2.04668L279.657 9.24668L281.656 9.31331ZM280.896 3.08H324.336V1.08H280.896V3.08ZM323.338 2.14652C323.71 7.72552 323.896 13.17 323.896 18.48H325.896C325.896 13.1234 325.709 7.63448 325.334 2.01348L323.338 2.14652ZM324.829 17.4823L318.909 17.8823L319.044 19.8777L324.964 19.4777L324.829 17.4823ZM319.755 18.2521L314.075 11.2121L312.518 12.4679L318.198 19.5079L319.755 18.2521ZM313.323 10.8403L301.243 10.5203L301.19 12.5196L313.27 12.8396L313.323 10.8403ZM300.216 11.52V24.56H302.216V11.52H300.216ZM301.3 25.5564L318.34 24.1164L318.172 22.1236L301.132 23.5636L301.3 25.5564ZM317.256 23.12V35.44H319.256V23.12H317.256ZM318.364 34.4458L301.324 32.6058L301.109 34.5942L318.149 36.4342L318.364 34.4458ZM300.216 33.6V46.48H302.216V33.6H300.216ZM301.234 47.4798L314.514 47.2398L314.478 45.2402L301.198 45.4802L301.234 47.4798ZM315.249 46.8985L321.409 39.8585L319.904 38.5415L313.744 45.5815L315.249 46.8985ZM320.589 40.1977L326.509 40.5977L326.644 38.6023L320.724 38.2023L320.589 40.1977ZM325.577 39.5619C325.365 45.1392 324.966 50.582 324.382 55.8907L326.37 56.1093C326.96 50.7513 327.361 45.2608 327.576 39.6381L325.577 39.5619ZM325.376 55H281.216V57H325.376V55ZM282.215 55.951L281.815 47.791L279.817 47.889L280.217 56.049L282.215 55.951ZM347.944 47.84L347.68 46.8755L346.906 47.0876L346.946 47.889L347.944 47.84ZM353.784 46.24L354.049 47.2045L354.784 47.0029V46.24H353.784ZM353.464 13.04L352.551 13.4461L352.56 13.4669L352.57 13.4872L353.464 13.04ZM351.784 11.76L351.297 12.6334L351.349 12.6622L351.404 12.6847L351.784 11.76ZM347.624 9.44L346.627 9.36702L346.581 10.0028L347.137 10.3134L347.624 9.44ZM348.104 2.88L347.959 1.89058L347.166 2.00699L347.107 2.80702L348.104 2.88ZM385.144 2.88L384.828 3.82877L384.841 3.83292L385.144 2.88ZM392.824 8.24L391.987 8.78627L391.994 8.79688L392.001 8.8073L392.824 8.24ZM392.744 26.56L393.565 27.1311L393.571 27.1228L392.744 26.56ZM385.464 32.24L385.074 31.3192L383.999 31.7748L384.615 32.767L385.464 32.24ZM398.264 52.88L399.264 52.9056L399.272 52.6069L399.114 52.353L398.264 52.88ZM398.184 56V57H399.159L399.184 56.0256L398.184 56ZM383.624 56L382.75 56.4848L383.035 57H383.624V56ZM371.784 34.64L372.659 34.1552L372.381 33.6533L371.807 33.6403L371.784 34.64ZM368.264 34.56L368.287 33.5603L367.264 33.537V34.56H368.264ZM368.504 46L367.585 46.3939L367.621 46.4783L367.672 46.5547L368.504 46ZM369.944 47.12L370.447 46.2555L370.441 46.2518L369.944 47.12ZM373.384 49.12L374.383 49.1665L374.411 48.5604L373.887 48.2555L373.384 49.12ZM373.064 56V57H374.019L374.063 56.0465L373.064 56ZM348.344 56L347.346 56.049L347.392 57H348.344V56ZM379.624 24.8L379.996 25.7285L380.455 25.5446L380.588 25.0676L379.624 24.8ZM378.664 12.24L377.957 12.9471L377.965 12.9553L377.974 12.9634L378.664 12.24ZM368.424 10.8L368.321 9.80531L367.424 9.89811V10.8H368.424ZM368.424 25.12H367.424V25.9155L368.2 26.0944L368.424 25.12ZM348.209 48.8045L354.049 47.2045L353.52 45.2755L347.68 46.8755L348.209 48.8045ZM354.784 46.24V15.76H352.784V46.24H354.784ZM354.784 15.76C354.784 15.0454 354.757 14.4296 354.698 13.9232C354.641 13.44 354.545 12.9657 354.359 12.5928L352.57 13.4872C352.597 13.541 352.661 13.7333 352.711 14.1568C352.758 14.557 352.784 15.0879 352.784 15.76H354.784ZM354.378 12.6339C354.001 11.7849 353.126 11.2309 352.165 10.8353L351.404 12.6847C352.256 13.0358 352.501 13.3351 352.551 13.4461L354.378 12.6339ZM352.271 10.8866L348.111 8.56663L347.137 10.3134L351.297 12.6334L352.271 10.8866ZM348.622 9.51297L349.102 2.95297L347.107 2.80702L346.627 9.36702L348.622 9.51297ZM348.249 3.86941C356.206 2.7025 363.864 2.12 371.224 2.12V0.119996C363.758 0.119996 356.003 0.710828 347.959 1.89058L348.249 3.86941ZM371.224 2.12C376.929 2.12 381.45 2.70271 384.828 3.82868L385.461 1.93131C381.799 0.71062 377.039 0.119996 371.224 0.119996V2.12ZM384.841 3.83292C388.2 4.9017 390.543 6.57199 391.987 8.78627L393.662 7.69373C391.906 5.00134 389.129 3.0983 385.448 1.92707L384.841 3.83292ZM392.001 8.8073C393.504 10.9887 394.304 13.9691 394.304 17.84H396.304C396.304 13.7109 395.452 10.2912 393.648 7.67269L392.001 8.8073ZM394.304 17.84C394.304 20.9649 393.501 23.6715 391.918 25.9972L393.571 27.1228C395.401 24.4351 396.304 21.3284 396.304 17.84H394.304ZM391.923 25.9889C390.339 28.2661 388.073 30.0487 385.074 31.3192L385.855 33.1607C389.149 31.7646 391.736 29.7605 393.565 27.1311L391.923 25.9889ZM384.615 32.767L397.415 53.407L399.114 52.353L386.314 31.713L384.615 32.767ZM397.265 52.8544L397.185 55.9744L399.184 56.0256L399.264 52.9056L397.265 52.8544ZM398.184 55H383.624V57H398.184V55ZM384.499 55.5152L372.659 34.1552L370.91 35.1248L382.75 56.4848L384.499 55.5152ZM371.807 33.6403L368.287 33.5603L368.242 35.5597L371.762 35.6397L371.807 33.6403ZM367.264 34.56V43.52H369.264V34.56H367.264ZM367.264 43.52C367.264 44.177 367.285 44.7388 367.329 45.1963C367.371 45.6284 367.441 46.0578 367.585 46.3939L369.424 45.6061C369.424 45.6063 369.422 45.603 369.42 45.5953C369.417 45.5877 369.413 45.5769 369.409 45.5623C369.401 45.5327 369.391 45.4922 369.38 45.4389C369.358 45.3311 369.338 45.1878 369.32 45.0037C369.284 44.6346 369.264 44.143 369.264 43.52H367.264ZM367.672 46.5547C368.027 47.0867 368.694 47.5572 369.448 47.9882L370.441 46.2518C369.701 45.8294 369.408 45.5533 369.336 45.4453L367.672 46.5547ZM369.442 47.9845L372.882 49.9845L373.887 48.2555L370.447 46.2555L369.442 47.9845ZM372.385 49.0735L372.065 55.9535L374.063 56.0465L374.383 49.1665L372.385 49.0735ZM373.064 55H348.344V57H373.064V55ZM349.343 55.951L348.943 47.791L346.946 47.889L347.346 56.049L349.343 55.951ZM373.384 26.6C376.239 26.6 378.478 26.3355 379.996 25.7285L379.253 23.8715C378.104 24.3311 376.183 24.6 373.384 24.6V26.6ZM380.588 25.0676C381.152 23.0368 381.424 20.6487 381.424 17.92H379.424C379.424 20.5247 379.163 22.7232 378.661 24.5324L380.588 25.0676ZM381.424 17.92C381.424 15.1486 380.821 12.9165 379.355 11.5166L377.974 12.9634C378.854 13.8035 379.424 15.358 379.424 17.92H381.424ZM379.371 11.5329C377.97 10.1319 375.746 9.56 372.984 9.56V11.56C375.556 11.56 377.118 12.1081 377.957 12.9471L379.371 11.5329ZM372.984 9.56C371.455 9.56 369.901 9.64192 368.321 9.80531L368.527 11.7947C370.041 11.6381 371.527 11.56 372.984 11.56V9.56ZM367.424 10.8V25.12H369.424V10.8H367.424ZM368.2 26.0944C369.68 26.4361 371.413 26.6 373.384 26.6V24.6C371.516 24.6 369.942 24.4439 368.649 24.1456L368.2 26.0944Z" fill="black"/>
</svg>
