<svg width="166" height="167" viewBox="0 0 166 167" fill="none" xmlns="http://www.w3.org/2000/svg">
<path d="M51.5665 68.3291L32.5665 93.8291C41.5664 103.496 79.1664 126.629 157.566 141.829C163.066 145.162 170.766 154.329 157.566 164.329C150.233 169.329 112.766 165.429 21.5664 109.829C15.3997 117.329 2.66641 130.929 1.06642 125.329C0.566418 124.162 2.66642 118.529 15.0664 105.329C13.8998 105.162 11.4664 103.829 11.0665 99.8291C10.5665 95.6624 12.3665 87.7291 23.5665 89.3291L97.5665 1.32909C99.0665 0.495761 103.366 0.729094 108.566 8.32909L60.5665 68.3291H51.5665Z" fill="#383838" stroke="#383838"/>
<circle cx="149.566" cy="153.329" r="5.5" fill="#C4C4C4"/>
<circle cx="149.566" cy="153.329" r="1.5" fill="black"/>
<circle cx="20.5664" cy="98.3291" r="5.5" fill="#C4C4C4"/>
<circle cx="20.5664" cy="98.3291" r="1.5" fill="black"/>
</svg>
