<svg width="692" height="692" viewBox="0 0 692 692" fill="none" xmlns="http://www.w3.org/2000/svg">
<circle cx="346" cy="346" r="346" fill="#0A0A0A"/>
<rect x="270.662" y="183" width="133" height="183" fill="#BEC2C4"/>
<path d="M453.662 226L409.662 278C410.162 279 410.862 285.2 409.662 302L453.662 226Z" fill="#6F6F6D" stroke="#6F6F6D"/>
<path d="M277.162 266.5C273.562 296.9 279.662 307.167 283.162 308.5" stroke="black"/>
<path d="M286.662 233C293.462 219.4 292.162 212.667 290.662 211" stroke="black"/>
<path d="M290.162 256.5C300.962 250.9 307.329 251.5 309.162 252.5C306.362 244.1 299.662 242.333 296.662 242.5C293.462 242.9 286.995 247.667 284.162 250C284.562 245.6 290.662 239.833 293.662 237.5C296.062 235.9 299.329 236.5 300.662 237C306.662 239 315.829 243.833 319.662 246C328.462 250.8 328.995 254 328.162 255C326.962 256.6 327.662 262.667 328.162 265.5C325.762 266.3 322.495 268.5 321.162 269.5C320.762 268.3 321.995 267 322.662 266.5C325.462 264.5 325.495 263.333 325.162 263C322.362 257.8 311.329 257.5 306.162 258C303.192 258.495 301.983 258.76 301.612 258.891C301.629 258.927 301.646 258.963 301.662 259C301.471 259 301.383 258.971 301.612 258.891C300.279 256.199 293.451 256.171 290.162 256.5Z" fill="black"/>
<path d="M290.162 256.5C300.962 250.9 307.329 251.5 309.162 252.5C306.362 244.1 299.662 242.333 296.662 242.5C293.462 242.9 286.995 247.667 284.162 250C284.562 245.6 290.662 239.833 293.662 237.5C296.062 235.9 299.329 236.5 300.662 237C306.662 239 315.829 243.833 319.662 246C328.462 250.8 328.995 254 328.162 255C326.962 256.6 327.662 262.667 328.162 265.5C325.762 266.3 322.495 268.5 321.162 269.5C320.762 268.3 321.995 267 322.662 266.5C325.462 264.5 325.495 263.333 325.162 263C322.362 257.8 311.329 257.5 306.162 258C301.362 258.8 301.162 259 301.662 259C300.462 256.2 293.495 256.167 290.162 256.5Z" stroke="black"/>
<path d="M387.162 342C394.335 336.061 394.855 333.906 394.162 333.5C397.362 336.7 395.495 341.167 394.162 343C388.162 343.8 386.995 342.667 387.162 342Z" stroke="black"/>
<path d="M376.662 368C383.062 358.8 382.329 352.167 381.162 350M437.662 391.5C438.062 374.7 428.495 369.5 423.662 369" stroke="black"/>
<path d="M369.662 275.5C377.662 278.7 381.662 277.167 382.662 276" stroke="black"/>
<path d="M359.162 283C363.162 290.6 367.162 291.5 368.662 291" stroke="black"/>
<path d="M264.288 325.5C268.455 320.167 274.588 302.6 265.788 275L270.788 279C269.519 279 268.342 282.1 273.788 294.5C273.788 297 275.688 304.8 283.288 316C282.621 315.333 281.688 315.9 283.288 323.5C283.455 325 284.388 327.8 286.788 327C287.621 326.833 289.088 327.1 288.288 329.5C287.788 328.833 286.588 328.5 285.788 332.5C286.288 334.667 288.388 338.5 292.788 336.5C293.288 335.667 298.888 332.3 317.288 325.5C320.455 324.167 328.988 321.6 337.788 322C340.621 321.5 350.288 321.9 366.288 327.5C365.788 328 363.388 328.9 357.788 328.5C361.121 329.833 368.888 332 373.288 330C375.788 332.167 382.288 335.1 388.288 329.5C390.621 328.167 395.988 323.3 398.788 314.5C400.434 310.384 403.707 294.398 403.786 263.168C403.755 262.702 403.76 262.308 403.788 262C403.788 262.392 403.787 262.781 403.786 263.168C403.94 265.468 404.961 269.507 408.288 273.5C408.788 281.833 409.388 300 407.788 306C405.788 309.167 402.588 317.3 405.788 324.5C406.955 325.333 409.188 329.2 408.788 338C409.955 338.833 411.788 344.8 409.788 362C410.288 362.833 410.988 366.6 409.788 375C409.621 375.5 408.888 376.1 407.288 374.5C407.788 380.5 405.888 394 394.288 400C391.788 406.5 384.688 419.9 376.288 421.5C376.955 423.167 374.288 428.2 358.288 435C357.288 437 355.688 439.7 343.288 438.5C341.455 438.833 336.088 438.4 329.288 434C324.455 433.167 311.988 428 300.788 414C298.455 414 291.588 411 282.788 399C278.621 397.167 269.088 390.6 264.288 379C259.288 369.333 252.288 345.1 264.288 325.5Z" fill="#1A1A1A"/>
<path d="M265.788 275C274.588 302.6 268.455 320.167 264.288 325.5C252.288 345.1 259.288 369.333 264.288 379C269.088 390.6 278.621 397.167 282.788 399C291.588 411 298.455 414 300.788 414C311.988 428 324.455 433.167 329.288 434C336.088 438.4 341.455 438.833 343.288 438.5C355.688 439.7 357.288 437 358.288 435C374.288 428.2 376.955 423.167 376.288 421.5C384.688 419.9 391.788 406.5 394.288 400C405.888 394 407.788 380.5 407.288 374.5C408.888 376.1 409.621 375.5 409.788 375C410.988 366.6 410.288 362.833 409.788 362C411.788 344.8 409.955 338.833 408.788 338C409.188 329.2 406.955 325.333 405.788 324.5C402.588 317.3 405.788 309.167 407.788 306C409.388 300 408.788 281.833 408.288 273.5C404.288 268.7 403.621 263.833 403.788 262C403.788 294 400.455 310.333 398.788 314.5C395.988 323.3 390.621 328.167 388.288 329.5C382.288 335.1 375.788 332.167 373.288 330C368.888 332 361.121 329.833 357.788 328.5C363.388 328.9 365.788 328 366.288 327.5C350.288 321.9 340.621 321.5 337.788 322C328.988 321.6 320.455 324.167 317.288 325.5C298.888 332.3 293.288 335.667 292.788 336.5C288.388 338.5 286.288 334.667 285.788 332.5C286.588 328.5 287.788 328.833 288.288 329.5C289.088 327.1 287.621 326.833 286.788 327C284.388 327.8 283.455 325 283.288 323.5C281.688 315.9 282.621 315.333 283.288 316C275.688 304.8 273.788 297 273.788 294.5C268.342 282.1 269.519 279 270.788 279L265.788 275Z" stroke="black"/>
<path d="M346.662 319C349.204 278.69 345.07 263.355 342.042 259.749C341.75 259.509 341.457 259.259 341.162 259C341.438 259.138 341.734 259.383 342.042 259.749C351.639 267.655 359.412 265.265 362.162 263C380.162 256.2 391.329 257.5 394.662 259C401.062 264.2 398.662 265.167 396.662 265C372.662 266.6 368.662 267.667 369.662 268C361.662 269.6 381.995 269.333 393.162 269C395.162 270.2 393.329 271.167 392.162 271.5C372.162 270.7 360.495 271.833 357.162 272.5C351.562 273.3 351.162 281.167 351.662 285C353.262 310.2 361.329 319.167 365.162 320.5C366.362 323.3 361.662 320.333 359.162 318.5C351.962 321.3 347.829 320 346.662 319Z" fill="black"/>
<path d="M323.162 309.5C317.162 320.7 336.329 320.5 346.662 319M346.662 319C349.462 274.6 344.162 260.5 341.162 259C351.162 267.8 359.329 265.333 362.162 263C380.162 256.2 391.329 257.5 394.662 259C401.062 264.2 398.662 265.167 396.662 265C372.662 266.6 368.662 267.667 369.662 268C361.662 269.6 381.995 269.333 393.162 269C395.162 270.2 393.329 271.167 392.162 271.5C372.162 270.7 360.495 271.833 357.162 272.5C351.562 273.3 351.162 281.167 351.662 285C353.262 310.2 361.329 319.167 365.162 320.5C366.362 323.3 361.662 320.333 359.162 318.5C351.962 321.3 347.829 320 346.662 319Z" stroke="black"/>
<path d="M313.662 321.5C318.462 317.1 318.662 314 318.162 313" stroke="black"/>
<path d="M313.662 290.5C320.462 283.7 321.495 280.333 321.162 279.5" stroke="black"/>
<path d="M336.662 242C338.662 258 336.162 261.333 334.662 261" stroke="black"/>
<path d="M304.662 275C317.462 273.8 319.329 271.167 318.662 270" stroke="black"/>
<path d="M322.662 266C317.495 270.167 304.362 275.6 293.162 264C297.329 261.833 307.162 257.7 313.162 258.5C318.662 259.333 328.262 262 322.662 266Z" stroke="black"/>
<circle cx="310.662" cy="265" r="6" fill="#002C85"/>
<path d="M307.162 226C331.662 227.5 335.651 231.197 341.662 233C347.674 234.803 370.318 233.611 375.162 233" stroke="black"/>
<path d="M377.162 217.5C358.362 223.5 342.662 222.667 337.162 221.5C332.662 220.545 321.162 218.667 315.662 218" stroke="black"/>
<path d="M359.791 350.327C354.125 354.327 338.291 359.827 320.291 349.827C318.958 349.494 317.191 348.727 320.791 348.327C335.458 347.827 363.791 347.527 359.791 350.327Z" fill="#BEC2C4" stroke="#BEC2C4"/>
<path d="M339.662 344C326.495 346.167 297.862 348.2 288.662 339C293.162 341.833 309.862 346.3 340.662 341.5C347.829 342.667 364.962 344.9 376.162 344.5C369.995 345.667 354.062 347.2 339.662 344Z" fill="#BEC2C4" stroke="#BEC2C4"/>
<path d="M271.662 279L265.162 273.5C265.995 273.833 267.762 274.4 268.162 274C268.995 266.667 270.062 249.6 267.662 240C266.162 235.667 263.862 222.2 266.662 203C266.662 201.167 265.562 196.5 261.162 192.5C260.329 189.667 259.762 182.3 264.162 175.5C265.495 169.5 271.662 155.7 285.662 148.5C291.662 143.833 308.462 134.6 327.662 135C335.662 134.833 353.762 136.3 362.162 143.5C364.329 142.833 374.662 144 398.662 154C403.829 155.167 414.262 160 414.662 170C415.329 176.333 416.162 189.2 414.162 190C412.829 190.667 410.262 193.2 410.662 198C411.495 207.833 412.462 230.2 409.662 241C408.329 246.333 406.262 260.1 408.662 272.5C407.329 271.667 404.362 268.3 403.162 261.5C405.495 248 406.462 216.4 391.662 198C385.662 205.5 355.562 216.9 283.162 202.5C282.662 215.333 280.762 241.5 277.162 243.5C275.329 244.167 271.662 252.2 271.662 279Z" fill="#1A1A1A" stroke="black"/>
<path d="M398.162 282.5C402.562 305.7 394.329 318.5 389.662 322" stroke="black"/>
<path d="M394.162 207C402.962 231.4 400.495 244.5 398.162 248C396.562 222 394.829 209.833 394.162 207Z" fill="black" stroke="black"/>
<path d="M257.162 237.5C258.662 236.333 262.862 235.7 267.662 242.5C268.495 243.333 269.762 250.4 268.162 272C267.829 271.667 267.062 270.6 266.662 269C266.662 268.5 258.162 257.5 256.162 249C255.662 245.833 255.162 239.1 257.162 237.5Z" fill="#BEC2C4" stroke="black"/>
<path d="M416.162 240C418.329 242.833 419.962 253.2 409.162 272C407.829 267.5 406.162 254.6 410.162 239C411.329 238.167 414.162 237.2 416.162 240Z" fill="#BEC2C4" stroke="black"/>
<path d="M198.162 403.5L179.162 429C188.162 438.667 225.762 461.8 304.162 477C309.662 480.333 317.362 489.5 304.162 499.5C296.829 504.5 259.362 500.6 168.162 445C161.995 452.5 149.262 466.1 147.662 460.5C147.162 459.333 149.262 453.7 161.662 440.5C160.495 440.333 158.062 439 157.662 435C157.162 430.833 158.962 422.9 170.162 424.5L244.162 336.5C245.662 335.667 249.962 335.9 255.162 343.5L207.162 403.5H198.162Z" fill="#383838" stroke="#383838"/>
<path fill-rule="evenodd" clip-rule="evenodd" d="M278.646 421.944L278.662 422C278.656 421.982 278.651 421.964 278.646 421.944Z" fill="#6F6F6D"/>
<path fill-rule="evenodd" clip-rule="evenodd" d="M264.162 416C256.962 424.4 254.162 431.833 253.662 434.5C251.262 444.9 253.995 448.833 255.662 449.5C252.062 457.9 244.829 454 241.662 451C242.062 446.2 239.162 447.667 237.662 449C235.262 451 237.995 454.5 239.662 456C246.862 460.4 250.995 459.833 252.162 459C261.762 455 275.495 438.333 281.162 430.5C289.162 421.7 294.829 416.833 296.662 415.5C292.662 413.5 290.329 411 289.662 410C280.232 417.073 278.392 420.865 278.646 421.944L278.662 422C278.656 421.982 278.651 421.964 278.646 421.944C275.04 409.21 267.49 412.672 264.162 416ZM267 442C271 436.167 277.5 423.4 271.5 419C269.833 418.5 265.5 419.5 261.5 427.5C260.333 429.333 257.9 434.3 257.5 439.5C257.333 441.5 257.6 445.6 260 446C260.833 446.5 263.4 446.4 267 442Z" fill="#6F6F6D"/>
<path d="M278.662 422L278.646 421.944M278.662 422C278.656 421.982 278.651 421.964 278.646 421.944M278.662 422C278.657 421.981 278.652 421.963 278.646 421.944M278.646 421.944C278.392 420.865 280.232 417.073 289.662 410C290.329 411 292.662 413.5 296.662 415.5C294.829 416.833 289.162 421.7 281.162 430.5C275.495 438.333 261.762 455 252.162 459C250.995 459.833 246.862 460.4 239.662 456C237.995 454.5 235.262 451 237.662 449C239.162 447.667 242.062 446.2 241.662 451C244.829 454 252.062 457.9 255.662 449.5C253.995 448.833 251.262 444.9 253.662 434.5C254.162 431.833 256.962 424.4 264.162 416C267.49 412.672 275.04 409.21 278.646 421.944ZM271.5 419C277.5 423.4 271 436.167 267 442C263.4 446.4 260.833 446.5 260 446C257.6 445.6 257.333 441.5 257.5 439.5C257.9 434.3 260.333 429.333 261.5 427.5C265.5 419.5 269.833 418.5 271.5 419Z" stroke="#6F6F6D"/>
<path fill-rule="evenodd" clip-rule="evenodd" d="M384 419.5C395.352 427.9 401.568 437 403.257 440.5C406.906 448.9 412.886 452.333 415.419 453C419.068 453.4 422.345 449.5 423.528 447.5C427.176 441.9 422.345 429.833 419.474 424.5C404.473 421.7 399.372 418.667 398.696 417.5C396.669 421.1 393.797 419.667 392.615 418.5C389.777 415.7 389.068 414.333 389.068 414C387.041 417.2 384.845 419 384 419.5ZM414.838 447C411.338 447 404.038 442.4 402.838 424C403.505 423.333 406.538 422.9 413.338 426.5C416.838 432.833 422.038 445.8 414.838 447Z" fill="#6F6F6D" stroke="#6F6F6D"/>
<path d="M223.162 226.5L266.162 297C264.995 293.5 262.762 283.4 263.162 271L223.162 226.5Z" fill="#6F6F6D" stroke="#6F6F6D"/>
<path d="M399.662 415.5C373.662 380.7 369.829 368.667 371.162 367C371.962 361.8 373.829 359.167 374.662 358.5C377.062 349.3 376.329 345.667 375.662 345C374.462 341.4 376.495 340.833 377.662 341C383.262 341.4 389.329 347.167 391.662 350C394.462 362.8 390.495 368.333 388.162 369.5C387.762 372.7 384.662 372.833 383.162 372.5C382.762 372.9 383.329 373.667 383.662 374C388.462 373.6 389.329 371.167 389.162 370C391.162 368 392.662 369.167 393.162 370C397.162 378.8 403.829 383.333 406.662 384.5C419.862 382.9 422.162 369.833 421.662 363.5C423.662 347.9 418.829 340.667 416.162 339C411.762 335.8 404.662 337.333 401.662 338.5C398.062 345.3 389.829 344.333 386.162 343C378.562 340.2 380.995 337.167 383.162 336C390.762 328.4 396.995 326.5 399.162 326.5C417.962 312.9 426.995 314.167 429.162 316.5C427.562 295.7 424.162 288.5 422.662 287.5C415.862 277.9 416.495 268.833 417.662 265.5C420.062 257.9 423.329 258.333 424.662 259.5C431.062 264.3 433.662 271.5 434.162 274.5C442.331 284.897 444.812 291.789 445.126 294.457C443.606 270.889 446.508 263.662 448.162 263C451.762 259 455.662 260.333 457.162 261.5C463.562 266.3 463.829 287.167 463.162 297C466.762 286.2 471.329 288.167 473.162 290.5C479.162 308.1 476.662 336.5 474.662 348.5C477.062 397.3 471.329 415.833 468.162 419C441.762 424.6 433.495 421.333 432.662 419C419.462 424.2 405.162 418.833 399.662 415.5Z" fill="#BEC2C4"/>
<path d="M399.662 415.5C373.662 380.7 369.829 368.667 371.162 367C371.962 361.8 373.829 359.167 374.662 358.5C377.062 349.3 376.329 345.667 375.662 345C374.462 341.4 376.495 340.833 377.662 341C383.262 341.4 389.329 347.167 391.662 350C394.462 362.8 390.495 368.333 388.162 369.5C387.762 372.7 384.662 372.833 383.162 372.5C382.762 372.9 383.329 373.667 383.662 374C388.462 373.6 389.329 371.167 389.162 370C391.162 368 392.662 369.167 393.162 370C397.162 378.8 403.829 383.333 406.662 384.5C419.862 382.9 422.162 369.833 421.662 363.5C423.662 347.9 418.829 340.667 416.162 339C411.762 335.8 404.662 337.333 401.662 338.5C398.062 345.3 389.829 344.333 386.162 343C378.562 340.2 380.995 337.167 383.162 336C390.762 328.4 396.995 326.5 399.162 326.5C417.962 312.9 426.995 314.167 429.162 316.5C427.562 295.7 424.162 288.5 422.662 287.5C415.862 277.9 416.495 268.833 417.662 265.5C420.062 257.9 423.329 258.333 424.662 259.5C431.062 264.3 433.662 271.5 434.162 274.5C442.962 285.7 445.162 292.833 445.162 295C443.562 271 446.495 263.667 448.162 263C451.762 259 455.662 260.333 457.162 261.5C463.562 266.3 463.829 287.167 463.162 297C466.762 286.2 471.329 288.167 473.162 290.5C479.162 308.1 476.662 336.5 474.662 348.5C477.062 397.3 471.329 415.833 468.162 419C441.762 424.6 433.495 421.333 432.662 419C419.462 424.2 405.162 418.833 399.662 415.5Z" stroke="black"/>
<path d="M393.162 380.5C404.362 392.9 412.495 389 415.162 385.5" stroke="black"/>
<path d="M410.162 333C409.329 332.667 408.362 332.9 411.162 336.5C411.495 336.167 412.762 335.9 415.162 337.5C416.329 337.667 418.362 337.5 417.162 335.5C416.329 335.5 414.762 334.9 415.162 332.5C415.829 331.667 415.762 330.6 410.162 333Z" fill="black" stroke="black"/>
<path d="M402.022 337.674C401.36 338.371 400.579 339.144 399.662 340C399.546 339.418 399.981 338.382 402.022 337.674C404.735 334.817 405.462 333.238 405.428 332.494C405.347 332.334 405.258 332.169 405.162 332C405.309 332.074 405.416 332.232 405.428 332.494C406.69 335.001 406.132 336.53 405.662 337C404.09 337.121 402.906 337.367 402.022 337.674Z" fill="black"/>
<path d="M399.662 340C405.662 334.4 405.829 332.333 405.162 332C406.762 334.8 406.162 336.5 405.662 337C400.462 337.4 399.495 339.167 399.662 340Z" stroke="black"/>
<path d="M446.129 372C432.529 366.4 431.795 355.667 433.129 351" stroke="black"/>
<path d="M433.662 334C432.662 334 430.862 331.1 431.662 319.5C431.162 317.833 430.062 312.4 429.662 304C429.662 303 429.862 300.6 430.662 299C430.162 299.333 428.662 298.5 426.662 292.5C425.829 291 423.562 286.3 421.162 279.5C420.329 275.333 418.962 266.9 420.162 266.5C421.329 266.5 423.762 267.7 424.162 272.5C425.329 276.167 427.362 283.5 426.162 283.5C425.162 283.5 423.962 284.2 427.162 287C428.828 287.167 431.462 287.848 428.662 289.241C428.328 288.828 427.862 289 428.662 293C429.828 294 432.362 296.5 433.162 298.5C433.662 299.667 434.162 302.2 432.162 303C431.662 303.333 431.062 304.5 432.662 306.5C433.495 306.5 434.962 306.9 434.162 308.5C433.162 308.167 431.762 308.5 434.162 312.5C435.162 312.333 437.062 313.1 436.662 317.5C435.995 317.5 435.562 320.5 439.162 332.5C438.828 333.5 437.262 335.2 433.662 334Z" fill="black" stroke="black"/>
<path d="M445.662 334.5C447.162 328.5 448.762 312.2 443.162 295C444.329 295.5 446.762 295.9 447.162 293.5C446.495 289.667 445.762 279.4 448.162 269C449.329 266.833 451.862 263.2 452.662 266C451.662 266.167 449.762 268 450.162 274C449.329 276.833 448.362 283.3 451.162 286.5C451.662 287.333 451.962 288.6 449.162 287C448.662 287.167 448.462 288.7 451.662 293.5C450.662 293.167 448.662 293.2 448.662 296C449.829 296 451.862 302.6 450.662 329C450.829 329.667 450.562 332.1 448.162 336.5C447.662 335.833 446.262 337.1 444.662 347.5C443.829 347.667 442.862 345.3 445.662 334.5Z" fill="black" stroke="black"/>
<path d="M461.662 307C462.162 308.333 461.262 317.4 453.662 343C456.162 342.167 460.962 339.8 460.162 337C459.495 337.5 458.162 338.1 458.162 336.5C458.995 335 460.862 332 461.662 332C461.995 332 462.862 330.9 463.662 326.5C464.162 324.167 464.962 319.1 464.162 317.5C463.495 316.167 462.662 311.1 464.662 301.5C465.995 298.833 468.562 293.4 468.162 293C467.662 292.667 466.162 292.9 464.162 296.5C462.995 296.667 460.862 299 461.662 307Z" fill="#070707" stroke="black"/>
<path d="M467.662 417C467.162 417.667 465.262 418.7 461.662 417.5C461.221 413.971 461.714 398.298 466.506 362.789C466.892 351.425 467.885 347.586 468.662 347.5C467.862 352.961 467.146 358.052 466.506 362.789C466.148 373.35 466.313 390.411 467.662 417Z" fill="black"/>
<path d="M461.662 417.5C465.262 418.7 467.162 417.667 467.662 417C464.862 361.8 467.162 347.667 468.662 347.5C461.862 393.9 461.162 413.5 461.662 417.5Z" stroke="black"/>
<path d="M432.662 418C432.495 417.5 431.062 416.8 426.662 418C425.998 415.179 426.755 408.062 435.054 402.078C435.093 402.036 435.129 402.011 435.162 402C435.126 402.026 435.09 402.052 435.054 402.078C434.505 402.66 433.409 406.42 432.662 418Z" fill="black"/>
<path d="M426.662 418C431.062 416.8 432.495 417.5 432.662 418C433.462 405.6 434.662 402.167 435.162 402C426.762 408 425.995 415.167 426.662 418Z" stroke="black"/>
<circle cx="296.162" cy="488.5" r="5.5" fill="#BEC2C4"/>
<circle cx="296.162" cy="488.5" r="1.5" fill="black"/>
<circle cx="167.162" cy="433.5" r="5.5" fill="#BEC2C4"/>
<circle cx="167.162" cy="433.5" r="1.5" fill="black"/>
<path d="M164.062 580.32C158.302 580.32 152.542 580.107 146.782 579.68L146.382 571.84L152.222 570.24V539.76C152.222 538.373 152.115 537.467 151.902 537.04C151.689 536.56 151.129 536.133 150.222 535.76L146.062 533.44L146.542 526.8C155.182 525.68 162.595 525.12 168.782 525.12C176.355 525.12 181.902 526.24 185.422 528.48C188.942 530.72 190.702 534.267 190.702 539.12C190.702 541.52 190.329 543.653 189.582 545.52C188.835 547.333 187.689 548.987 186.142 550.48C191.475 552.88 194.142 556.773 194.142 562.16C194.142 566.96 192.809 570.827 190.142 573.76C187.475 576.693 183.555 578.613 178.382 579.52C176.462 580.053 171.689 580.32 164.062 580.32ZM175.822 547.92C176.355 546.533 176.622 544.213 176.622 540.96C176.622 538.72 176.089 537.067 175.022 536C174.009 534.933 172.435 534.347 170.302 534.24C168.915 534.24 167.529 534.293 166.142 534.4V547.76C167.049 547.707 168.222 547.68 169.662 547.68C171.849 547.68 173.902 547.76 175.822 547.92ZM172.462 570.4C175.502 570.4 177.662 570.133 178.942 569.6C179.475 567.467 179.742 565.573 179.742 563.92C179.742 561.253 179.049 559.36 177.662 558.24C176.275 557.12 173.929 556.56 170.622 556.56C169.929 556.56 169.049 556.613 167.982 556.72L166.142 556.8V569.84C168.009 570.213 170.115 570.4 172.462 570.4ZM210.249 572.88L212.729 571.36L231.449 526L245.049 524.8L261.049 568C261.582 569.387 261.955 570.293 262.169 570.72C262.382 571.147 262.782 571.733 263.369 572.48L264.809 574.32L264.329 580H241.849L241.049 572.4L246.729 570.96L244.169 562.88L227.929 563.12L226.169 568.16C226.009 568.64 225.929 569.04 225.929 569.36C225.929 569.733 225.982 570.027 226.089 570.24C226.249 570.4 226.489 570.533 226.809 570.64L232.329 572.96L231.529 580H210.569L210.249 572.88ZM236.409 538.48L231.129 553.84L241.449 554.32L236.409 538.48ZM282.554 571.84L288.394 570.24V539.76C288.394 538.373 288.287 537.467 288.074 537.04C287.86 536.56 287.3 536.133 286.394 535.76L282.234 533.44L282.714 526.88C290.714 525.707 298.42 525.12 305.834 525.12C311.594 525.12 316.234 525.707 319.754 526.88C323.274 528 325.834 529.787 327.434 532.24C329.087 534.64 329.914 537.84 329.914 541.84C329.914 545.147 329.06 548.053 327.354 550.56C325.647 553.013 323.22 554.907 320.074 556.24L332.874 576.88L332.794 580H318.234L306.394 558.64L302.874 558.56V567.52C302.874 568.8 302.954 569.627 303.114 570C303.327 570.32 303.807 570.693 304.554 571.12L307.994 573.12L307.674 580H282.954L282.554 571.84ZM307.994 549.6C310.82 549.6 312.9 549.333 314.234 548.8C314.767 546.88 315.034 544.587 315.034 541.92C315.034 539.253 314.447 537.36 313.274 536.24C312.154 535.12 310.26 534.56 307.594 534.56C306.1 534.56 304.58 534.64 303.034 534.8V549.12C304.42 549.44 306.074 549.6 307.994 549.6ZM370.624 580.32C364.864 580.32 359.104 580.107 353.344 579.68L352.944 571.84L358.784 570.24V539.76C358.784 538.373 358.678 537.467 358.464 537.04C358.251 536.56 357.691 536.133 356.784 535.76L352.624 533.44L353.104 526.8C361.744 525.68 369.158 525.12 375.344 525.12C382.918 525.12 388.464 526.24 391.984 528.48C395.504 530.72 397.264 534.267 397.264 539.12C397.264 541.52 396.891 543.653 396.144 545.52C395.398 547.333 394.251 548.987 392.704 550.48C398.038 552.88 400.704 556.773 400.704 562.16C400.704 566.96 399.371 570.827 396.704 573.76C394.038 576.693 390.118 578.613 384.944 579.52C383.024 580.053 378.251 580.32 370.624 580.32ZM382.384 547.92C382.918 546.533 383.184 544.213 383.184 540.96C383.184 538.72 382.651 537.067 381.584 536C380.571 534.933 378.998 534.347 376.864 534.24C375.478 534.24 374.091 534.293 372.704 534.4V547.76C373.611 547.707 374.784 547.68 376.224 547.68C378.411 547.68 380.464 547.76 382.384 547.92ZM379.024 570.4C382.064 570.4 384.224 570.133 385.504 569.6C386.038 567.467 386.304 565.573 386.304 563.92C386.304 561.253 385.611 559.36 384.224 558.24C382.838 557.12 380.491 556.56 377.184 556.56C376.491 556.56 375.611 556.613 374.544 556.72L372.704 556.8V569.84C374.571 570.213 376.678 570.4 379.024 570.4ZM420.504 571.84L426.344 570.24V539.6C426.344 538.213 426.237 537.307 426.024 536.88C425.81 536.4 425.25 535.973 424.344 535.6L420.344 533.28L420.584 526.08H464.024C464.397 531.68 464.584 537.147 464.584 542.48L458.664 542.88L452.984 535.84L440.904 535.52V548.56L457.944 547.12V559.44L440.904 557.6V570.48L454.184 570.24L460.344 563.2L466.264 563.6C466.05 569.2 465.65 574.667 465.064 580H420.904L420.504 571.84ZM487.632 571.84L493.472 570.24V539.76C493.472 538.373 493.365 537.467 493.152 537.04C492.939 536.56 492.379 536.133 491.472 535.76L487.312 533.44L487.792 526.88C495.792 525.707 503.499 525.12 510.912 525.12C516.672 525.12 521.312 525.707 524.832 526.88C528.352 528 530.912 529.787 532.512 532.24C534.165 534.64 534.992 537.84 534.992 541.84C534.992 545.147 534.139 548.053 532.432 550.56C530.725 553.013 528.299 554.907 525.152 556.24L537.952 576.88L537.872 580H523.312L511.472 558.64L507.952 558.56V567.52C507.952 568.8 508.032 569.627 508.192 570C508.405 570.32 508.885 570.693 509.632 571.12L513.072 573.12L512.752 580H488.032L487.632 571.84ZM513.072 549.6C515.899 549.6 517.979 549.333 519.312 548.8C519.845 546.88 520.112 544.587 520.112 541.92C520.112 539.253 519.525 537.36 518.352 536.24C517.232 535.12 515.339 534.56 512.672 534.56C511.179 534.56 509.659 534.64 508.112 534.8V549.12C509.499 549.44 511.152 549.6 513.072 549.6Z" fill="#002C85"/>
<path d="M146.782 579.68L145.783 579.731L145.828 580.612L146.708 580.677L146.782 579.68ZM146.382 571.84L146.118 570.876L145.342 571.088L145.383 571.891L146.382 571.84ZM152.222 570.24L152.486 571.204L153.222 571.003V570.24H152.222ZM151.902 537.04L150.988 537.446L150.997 537.467L151.007 537.487L151.902 537.04ZM150.222 535.76L149.735 536.633L149.786 536.662L149.841 536.685L150.222 535.76ZM146.062 533.44L145.064 533.368L145.019 534.003L145.575 534.313L146.062 533.44ZM146.542 526.8L146.413 525.808L145.603 525.913L145.544 526.728L146.542 526.8ZM185.422 528.48L185.959 527.636L185.959 527.636L185.422 528.48ZM189.582 545.52L190.507 545.901L190.51 545.891L189.582 545.52ZM186.142 550.48L185.447 549.761L184.385 550.786L185.732 551.392L186.142 550.48ZM190.142 573.76L190.882 574.433L190.882 574.433L190.142 573.76ZM178.382 579.52L178.209 578.535L178.161 578.543L178.114 578.556L178.382 579.52ZM175.822 547.92L175.739 548.917L176.486 548.979L176.755 548.279L175.822 547.92ZM175.022 536L174.297 536.689L174.306 536.698L174.315 536.707L175.022 536ZM170.302 534.24L170.352 533.241L170.327 533.24H170.302V534.24ZM166.142 534.4L166.065 533.403L165.142 533.474V534.4H166.142ZM166.142 547.76H165.142V548.821L166.201 548.758L166.142 547.76ZM178.942 569.6L179.326 570.523L179.79 570.33L179.912 569.843L178.942 569.6ZM177.662 558.24L178.29 557.462L178.29 557.462L177.662 558.24ZM167.982 556.72L168.025 557.719L168.053 557.718L168.081 557.715L167.982 556.72ZM166.142 556.8L166.098 555.801L165.142 555.843V556.8H166.142ZM166.142 569.84H165.142V570.66L165.946 570.821L166.142 569.84ZM164.062 579.32C158.327 579.32 152.591 579.108 146.856 578.683L146.708 580.677C152.493 581.106 158.277 581.32 164.062 581.32V579.32ZM147.781 579.629L147.381 571.789L145.383 571.891L145.783 579.731L147.781 579.629ZM146.646 572.804L152.486 571.204L151.958 569.276L146.118 570.876L146.646 572.804ZM153.222 570.24V539.76H151.222V570.24H153.222ZM153.222 539.76C153.222 539.045 153.195 538.43 153.135 537.923C153.078 537.44 152.983 536.966 152.796 536.593L151.007 537.487C151.034 537.541 151.099 537.733 151.149 538.157C151.196 538.557 151.222 539.088 151.222 539.76H153.222ZM152.816 536.634C152.438 535.785 151.563 535.231 150.603 534.835L149.841 536.685C150.694 537.036 150.939 537.335 150.988 537.446L152.816 536.634ZM150.709 534.887L146.549 532.567L145.575 534.313L149.735 536.633L150.709 534.887ZM147.059 533.512L147.539 526.872L145.544 526.728L145.064 533.368L147.059 533.512ZM146.67 527.792C155.284 526.675 162.652 526.12 168.782 526.12V524.12C162.539 524.12 155.08 524.685 146.413 525.808L146.67 527.792ZM168.782 526.12C176.299 526.12 181.61 527.239 184.885 529.324L185.959 527.636C182.194 525.241 176.412 524.12 168.782 524.12V526.12ZM184.885 529.324C188.065 531.348 189.702 534.543 189.702 539.12H191.702C191.702 533.99 189.818 530.092 185.959 527.636L184.885 529.324ZM189.702 539.12C189.702 541.417 189.345 543.421 188.653 545.149L190.51 545.891C191.312 543.886 191.702 541.623 191.702 539.12H189.702ZM188.657 545.139C187.968 546.813 186.904 548.354 185.447 549.761L186.836 551.199C188.473 549.62 189.703 547.853 190.507 545.901L188.657 545.139ZM185.732 551.392C188.271 552.535 190.109 554.002 191.317 555.765C192.521 557.523 193.142 559.639 193.142 562.16H195.142C195.142 559.294 194.43 556.771 192.967 554.635C191.508 552.504 189.346 550.825 186.552 549.568L185.732 551.392ZM193.142 562.16C193.142 566.766 191.868 570.375 189.402 573.087L190.882 574.433C193.75 571.278 195.142 567.154 195.142 562.16H193.142ZM189.402 573.087C186.927 575.81 183.235 577.654 178.209 578.535L178.555 580.505C183.875 579.572 188.024 577.576 190.882 574.433L189.402 573.087ZM178.114 578.556C177.269 578.791 175.693 578.988 173.306 579.122C170.946 579.253 167.866 579.32 164.062 579.32V581.32C167.884 581.32 171.005 581.253 173.418 581.118C175.804 580.985 177.575 580.782 178.65 580.484L178.114 578.556ZM176.755 548.279C177.36 546.707 177.622 544.225 177.622 540.96H175.622C175.622 544.202 175.35 546.36 174.889 547.561L176.755 548.279ZM177.622 540.96C177.622 538.582 177.057 536.621 175.729 535.293L174.315 536.707C175.12 537.512 175.622 538.858 175.622 540.96H177.622ZM175.747 535.311C174.491 533.989 172.626 533.355 170.352 533.241L170.252 535.239C172.244 535.338 173.526 535.878 174.297 536.689L175.747 535.311ZM170.302 533.24C168.89 533.24 167.477 533.294 166.065 533.403L166.219 535.397C167.58 535.292 168.941 535.24 170.302 535.24V533.24ZM165.142 534.4V547.76H167.142V534.4H165.142ZM166.201 548.758C167.08 548.707 168.232 548.68 169.662 548.68V546.68C168.212 546.68 167.017 546.707 166.083 546.762L166.201 548.758ZM169.662 548.68C171.824 548.68 173.85 548.759 175.739 548.917L175.905 546.923C173.954 546.761 171.873 546.68 169.662 546.68V548.68ZM172.462 571.4C175.514 571.4 177.849 571.139 179.326 570.523L178.557 568.677C177.475 569.128 175.49 569.4 172.462 569.4V571.4ZM179.912 569.843C180.459 567.654 180.742 565.677 180.742 563.92H178.742C178.742 565.47 178.491 567.279 177.972 569.357L179.912 569.843ZM180.742 563.92C180.742 561.105 180.01 558.851 178.29 557.462L177.034 559.018C178.087 559.869 178.742 561.402 178.742 563.92H180.742ZM178.29 557.462C176.627 556.119 173.986 555.56 170.622 555.56V557.56C173.871 557.56 175.923 558.121 177.034 559.018L178.29 557.462ZM170.622 555.56C169.883 555.56 168.966 555.617 167.882 555.725L168.081 557.715C169.131 557.61 169.975 557.56 170.622 557.56V555.56ZM167.938 555.721L166.098 555.801L166.185 557.799L168.025 557.719L167.938 555.721ZM165.142 556.8V569.84H167.142V556.8H165.142ZM165.946 570.821C167.89 571.209 170.064 571.4 172.462 571.4V569.4C170.167 569.4 168.127 569.217 166.338 568.859L165.946 570.821ZM210.249 572.88L209.726 572.027L209.223 572.336L209.25 572.925L210.249 572.88ZM212.729 571.36L213.251 572.213L213.529 572.042L213.653 571.741L212.729 571.36ZM231.449 526L231.361 525.004L230.756 525.057L230.524 525.619L231.449 526ZM245.049 524.8L245.987 524.453L245.721 523.737L244.961 523.804L245.049 524.8ZM261.049 568L260.111 568.347L260.115 568.359L261.049 568ZM263.369 572.48L264.156 571.864L264.155 571.862L263.369 572.48ZM264.809 574.32L265.805 574.404L265.838 574.013L265.596 573.704L264.809 574.32ZM264.329 580V581H265.248L265.325 580.084L264.329 580ZM241.849 580L240.854 580.105L240.948 581H241.849V580ZM241.049 572.4L240.803 571.431L239.964 571.643L240.054 572.505L241.049 572.4ZM246.729 570.96L246.974 571.929L248.002 571.669L247.682 570.658L246.729 570.96ZM244.169 562.88L245.122 562.578L244.897 561.869L244.154 561.88L244.169 562.88ZM227.929 563.12L227.914 562.12L227.215 562.13L226.985 562.79L227.929 563.12ZM226.169 568.16L225.225 567.83L225.222 567.837L225.22 567.844L226.169 568.16ZM226.089 570.24L225.194 570.687L225.267 570.832L225.382 570.947L226.089 570.24ZM226.809 570.64L227.196 569.718L227.161 569.703L227.125 569.691L226.809 570.64ZM232.329 572.96L233.322 573.073L233.407 572.328L232.716 572.038L232.329 572.96ZM231.529 580V581H232.422L232.522 580.113L231.529 580ZM210.569 580L209.57 580.045L209.613 581H210.569V580ZM236.409 538.48L237.362 538.177L236.445 535.297L235.463 538.155L236.409 538.48ZM231.129 553.84L230.183 553.515L229.749 554.777L231.082 554.839L231.129 553.84ZM241.449 554.32L241.402 555.319L242.837 555.386L242.402 554.017L241.449 554.32ZM210.771 573.733L213.251 572.213L212.206 570.507L209.726 572.027L210.771 573.733ZM213.653 571.741L232.373 526.381L230.524 525.619L211.804 570.979L213.653 571.741ZM231.537 526.996L245.137 525.796L244.961 523.804L231.361 525.004L231.537 526.996ZM244.111 525.147L260.111 568.347L261.987 567.653L245.987 524.453L244.111 525.147ZM260.115 568.359C260.645 569.737 261.036 570.69 261.274 571.167L263.063 570.273C262.875 569.897 262.519 569.037 261.982 567.641L260.115 568.359ZM261.274 571.167C261.535 571.688 261.986 572.339 262.582 573.098L264.155 571.862C263.578 571.127 263.23 570.605 263.063 570.273L261.274 571.167ZM262.581 573.096L264.021 574.936L265.596 573.704L264.156 571.864L262.581 573.096ZM263.812 574.236L263.332 579.916L265.325 580.084L265.805 574.404L263.812 574.236ZM264.329 579H241.849V581H264.329V579ZM242.843 579.895L242.043 572.295L240.054 572.505L240.854 580.105L242.843 579.895ZM241.294 573.369L246.974 571.929L246.483 569.991L240.803 571.431L241.294 573.369ZM247.682 570.658L245.122 562.578L243.215 563.182L245.775 571.262L247.682 570.658ZM244.154 561.88L227.914 562.12L227.944 564.12L244.184 563.88L244.154 561.88ZM226.985 562.79L225.225 567.83L227.113 568.49L228.873 563.45L226.985 562.79ZM225.22 567.844C225.043 568.374 224.929 568.889 224.929 569.36H226.929C226.929 569.191 226.974 568.906 227.117 568.476L225.22 567.844ZM224.929 569.36C224.929 569.81 224.99 570.278 225.194 570.687L226.983 569.793C226.974 569.775 226.929 569.657 226.929 569.36H224.929ZM225.382 570.947C225.692 571.257 226.092 571.455 226.493 571.589L227.125 569.691C226.886 569.612 226.806 569.543 226.796 569.533L225.382 570.947ZM226.421 571.562L231.941 573.882L232.716 572.038L227.196 569.718L226.421 571.562ZM231.335 572.847L230.535 579.887L232.522 580.113L233.322 573.073L231.335 572.847ZM231.529 579H210.569V581H231.529V579ZM211.568 579.955L211.248 572.835L209.25 572.925L209.57 580.045L211.568 579.955ZM235.463 538.155L230.183 553.515L232.074 554.165L237.354 538.805L235.463 538.155ZM231.082 554.839L241.402 555.319L241.495 553.321L231.175 552.841L231.082 554.839ZM242.402 554.017L237.362 538.177L235.456 538.783L240.496 554.623L242.402 554.017ZM282.554 571.84L282.29 570.876L281.516 571.088L281.555 571.889L282.554 571.84ZM288.394 570.24L288.658 571.204L289.394 571.003V570.24H288.394ZM288.074 537.04L287.16 537.446L287.169 537.467L287.179 537.487L288.074 537.04ZM286.394 535.76L285.907 536.633L285.958 536.662L286.013 536.685L286.394 535.76ZM282.234 533.44L281.236 533.367L281.19 534.003L281.747 534.313L282.234 533.44ZM282.714 526.88L282.569 525.891L281.775 526.007L281.716 526.807L282.714 526.88ZM319.754 526.88L319.437 527.829L319.451 527.833L319.754 526.88ZM327.434 532.24L326.596 532.786L326.603 532.797L326.61 532.807L327.434 532.24ZM327.354 550.56L328.175 551.131L328.18 551.123L327.354 550.56ZM320.074 556.24L319.684 555.319L318.609 555.775L319.224 556.767L320.074 556.24ZM332.874 576.88L333.873 576.906L333.881 576.607L333.724 576.353L332.874 576.88ZM332.794 580V581H333.768L333.793 580.026L332.794 580ZM318.234 580L317.359 580.485L317.645 581H318.234V580ZM306.394 558.64L307.268 558.155L306.99 557.653L306.416 557.64L306.394 558.64ZM302.874 558.56L302.896 557.56L301.874 557.537V558.56H302.874ZM303.114 570L302.195 570.394L302.231 570.478L302.282 570.555L303.114 570ZM304.554 571.12L305.056 570.255L305.05 570.252L304.554 571.12ZM307.994 573.12L308.993 573.166L309.021 572.56L308.496 572.255L307.994 573.12ZM307.674 580V581H308.628L308.673 580.046L307.674 580ZM282.954 580L281.955 580.049L282.002 581H282.954V580ZM314.234 548.8L314.605 549.728L315.065 549.545L315.197 549.068L314.234 548.8ZM313.274 536.24L312.567 536.947L312.575 536.955L312.583 536.963L313.274 536.24ZM303.034 534.8L302.931 533.805L302.034 533.898V534.8H303.034ZM303.034 549.12H302.034V549.916L302.809 550.094L303.034 549.12ZM282.818 572.804L288.658 571.204L288.13 569.276L282.29 570.876L282.818 572.804ZM289.394 570.24V539.76H287.394V570.24H289.394ZM289.394 539.76C289.394 539.045 289.366 538.43 289.307 537.923C289.25 537.44 289.155 536.966 288.968 536.593L287.179 537.487C287.206 537.541 287.271 537.733 287.321 538.157C287.368 538.557 287.394 539.088 287.394 539.76H289.394ZM288.988 536.634C288.61 535.785 287.735 535.231 286.775 534.835L286.013 536.685C286.866 537.036 287.111 537.335 287.16 537.446L288.988 536.634ZM286.881 534.887L282.721 532.567L281.747 534.313L285.907 536.633L286.881 534.887ZM283.231 533.513L283.711 526.953L281.716 526.807L281.236 533.367L283.231 533.513ZM282.859 527.869C290.815 526.702 298.473 526.12 305.834 526.12V524.12C298.368 524.12 290.612 524.711 282.569 525.891L282.859 527.869ZM305.834 526.12C311.539 526.12 316.06 526.703 319.438 527.829L320.07 525.931C316.408 524.711 311.649 524.12 305.834 524.12V526.12ZM319.451 527.833C322.81 528.902 325.152 530.572 326.596 532.786L328.271 531.694C326.515 529.001 323.738 527.098 320.057 525.927L319.451 527.833ZM326.61 532.807C328.113 534.989 328.914 537.969 328.914 541.84H330.914C330.914 537.711 330.061 534.291 328.257 531.673L326.61 532.807ZM328.914 541.84C328.914 544.965 328.111 547.672 326.527 549.997L328.18 551.123C330.01 548.435 330.914 545.328 330.914 541.84H328.914ZM326.533 549.989C324.949 552.266 322.682 554.049 319.684 555.319L320.464 557.161C323.759 555.765 326.345 553.761 328.175 551.131L326.533 549.989ZM319.224 556.767L332.024 577.407L333.724 576.353L320.924 555.713L319.224 556.767ZM331.874 576.854L331.794 579.974L333.793 580.026L333.873 576.906L331.874 576.854ZM332.794 579H318.234V581H332.794V579ZM319.108 579.515L307.268 558.155L305.519 559.125L317.359 580.485L319.108 579.515ZM306.416 557.64L302.896 557.56L302.851 559.56L306.371 559.64L306.416 557.64ZM301.874 558.56V567.52H303.874V558.56H301.874ZM301.874 567.52C301.874 568.177 301.894 568.739 301.938 569.196C301.98 569.628 302.051 570.058 302.195 570.394L304.033 569.606C304.033 569.606 304.032 569.603 304.029 569.595C304.026 569.588 304.023 569.577 304.019 569.562C304.01 569.533 304 569.492 303.989 569.439C303.968 569.331 303.947 569.188 303.929 569.004C303.893 568.635 303.874 568.143 303.874 567.52H301.874ZM302.282 570.555C302.636 571.087 303.303 571.557 304.058 571.988L305.05 570.252C304.311 569.829 304.018 569.553 303.946 569.445L302.282 570.555ZM304.051 571.985L307.491 573.985L308.496 572.255L305.056 570.255L304.051 571.985ZM306.995 573.074L306.675 579.954L308.673 580.046L308.993 573.166L306.995 573.074ZM307.674 579H282.954V581H307.674V579ZM283.953 579.951L283.553 571.791L281.555 571.889L281.955 580.049L283.953 579.951ZM307.994 550.6C310.849 550.6 313.088 550.336 314.605 549.728L313.862 547.872C312.713 548.331 310.792 548.6 307.994 548.6V550.6ZM315.197 549.068C315.761 547.037 316.034 544.649 316.034 541.92H314.034C314.034 544.525 313.773 546.723 313.27 548.532L315.197 549.068ZM316.034 541.92C316.034 539.149 315.431 536.917 313.964 535.517L312.583 536.963C313.463 537.803 314.034 539.358 314.034 541.92H316.034ZM313.981 535.533C312.58 534.132 310.355 533.56 307.594 533.56V535.56C310.166 535.56 311.728 536.108 312.567 536.947L313.981 535.533ZM307.594 533.56C306.065 533.56 304.51 533.642 302.931 533.805L303.137 535.795C304.651 535.638 306.136 535.56 307.594 535.56V533.56ZM302.034 534.8V549.12H304.034V534.8H302.034ZM302.809 550.094C304.29 550.436 306.022 550.6 307.994 550.6V548.6C306.125 548.6 304.551 548.444 303.259 548.146L302.809 550.094ZM353.344 579.68L352.346 579.731L352.391 580.612L353.271 580.677L353.344 579.68ZM352.944 571.84L352.68 570.876L351.905 571.088L351.946 571.891L352.944 571.84ZM358.784 570.24L359.049 571.204L359.784 571.003V570.24H358.784ZM358.464 537.04L357.551 537.446L357.56 537.467L357.57 537.487L358.464 537.04ZM356.784 535.76L356.297 536.633L356.349 536.662L356.404 536.685L356.784 535.76ZM352.624 533.44L351.627 533.368L351.581 534.003L352.137 534.313L352.624 533.44ZM353.104 526.8L352.976 525.808L352.166 525.913L352.107 526.728L353.104 526.8ZM391.984 528.48L392.521 527.636L392.521 527.636L391.984 528.48ZM396.144 545.52L397.069 545.901L397.073 545.891L396.144 545.52ZM392.704 550.48L392.01 549.761L390.948 550.786L392.294 551.392L392.704 550.48ZM396.704 573.76L397.444 574.433L397.444 574.433L396.704 573.76ZM384.944 579.52L384.772 578.535L384.724 578.543L384.677 578.556L384.944 579.52ZM382.384 547.92L382.301 548.917L383.049 548.979L383.318 548.279L382.384 547.92ZM381.584 536L380.859 536.689L380.868 536.698L380.877 536.707L381.584 536ZM376.864 534.24L376.914 533.241L376.889 533.24H376.864V534.24ZM372.704 534.4L372.628 533.403L371.704 533.474V534.4H372.704ZM372.704 547.76H371.704V548.821L372.763 548.758L372.704 547.76ZM385.504 569.6L385.889 570.523L386.353 570.33L386.475 569.843L385.504 569.6ZM384.224 558.24L384.853 557.462L384.853 557.462L384.224 558.24ZM374.544 556.72L374.588 557.719L374.616 557.718L374.644 557.715L374.544 556.72ZM372.704 556.8L372.661 555.801L371.704 555.843V556.8H372.704ZM372.704 569.84H371.704V570.66L372.508 570.821L372.704 569.84ZM370.624 579.32C364.889 579.32 359.154 579.108 353.418 578.683L353.271 580.677C359.055 581.106 364.84 581.32 370.624 581.32V579.32ZM354.343 579.629L353.943 571.789L351.946 571.891L352.346 579.731L354.343 579.629ZM353.209 572.804L359.049 571.204L358.52 569.276L352.68 570.876L353.209 572.804ZM359.784 570.24V539.76H357.784V570.24H359.784ZM359.784 539.76C359.784 539.045 359.757 538.43 359.698 537.923C359.641 537.44 359.545 536.966 359.359 536.593L357.57 537.487C357.597 537.541 357.661 537.733 357.711 538.157C357.758 538.557 357.784 539.088 357.784 539.76H359.784ZM359.378 536.634C359.001 535.785 358.126 535.231 357.165 534.835L356.404 536.685C357.256 537.036 357.501 537.335 357.551 537.446L359.378 536.634ZM357.271 534.887L353.111 532.567L352.137 534.313L356.297 536.633L357.271 534.887ZM353.622 533.512L354.102 526.872L352.107 526.728L351.627 533.368L353.622 533.512ZM353.233 527.792C361.846 526.675 369.214 526.12 375.344 526.12V524.12C369.101 524.12 361.643 524.685 352.976 525.808L353.233 527.792ZM375.344 526.12C382.861 526.12 388.172 527.239 391.448 529.324L392.521 527.636C388.757 525.241 382.974 524.12 375.344 524.12V526.12ZM391.448 529.324C394.628 531.348 396.264 534.543 396.264 539.12H398.264C398.264 533.99 396.381 530.092 392.521 527.636L391.448 529.324ZM396.264 539.12C396.264 541.417 395.907 543.421 395.216 545.149L397.073 545.891C397.875 543.886 398.264 541.623 398.264 539.12H396.264ZM395.22 545.139C394.53 546.813 393.467 548.354 392.01 549.761L393.399 551.199C395.035 549.62 396.265 547.853 397.069 545.901L395.22 545.139ZM392.294 551.392C394.833 552.535 396.672 554.002 397.879 555.765C399.083 557.523 399.704 559.639 399.704 562.16H401.704C401.704 559.294 400.992 556.771 399.529 554.635C398.07 552.504 395.909 550.825 393.115 549.568L392.294 551.392ZM399.704 562.16C399.704 566.766 398.43 570.375 395.964 573.087L397.444 574.433C400.312 571.278 401.704 567.154 401.704 562.16H399.704ZM395.964 573.087C393.489 575.81 389.798 577.654 384.772 578.535L385.117 580.505C390.438 579.572 394.586 577.576 397.444 574.433L395.964 573.087ZM384.677 578.556C383.831 578.791 382.255 578.988 379.869 579.122C377.508 579.253 374.429 579.32 370.624 579.32V581.32C374.447 581.32 377.567 581.253 379.98 581.118C382.367 580.985 384.137 580.782 385.212 580.484L384.677 578.556ZM383.318 548.279C383.922 546.707 384.184 544.225 384.184 540.96H382.184C382.184 544.202 381.913 546.36 381.451 547.561L383.318 548.279ZM384.184 540.96C384.184 538.582 383.62 536.621 382.291 535.293L380.877 536.707C381.682 537.512 382.184 538.858 382.184 540.96H384.184ZM382.309 535.311C381.053 533.989 379.189 533.355 376.914 533.241L376.814 535.239C378.806 535.338 380.089 535.878 380.859 536.689L382.309 535.311ZM376.864 533.24C375.452 533.24 374.04 533.294 372.628 533.403L372.781 535.397C374.142 535.292 375.503 535.24 376.864 535.24V533.24ZM371.704 534.4V547.76H373.704V534.4H371.704ZM372.763 548.758C373.642 548.707 374.794 548.68 376.224 548.68V546.68C374.775 546.68 373.58 546.707 372.646 546.762L372.763 548.758ZM376.224 548.68C378.387 548.68 380.412 548.759 382.301 548.917L382.467 546.923C380.516 546.761 378.435 546.68 376.224 546.68V548.68ZM379.024 571.4C382.076 571.4 384.411 571.139 385.889 570.523L385.12 568.677C384.038 569.128 382.053 569.4 379.024 569.4V571.4ZM386.475 569.843C387.022 567.654 387.304 565.677 387.304 563.92H385.304C385.304 565.47 385.054 567.279 384.534 569.357L386.475 569.843ZM387.304 563.92C387.304 561.105 386.572 558.851 384.853 557.462L383.596 559.018C384.65 559.869 385.304 561.402 385.304 563.92H387.304ZM384.853 557.462C383.19 556.119 380.549 555.56 377.184 555.56V557.56C380.433 557.56 382.486 558.121 383.596 559.018L384.853 557.462ZM377.184 555.56C376.445 555.56 375.529 555.617 374.445 555.725L374.644 557.715C375.693 557.61 376.537 557.56 377.184 557.56V555.56ZM374.501 555.721L372.661 555.801L372.748 557.799L374.588 557.719L374.501 555.721ZM371.704 556.8V569.84H373.704V556.8H371.704ZM372.508 570.821C374.452 571.209 376.626 571.4 379.024 571.4V569.4C376.729 569.4 374.69 569.217 372.9 568.859L372.508 570.821ZM420.504 571.84L420.24 570.876L419.466 571.088L419.505 571.889L420.504 571.84ZM426.344 570.24L426.608 571.204L427.344 571.003V570.24H426.344ZM426.024 536.88L425.11 537.286L425.119 537.307L425.129 537.327L426.024 536.88ZM424.344 535.6L423.842 536.465L423.901 536.499L423.963 536.525L424.344 535.6ZM420.344 533.28L419.344 533.247L419.324 533.845L419.842 534.145L420.344 533.28ZM420.584 526.08V525.08H419.617L419.584 526.047L420.584 526.08ZM464.024 526.08L465.022 526.013L464.959 525.08H464.024V526.08ZM464.584 542.48L464.651 543.478L465.584 543.415V542.48H464.584ZM458.664 542.88L457.885 543.508L458.212 543.913L458.731 543.878L458.664 542.88ZM452.984 535.84L453.762 535.212L453.472 534.853L453.01 534.84L452.984 535.84ZM440.904 535.52L440.93 534.52L439.904 534.493V535.52H440.904ZM440.904 548.56H439.904V549.648L440.988 549.556L440.904 548.56ZM457.944 547.12H458.944V546.032L457.86 546.124L457.944 547.12ZM457.944 559.44L457.836 560.434L458.944 560.554V559.44H457.944ZM440.904 557.6L441.011 556.606L439.904 556.486V557.6H440.904ZM440.904 570.48H439.904V571.498L440.922 571.48L440.904 570.48ZM454.184 570.24L454.202 571.24L454.645 571.232L454.936 570.899L454.184 570.24ZM460.344 563.2L460.411 562.202L459.917 562.169L459.591 562.541L460.344 563.2ZM466.264 563.6L467.263 563.638L467.3 562.668L466.331 562.602L466.264 563.6ZM465.064 580V581H465.96L466.058 580.109L465.064 580ZM420.904 580L419.905 580.049L419.952 581H420.904V580ZM420.768 572.804L426.608 571.204L426.08 569.276L420.24 570.876L420.768 572.804ZM427.344 570.24V539.6H425.344V570.24H427.344ZM427.344 539.6C427.344 538.885 427.316 538.27 427.257 537.763C427.2 537.28 427.105 536.806 426.918 536.433L425.129 537.327C425.156 537.381 425.221 537.573 425.271 537.997C425.318 538.397 425.344 538.928 425.344 539.6H427.344ZM426.938 536.474C426.56 535.625 425.685 535.071 424.724 534.675L423.963 536.525C424.816 536.876 425.061 537.175 425.11 537.286L426.938 536.474ZM424.845 534.735L420.845 532.415L419.842 534.145L423.842 536.465L424.845 534.735ZM421.343 533.313L421.583 526.113L419.584 526.047L419.344 533.247L421.343 533.313ZM420.584 527.08H464.024V525.08H420.584V527.08ZM463.026 526.147C463.398 531.726 463.584 537.17 463.584 542.48H465.584C465.584 537.123 465.396 531.634 465.022 526.013L463.026 526.147ZM464.516 541.482L458.596 541.882L458.731 543.878L464.651 543.478L464.516 541.482ZM459.442 542.252L453.762 535.212L452.205 536.468L457.885 543.508L459.442 542.252ZM453.01 534.84L440.93 534.52L440.877 536.52L452.957 536.84L453.01 534.84ZM439.904 535.52V548.56H441.904V535.52H439.904ZM440.988 549.556L458.028 548.116L457.86 546.124L440.82 547.564L440.988 549.556ZM456.944 547.12V559.44H458.944V547.12H456.944ZM458.051 558.446L441.011 556.606L440.796 558.594L457.836 560.434L458.051 558.446ZM439.904 557.6V570.48H441.904V557.6H439.904ZM440.922 571.48L454.202 571.24L454.166 569.24L440.886 569.48L440.922 571.48ZM454.936 570.899L461.096 563.859L459.591 562.541L453.431 569.581L454.936 570.899ZM460.276 564.198L466.196 564.598L466.331 562.602L460.411 562.202L460.276 564.198ZM465.264 563.562C465.052 569.139 464.654 574.582 464.07 579.891L466.058 580.109C466.647 574.751 467.049 569.261 467.263 563.638L465.264 563.562ZM465.064 579H420.904V581H465.064V579ZM421.903 579.951L421.503 571.791L419.505 571.889L419.905 580.049L421.903 579.951ZM487.632 571.84L487.368 570.876L486.594 571.088L486.633 571.889L487.632 571.84ZM493.472 570.24L493.736 571.204L494.472 571.003V570.24H493.472ZM493.152 537.04L492.238 537.446L492.247 537.467L492.257 537.487L493.152 537.04ZM491.472 535.76L490.985 536.633L491.036 536.662L491.091 536.685L491.472 535.76ZM487.312 533.44L486.315 533.367L486.268 534.003L486.825 534.313L487.312 533.44ZM487.792 526.88L487.647 525.891L486.853 526.007L486.795 526.807L487.792 526.88ZM524.832 526.88L524.516 527.829L524.529 527.833L524.832 526.88ZM532.512 532.24L531.674 532.786L531.681 532.797L531.688 532.807L532.512 532.24ZM532.432 550.56L533.253 551.131L533.258 551.123L532.432 550.56ZM525.152 556.24L524.762 555.319L523.687 555.775L524.302 556.767L525.152 556.24ZM537.952 576.88L538.952 576.906L538.959 576.607L538.802 576.353L537.952 576.88ZM537.872 580V581H538.847L538.872 580.026L537.872 580ZM523.312 580L522.437 580.485L522.723 581H523.312V580ZM511.472 558.64L512.346 558.155L512.068 557.653L511.495 557.64L511.472 558.64ZM507.952 558.56L507.975 557.56L506.952 557.537V558.56H507.952ZM508.192 570L507.273 570.394L507.309 570.478L507.36 570.555L508.192 570ZM509.632 571.12L510.135 570.255L510.128 570.252L509.632 571.12ZM513.072 573.12L514.071 573.166L514.099 572.56L513.574 572.255L513.072 573.12ZM512.752 580V581H513.706L513.751 580.046L512.752 580ZM488.032 580L487.033 580.049L487.08 581H488.032V580ZM519.312 548.8L519.683 549.728L520.143 549.545L520.275 549.068L519.312 548.8ZM518.352 536.24L517.645 536.947L517.653 536.955L517.661 536.963L518.352 536.24ZM508.112 534.8L508.009 533.805L507.112 533.898V534.8H508.112ZM508.112 549.12H507.112V549.916L507.887 550.094L508.112 549.12ZM487.896 572.804L493.736 571.204L493.208 569.276L487.368 570.876L487.896 572.804ZM494.472 570.24V539.76H492.472V570.24H494.472ZM494.472 539.76C494.472 539.045 494.445 538.43 494.385 537.923C494.328 537.44 494.233 536.966 494.046 536.593L492.257 537.487C492.284 537.541 492.349 537.733 492.399 538.157C492.446 538.557 492.472 539.088 492.472 539.76H494.472ZM494.066 536.634C493.688 535.785 492.813 535.231 491.853 534.835L491.091 536.685C491.944 537.036 492.189 537.335 492.238 537.446L494.066 536.634ZM491.959 534.887L487.799 532.567L486.825 534.313L490.985 536.633L491.959 534.887ZM488.309 533.513L488.789 526.953L486.795 526.807L486.315 533.367L488.309 533.513ZM487.937 527.869C495.893 526.702 503.551 526.12 510.912 526.12V524.12C503.446 524.12 495.691 524.711 487.647 525.891L487.937 527.869ZM510.912 526.12C516.617 526.12 521.138 526.703 524.516 527.829L525.148 525.931C521.486 524.711 516.727 524.12 510.912 524.12V526.12ZM524.529 527.833C527.888 528.902 530.23 530.572 531.674 532.786L533.349 531.694C531.594 529.001 528.816 527.098 525.135 525.927L524.529 527.833ZM531.688 532.807C533.191 534.989 533.992 537.969 533.992 541.84H535.992C535.992 537.711 535.139 534.291 533.335 531.673L531.688 532.807ZM533.992 541.84C533.992 544.965 533.189 547.672 531.605 549.997L533.258 551.123C535.088 548.435 535.992 545.328 535.992 541.84H533.992ZM531.611 549.989C530.027 552.266 527.76 554.049 524.762 555.319L525.542 557.161C528.837 555.765 531.424 553.761 533.253 551.131L531.611 549.989ZM524.302 556.767L537.102 577.407L538.802 576.353L526.002 555.713L524.302 556.767ZM536.952 576.854L536.872 579.974L538.872 580.026L538.952 576.906L536.952 576.854ZM537.872 579H523.312V581H537.872V579ZM524.186 579.515L512.346 558.155L510.597 559.125L522.437 580.485L524.186 579.515ZM511.495 557.64L507.975 557.56L507.929 559.56L511.449 559.64L511.495 557.64ZM506.952 558.56V567.52H508.952V558.56H506.952ZM506.952 567.52C506.952 568.177 506.972 568.739 507.017 569.196C507.058 569.628 507.129 570.058 507.273 570.394L509.111 569.606C509.111 569.606 509.11 569.603 509.107 569.595C509.104 569.588 509.101 569.577 509.097 569.562C509.088 569.533 509.078 569.492 509.067 569.439C509.046 569.331 509.025 569.188 509.007 569.004C508.972 568.635 508.952 568.143 508.952 567.52H506.952ZM507.36 570.555C507.715 571.087 508.381 571.557 509.136 571.988L510.128 570.252C509.389 569.829 509.096 569.553 509.024 569.445L507.36 570.555ZM509.129 571.985L512.569 573.985L513.574 572.255L510.134 570.255L509.129 571.985ZM512.073 573.074L511.753 579.954L513.751 580.046L514.071 573.166L512.073 573.074ZM512.752 579H488.032V581H512.752V579ZM489.031 579.951L488.631 571.791L486.633 571.889L487.033 580.049L489.031 579.951ZM513.072 550.6C515.927 550.6 518.166 550.336 519.683 549.728L518.94 547.872C517.791 548.331 515.87 548.6 513.072 548.6V550.6ZM520.275 549.068C520.84 547.037 521.112 544.649 521.112 541.92H519.112C519.112 544.525 518.851 546.723 518.348 548.532L520.275 549.068ZM521.112 541.92C521.112 539.149 520.509 536.917 519.042 535.517L517.661 536.963C518.542 537.803 519.112 539.358 519.112 541.92H521.112ZM519.059 535.533C517.658 534.132 515.433 533.56 512.672 533.56V535.56C515.244 535.56 516.806 536.108 517.645 536.947L519.059 535.533ZM512.672 533.56C511.143 533.56 509.588 533.642 508.009 533.805L508.215 535.795C509.729 535.638 511.214 535.56 512.672 535.56V533.56ZM507.112 534.8V549.12H509.112V534.8H507.112ZM507.887 550.094C509.368 550.436 511.101 550.6 513.072 550.6V548.6C511.203 548.6 509.629 548.444 508.337 548.146L507.887 550.094Z" fill="black"/>
<path d="M146.182 221.568C141.445 225.99 136.544 230.236 131.479 234.307L125.132 228.166L128.707 222.367L105.31 197.299C104.245 196.159 103.462 195.495 102.959 195.308C102.415 195.077 101.627 195.156 100.594 195.545L95.3922 196.83L90.69 191.001C96.936 183.447 102.603 177.296 107.691 172.547C113.92 166.734 119.341 163.397 123.956 162.537C128.57 161.678 132.74 163.244 136.465 167.235C138.308 169.209 139.638 171.25 140.457 173.358C141.235 175.423 141.561 177.663 141.435 180.078C147.664 177.958 152.846 179.113 156.981 183.543C160.665 187.491 162.537 191.694 162.595 196.154C162.654 200.613 160.904 205.201 157.345 209.918C156.175 211.831 152.454 215.714 146.182 221.568ZM130.983 185.895C130.357 184.345 128.795 182.232 126.298 179.556C124.579 177.714 122.871 176.764 121.175 176.705C119.523 176.606 117.778 177.331 115.942 178.881C114.802 179.945 113.702 181.054 112.643 182.206L122.899 193.194C123.604 192.454 124.548 191.531 125.732 190.426C127.531 188.747 129.281 187.237 130.983 185.895ZM145.475 206.962C147.976 204.628 149.547 202.751 150.191 201.33C148.992 199.166 147.758 197.404 146.489 196.044C144.442 193.851 142.418 192.826 140.418 192.97C138.418 193.113 136.058 194.454 133.338 196.992C132.768 197.524 132.085 198.244 131.29 199.15L129.838 200.628L139.848 211.353C141.67 210.227 143.546 208.763 145.475 206.962Z" fill="#B00000"/>
<path d="M131.479 234.307L130.784 235.025L131.418 235.639L132.106 235.086L131.479 234.307ZM125.132 228.166L124.281 227.641L123.859 228.325L124.437 228.884L125.132 228.166ZM128.707 222.367L129.558 222.892L129.958 222.242L129.438 221.685L128.707 222.367ZM102.959 195.308L102.568 196.228L102.589 196.237L102.61 196.245L102.959 195.308ZM100.594 195.545L100.834 196.516L100.892 196.502L100.947 196.481L100.594 195.545ZM95.3922 196.83L94.6139 197.458L95.0138 197.954L95.6321 197.801L95.3922 196.83ZM90.69 191.001L89.9193 190.364L89.3989 190.993L89.9117 191.629L90.69 191.001ZM123.956 162.537L123.772 161.554L123.772 161.554L123.956 162.537ZM140.457 173.358L141.393 173.006L141.389 172.996L140.457 173.358ZM141.435 180.078L140.437 180.026L140.36 181.501L141.758 181.025L141.435 180.078ZM162.595 196.154L163.595 196.141L163.595 196.141L162.595 196.154ZM157.345 209.918L156.547 209.316L156.517 209.355L156.492 209.396L157.345 209.918ZM130.983 185.895L131.602 186.68L132.191 186.215L131.91 185.52L130.983 185.895ZM121.175 176.705L121.115 177.704L121.128 177.704L121.14 177.705L121.175 176.705ZM115.942 178.881L115.297 178.117L115.278 178.133L115.26 178.15L115.942 178.881ZM112.643 182.206L111.907 181.529L111.281 182.211L111.912 182.888L112.643 182.206ZM122.899 193.194L122.168 193.876L122.891 194.651L123.623 193.883L122.899 193.194ZM150.191 201.33L151.102 201.742L151.309 201.285L151.065 200.845L150.191 201.33ZM140.418 192.97L140.346 191.972L140.346 191.972L140.418 192.97ZM131.29 199.15L132.003 199.851L132.023 199.831L132.042 199.81L131.29 199.15ZM129.838 200.628L129.125 199.928L128.454 200.611L129.107 201.311L129.838 200.628ZM139.848 211.353L139.117 212.035L139.676 212.634L140.374 212.203L139.848 211.353ZM145.5 220.837C140.78 225.242 135.898 229.472 130.853 233.527L132.106 235.086C137.189 231 142.109 226.738 146.864 222.299L145.5 220.837ZM132.174 233.588L125.827 227.447L124.437 228.884L130.784 235.025L132.174 233.588ZM125.983 228.69L129.558 222.892L127.855 221.842L124.281 227.641L125.983 228.69ZM129.438 221.685L106.041 196.617L104.579 197.982L127.976 223.049L129.438 221.685ZM106.041 196.617C105.494 196.031 105.003 195.55 104.57 195.183C104.155 194.832 103.726 194.527 103.307 194.371L102.61 196.245C102.694 196.277 102.908 196.397 103.277 196.709C103.628 197.007 104.061 197.427 104.579 197.982L106.041 196.617ZM103.35 194.388C102.434 193.999 101.329 194.2 100.242 194.609L100.947 196.481C101.925 196.112 102.395 196.155 102.568 196.228L103.35 194.388ZM100.355 194.574L95.1524 195.859L95.6321 197.801L100.834 196.516L100.355 194.574ZM96.1706 196.202L91.4683 190.373L89.9117 191.629L94.6139 197.458L96.1706 196.202ZM91.4606 191.638C97.6894 184.106 103.327 177.989 108.373 173.278L107.009 171.816C101.88 176.604 96.1827 182.789 89.9193 190.364L91.4606 191.638ZM108.373 173.278C114.561 167.504 119.809 164.327 124.139 163.521L123.772 161.554C118.873 162.467 113.279 165.964 107.009 171.816L108.373 173.278ZM124.139 163.521C128.357 162.734 132.198 164.128 135.734 167.917L137.196 166.553C133.282 162.359 128.782 160.621 123.772 161.554L124.139 163.521ZM135.734 167.917C137.506 169.816 138.76 171.751 139.525 173.72L141.389 172.996C140.516 170.749 139.109 168.602 137.196 166.553L135.734 167.917ZM139.521 173.711C140.246 175.634 140.556 177.735 140.437 180.026L142.434 180.13C142.566 177.59 142.224 175.211 141.393 173.006L139.521 173.711ZM141.758 181.025C144.739 180.01 147.402 179.801 149.775 180.33C152.143 180.858 154.3 182.136 156.249 184.225L157.712 182.861C155.527 180.52 153.025 179.006 150.211 178.378C147.402 177.752 144.36 178.026 141.113 179.131L141.758 181.025ZM156.249 184.225C159.802 188.032 161.541 192.006 161.595 196.167L163.595 196.141C163.533 191.382 161.528 186.95 157.712 182.861L156.249 184.225ZM161.595 196.167C161.65 200.342 160.015 204.719 156.547 209.316L158.143 210.52C161.792 205.684 163.657 200.885 163.595 196.141L161.595 196.167ZM156.492 209.396C155.969 210.251 154.815 211.631 152.955 213.573C151.112 215.496 148.629 217.916 145.5 220.837L146.864 222.299C150.007 219.366 152.52 216.918 154.399 214.957C156.259 213.015 157.551 211.498 158.198 210.44L156.492 209.396ZM131.91 185.52C131.21 183.786 129.534 181.558 127.029 178.874L125.567 180.239C128.056 182.906 129.504 184.904 130.056 186.269L131.91 185.52ZM127.029 178.874C125.216 176.931 123.275 175.777 121.209 175.706L121.14 177.705C122.466 177.75 123.941 178.497 125.567 180.239L127.029 178.874ZM121.235 175.707C119.231 175.587 117.242 176.476 115.297 178.117L116.587 179.645C118.315 178.187 119.815 177.625 121.115 177.704L121.235 175.707ZM115.26 178.15C114.1 179.232 112.983 180.358 111.907 181.529L113.38 182.882C114.421 181.749 115.503 180.659 116.624 179.612L115.26 178.15ZM111.912 182.888L122.168 193.876L123.63 192.511L113.375 181.524L111.912 182.888ZM123.623 193.883C124.309 193.163 125.238 192.256 126.415 191.157L125.05 189.695C123.859 190.807 122.898 191.744 122.175 192.504L123.623 193.883ZM126.415 191.157C128.195 189.495 129.925 188.003 131.602 186.68L130.364 185.109C128.637 186.471 126.866 188 125.05 189.695L126.415 191.157ZM146.158 207.693C148.667 205.351 150.37 203.359 151.102 201.742L149.28 200.917C148.725 202.143 147.285 203.905 144.793 206.231L146.158 207.693ZM151.065 200.845C149.839 198.632 148.559 196.797 147.22 195.362L145.758 196.727C146.956 198.011 148.145 199.7 149.316 201.814L151.065 200.845ZM147.22 195.362C145.071 193.06 142.773 191.798 140.346 191.972L140.489 193.967C142.063 193.854 143.812 194.642 145.758 196.727L147.22 195.362ZM140.346 191.972C137.992 192.141 135.418 193.683 132.656 196.261L134.021 197.723C136.698 195.224 138.844 194.085 140.489 193.967L140.346 191.972ZM132.656 196.261C132.052 196.824 131.345 197.571 130.538 198.491L132.042 199.81C132.826 198.916 133.484 198.224 134.021 197.723L132.656 196.261ZM130.577 198.449L129.125 199.928L130.552 201.329L132.003 199.851L130.577 198.449ZM129.107 201.311L139.117 212.035L140.579 210.67L130.569 199.946L129.107 201.311ZM140.374 212.203C142.263 211.036 144.19 209.529 146.158 207.693L144.793 206.231C142.901 207.997 141.077 209.418 139.322 210.502L140.374 212.203Z" fill="black"/>
<path d="M177.435 173.679L181.397 168.138L159.769 141.53C158.785 140.32 158.048 139.604 157.559 139.383C157.032 139.115 156.241 139.14 155.184 139.458L149.906 140.384L145.67 134.317C151.822 127.616 158.133 121.635 164.605 116.374C169.633 112.287 174.1 109.507 178.005 108.033C181.873 106.513 185.376 106.256 188.513 107.262C191.66 108.184 194.652 110.391 197.49 113.883C199.837 116.77 201.154 119.913 201.443 123.312C201.694 126.665 200.919 130.04 199.119 133.436L224.939 142.372L227.083 145.152L214.373 155.484L188.879 145.239L185.75 147.667L192.108 155.489C193.016 156.606 193.673 157.271 194.077 157.484C194.491 157.611 195.175 157.597 196.129 157.439L200.551 156.744L205.154 162.977L183.574 180.519L177.435 173.679ZM183.861 136.212C186.329 134.206 187.956 132.497 188.741 131.086C187.844 129.031 186.45 126.84 184.557 124.512C182.665 122.184 180.809 120.947 178.99 120.802C177.218 120.619 175.168 121.474 172.84 123.366C171.536 124.426 170.266 125.574 169.029 126.812L179.191 139.313C180.628 138.608 182.185 137.574 183.861 136.212Z" fill="#B00000"/>
<path d="M177.435 173.679L176.621 173.098L176.154 173.75L176.69 174.347L177.435 173.679ZM181.397 168.138L182.211 168.72L182.655 168.1L182.173 167.508L181.397 168.138ZM157.559 139.383L157.106 140.274L157.126 140.285L157.147 140.294L157.559 139.383ZM155.184 139.458L155.357 140.443L155.415 140.432L155.472 140.415L155.184 139.458ZM149.906 140.384L149.086 140.957L149.451 141.479L150.079 141.369L149.906 140.384ZM145.67 134.317L144.934 133.641L144.391 134.232L144.85 134.889L145.67 134.317ZM178.005 108.033L178.358 108.969L178.371 108.964L178.005 108.033ZM188.513 107.262L188.208 108.215L188.22 108.218L188.232 108.222L188.513 107.262ZM201.443 123.312L202.441 123.237L202.44 123.227L201.443 123.312ZM199.119 133.436L198.235 132.968L197.688 134L198.792 134.381L199.119 133.436ZM224.939 142.372L225.731 141.761L225.548 141.524L225.266 141.427L224.939 142.372ZM227.083 145.152L227.714 145.928L228.47 145.313L227.875 144.541L227.083 145.152ZM214.373 155.484L214 156.412L214.546 156.632L215.003 156.26L214.373 155.484ZM188.879 145.239L189.252 144.311L188.72 144.097L188.267 144.449L188.879 145.239ZM185.75 147.667L185.137 146.877L184.329 147.504L184.974 148.298L185.75 147.667ZM194.077 157.484L193.613 158.369L193.694 158.412L193.782 158.439L194.077 157.484ZM196.129 157.439L195.974 156.452L195.966 156.453L196.129 157.439ZM200.551 156.744L201.356 156.15L200.995 155.662L200.396 155.756L200.551 156.744ZM205.154 162.977L205.785 163.753L206.526 163.151L205.959 162.383L205.154 162.977ZM183.574 180.519L182.83 181.187L183.466 181.896L184.205 181.295L183.574 180.519ZM188.741 131.086L189.615 131.572L189.856 131.139L189.658 130.686L188.741 131.086ZM178.99 120.802L178.888 121.797L178.899 121.798L178.911 121.799L178.99 120.802ZM169.029 126.812L168.322 126.105L167.684 126.743L168.253 127.442L169.029 126.812ZM179.191 139.313L178.415 139.943L178.917 140.561L179.631 140.211L179.191 139.313ZM178.248 174.261L182.211 168.72L180.584 167.557L176.621 173.098L178.248 174.261ZM182.173 167.508L160.545 140.899L158.993 142.161L180.621 168.769L182.173 167.508ZM160.545 140.899C160.039 140.278 159.582 139.764 159.175 139.368C158.785 138.99 158.378 138.656 157.971 138.472L157.147 140.294C157.229 140.331 157.434 140.466 157.781 140.803C158.111 141.123 158.514 141.572 158.993 142.161L160.545 140.899ZM158.012 138.491C157.125 138.041 156.009 138.166 154.896 138.5L155.472 140.415C156.472 140.115 156.939 140.19 157.106 140.274L158.012 138.491ZM155.011 138.473L149.733 139.399L150.079 141.369L155.357 140.443L155.011 138.473ZM150.726 139.812L146.49 133.744L144.85 134.889L149.086 140.957L150.726 139.812ZM146.407 134.993C152.528 128.325 158.805 122.378 165.235 117.15L163.974 115.598C157.461 120.892 151.115 126.907 144.934 133.641L146.407 134.993ZM165.235 117.15C170.221 113.098 174.593 110.389 178.358 108.969L177.652 107.097C173.607 108.624 169.045 111.476 163.974 115.598L165.235 117.15ZM178.371 108.964C182.081 107.505 185.342 107.295 188.208 108.215L188.819 106.31C185.409 105.217 181.664 105.52 177.639 107.102L178.371 108.964ZM188.232 108.222C191.124 109.069 193.957 111.122 196.714 114.514L198.266 113.252C195.346 109.66 192.195 107.299 188.794 106.303L188.232 108.222ZM196.714 114.514C198.946 117.259 200.177 120.216 200.447 123.397L202.44 123.227C202.132 119.61 200.727 116.28 198.266 113.252L196.714 114.514ZM200.446 123.387C200.681 126.525 199.961 129.713 198.235 132.968L200.002 133.905C201.878 130.366 202.708 126.804 202.441 123.237L200.446 123.387ZM198.792 134.381L224.612 143.317L225.266 141.427L199.446 132.491L198.792 134.381ZM224.147 142.982L226.291 145.763L227.875 144.541L225.731 141.761L224.147 142.982ZM226.452 144.376L213.742 154.708L215.003 156.26L227.714 145.928L226.452 144.376ZM214.746 154.556L189.252 144.311L188.507 146.167L214 156.412L214.746 154.556ZM188.267 144.449L185.137 146.877L186.363 148.457L189.492 146.029L188.267 144.449ZM184.974 148.298L191.332 156.12L192.884 154.858L186.526 147.036L184.974 148.298ZM191.332 156.12C191.797 156.691 192.21 157.164 192.57 157.528C192.911 157.874 193.266 158.187 193.613 158.369L194.542 156.598C194.484 156.567 194.308 156.442 193.993 156.123C193.696 155.822 193.327 155.404 192.884 154.858L191.332 156.12ZM193.782 158.439C194.438 158.642 195.329 158.585 196.292 158.426L195.966 156.453C195.021 156.609 194.543 156.581 194.373 156.528L193.782 158.439ZM196.284 158.427L200.707 157.732L200.396 155.756L195.974 156.452L196.284 158.427ZM199.747 157.338L204.35 163.571L205.959 162.383L201.356 156.15L199.747 157.338ZM204.523 162.201L182.943 179.743L184.205 181.295L205.785 163.753L204.523 162.201ZM184.318 179.851L178.179 173.011L176.69 174.347L182.83 181.187L184.318 179.851ZM184.492 136.988C186.982 134.964 188.733 133.157 189.615 131.572L187.867 130.599C187.178 131.838 185.676 133.448 183.231 135.436L184.492 136.988ZM189.658 130.686C188.715 128.526 187.265 126.257 185.333 123.881L183.781 125.143C185.635 127.422 186.974 129.537 187.825 131.486L189.658 130.686ZM185.333 123.881C183.375 121.472 181.293 119.983 179.07 119.806L178.911 121.799C180.326 121.912 181.955 122.896 183.781 125.143L185.333 123.881ZM179.093 119.808C176.925 119.584 174.61 120.638 172.209 122.59L173.47 124.142C175.725 122.31 177.51 121.655 178.888 121.797L179.093 119.808ZM172.209 122.59C170.878 123.673 169.582 124.844 168.322 126.105L169.736 127.519C170.95 126.305 172.195 125.179 173.47 124.142L172.209 122.59ZM168.253 127.442L178.415 139.943L179.967 138.682L169.805 126.181L168.253 127.442ZM179.631 140.211C181.155 139.463 182.776 138.383 184.492 136.988L183.231 135.436C181.594 136.766 180.101 137.753 178.751 138.415L179.631 140.211Z" fill="black"/>
<path d="M269.6 128.188C260.841 132.93 253.099 134.256 246.373 132.166C239.699 130.048 233.92 124.477 229.036 115.455C225.865 109.598 224.204 103.947 224.054 98.5019C223.875 93.0041 225.162 88.0089 227.915 83.5164C230.668 79.0238 234.815 75.2778 240.355 72.2785C257.979 62.7378 271.661 66.9636 281.401 84.9562C284.601 90.8657 286.275 96.543 286.426 101.988C286.576 107.433 285.208 112.404 282.321 116.901C279.486 121.369 275.246 125.132 269.6 128.188ZM265.349 116.366C268.357 114.738 270.818 112.416 272.734 109.401C272.428 107.451 271.777 105.177 270.78 102.578C269.754 99.9268 268.598 97.4139 267.313 95.0396C264.142 89.1828 260.634 85.3505 256.79 83.5426C252.999 81.7063 248.992 81.9307 244.771 84.2159C241.764 85.8441 239.162 87.9692 236.965 90.5912C236.927 91.9079 237.379 93.8128 238.319 96.3058C239.231 98.746 240.486 101.444 242.086 104.398C245.399 110.519 249.05 114.615 253.037 116.687C257.024 118.758 261.128 118.652 265.349 116.366Z" fill="#B00000"/>
<path d="M246.373 132.166L246.07 133.119L246.076 133.121L246.373 132.166ZM224.054 98.5019L225.054 98.4743L225.054 98.4694L224.054 98.5019ZM227.915 83.5164L228.768 84.0389L228.768 84.0389L227.915 83.5164ZM286.426 101.988L285.426 102.016L285.426 102.016L286.426 101.988ZM282.321 116.901L281.479 116.361L281.476 116.365L282.321 116.901ZM272.734 109.401L273.578 109.937L273.78 109.619L273.722 109.246L272.734 109.401ZM270.78 102.578L271.713 102.22L271.712 102.217L270.78 102.578ZM256.79 83.5426L256.354 84.4427L256.365 84.4476L256.79 83.5426ZM236.965 90.5912L236.198 89.949L235.975 90.2153L235.965 90.5626L236.965 90.5912ZM238.319 96.3058L239.256 95.9558L239.255 95.9529L238.319 96.3058ZM253.037 116.687L253.498 115.799L253.498 115.799L253.037 116.687ZM269.124 127.309C260.503 131.976 253.047 133.193 246.669 131.211L246.076 133.121C253.15 135.319 261.18 133.884 270.076 129.068L269.124 127.309ZM246.675 131.213C240.343 129.203 234.733 123.879 229.915 114.979L228.156 115.931C233.107 125.076 239.056 130.893 246.07 133.119L246.675 131.213ZM229.915 114.979C226.803 109.23 225.199 103.731 225.054 98.4743L223.054 98.5295C223.21 104.163 224.927 109.966 228.156 115.931L229.915 114.979ZM225.054 98.4694C224.881 93.1579 226.122 88.3572 228.768 84.0389L227.063 82.9938C224.203 87.6607 222.869 92.8503 223.055 98.5345L225.054 98.4694ZM228.768 84.0389C231.413 79.7232 235.416 76.0899 240.832 73.1579L239.879 71.3991C234.215 74.4658 229.924 78.3244 227.063 82.9938L228.768 84.0389ZM240.832 73.1579C249.503 68.4635 257.043 67.2415 263.539 69.2478C270.04 71.2557 275.722 76.567 280.522 85.4322L282.281 84.4801C277.339 75.3528 271.31 69.5549 264.129 67.3369C256.943 65.1173 248.831 66.5528 239.879 71.3991L240.832 73.1579ZM280.522 85.4322C283.664 91.2355 285.281 96.7599 285.426 102.016L287.425 101.96C287.27 96.3261 285.537 90.496 282.281 84.4801L280.522 85.4322ZM285.426 102.016C285.571 107.264 284.256 112.036 281.479 116.361L283.162 117.441C286.16 112.772 287.581 107.602 287.425 101.96L285.426 102.016ZM281.476 116.365C278.751 120.662 274.652 124.316 269.124 127.309L270.076 129.068C275.84 125.947 280.221 122.077 283.165 117.437L281.476 116.365ZM265.825 117.246C268.99 115.533 271.575 113.09 273.578 109.937L271.889 108.865C270.061 111.743 267.724 113.944 264.873 115.487L265.825 117.246ZM273.722 109.246C273.402 107.205 272.727 104.86 271.713 102.22L269.846 102.936C270.828 105.494 271.455 107.697 271.746 109.555L273.722 109.246ZM271.712 102.217C270.672 99.5285 269.499 96.977 268.192 94.5635L266.433 95.5156C267.698 97.8509 268.836 100.325 269.847 102.939L271.712 102.217ZM268.192 94.5635C264.973 88.6183 261.335 84.5749 257.216 82.6377L256.365 84.4476C259.934 86.126 263.31 89.7472 266.433 95.5156L268.192 94.5635ZM257.226 82.6426C253.101 80.6449 248.754 80.9227 244.295 83.3365L245.247 85.0953C249.231 82.9387 252.896 82.7676 256.354 84.4426L257.226 82.6426ZM244.295 83.3365C241.177 85.0248 238.476 87.2304 236.198 89.949L237.731 91.2334C239.847 88.7081 242.351 86.6634 245.247 85.0953L244.295 83.3365ZM235.965 90.5626C235.922 92.0846 236.434 94.1428 237.383 96.6587L239.255 95.9529C238.323 93.4828 237.933 91.7313 237.965 90.6198L235.965 90.5626ZM237.382 96.6558C238.314 99.1496 239.591 101.89 241.206 104.874L242.965 103.922C241.382 100.997 240.147 98.3424 239.256 95.9558L237.382 96.6558ZM241.206 104.874C244.567 111.081 248.338 115.372 252.576 117.574L253.498 115.799C249.761 113.858 246.232 109.957 242.965 103.922L241.206 104.874ZM252.576 117.574C256.88 119.811 261.336 119.676 265.825 117.246L264.873 115.487C260.92 117.627 257.168 117.706 253.498 115.799L252.576 117.574Z" fill="black"/>
<path d="M334.568 117.27C328.088 117.27 322.118 117 316.658 116.46L316.208 107.82L322.778 106.02V71.73C322.778 70.17 322.658 69.15 322.418 68.67C322.178 68.13 321.548 67.65 320.528 67.23L315.848 64.62L316.388 57.15C322.628 56.67 327.878 56.31 332.138 56.07C336.398 55.77 339.818 55.62 342.398 55.62C350.678 55.62 357.308 56.58 362.288 58.5C367.328 60.42 370.988 63.45 373.268 67.59C375.608 71.73 376.778 77.22 376.778 84.06C376.778 92.7 374.798 99.69 370.838 105.03C367.298 109.65 362.588 112.86 356.708 114.66C350.888 116.4 343.508 117.27 334.568 117.27ZM345.908 104.4C350.948 104.4 354.938 103.8 357.878 102.6C358.418 101.1 358.898 98.76 359.318 95.58C359.798 92.4 360.038 89.43 360.038 86.67C360.038 79.89 358.628 74.88 355.808 71.64C353.048 68.4 348.818 66.78 343.118 66.78C342.338 66.78 341.618 66.81 340.958 66.87C340.298 66.93 339.668 66.99 339.068 67.05V103.95C341.468 104.25 343.748 104.4 345.908 104.4Z" fill="#B00000"/>
<path d="M316.658 116.46L315.66 116.512L315.704 117.371L316.56 117.455L316.658 116.46ZM316.208 107.82L315.944 106.856L315.168 107.068L315.21 107.872L316.208 107.82ZM322.778 106.02L323.042 106.984L323.778 106.783V106.02H322.778ZM322.418 68.67L321.504 69.0761L321.514 69.0969L321.524 69.1172L322.418 68.67ZM320.528 67.23L320.041 68.1034L320.093 68.1322L320.147 68.1547L320.528 67.23ZM315.848 64.62L314.851 64.5479L314.805 65.1831L315.361 65.4934L315.848 64.62ZM316.388 57.15L316.311 56.1529L315.453 56.219L315.391 57.0779L316.388 57.15ZM332.138 56.07L332.194 57.0685L332.208 57.0675L332.138 56.07ZM362.288 58.5L361.928 59.4331L361.932 59.4345L362.288 58.5ZM373.268 67.59L372.392 68.0724L372.398 68.0821L373.268 67.59ZM370.838 105.03L371.632 105.638L371.637 105.632L371.641 105.626L370.838 105.03ZM356.708 114.66L356.995 115.618L357.001 115.616L356.708 114.66ZM357.878 102.6L358.256 103.526L358.668 103.358L358.819 102.939L357.878 102.6ZM359.318 95.58L358.329 95.4307L358.328 95.4399L358.327 95.4491L359.318 95.58ZM355.808 71.64L355.047 72.2885L355.054 72.2965L355.808 71.64ZM340.958 66.87L340.868 65.8741L340.868 65.8741L340.958 66.87ZM339.068 67.05L338.969 66.055L338.068 66.145V67.05H339.068ZM339.068 103.95H338.068V104.833L338.944 104.942L339.068 103.95ZM334.568 116.27C328.115 116.27 322.179 116.001 316.757 115.465L316.56 117.455C322.058 117.999 328.061 118.27 334.568 118.27V116.27ZM317.657 116.408L317.207 107.768L315.21 107.872L315.66 116.512L317.657 116.408ZM316.472 108.784L323.042 106.984L322.514 105.056L315.944 106.856L316.472 108.784ZM323.778 106.02V71.73H321.778V106.02H323.778ZM323.778 71.73C323.778 70.9287 323.748 70.2413 323.681 69.6782C323.618 69.1384 323.512 68.6223 323.313 68.2228L321.524 69.1172C321.564 69.1977 321.639 69.4316 321.695 69.9118C321.749 70.3687 321.778 70.9713 321.778 71.73H323.778ZM323.332 68.2639C322.928 67.3549 321.983 66.7476 320.909 66.3053L320.147 68.1547C321.113 68.5524 321.428 68.9051 321.504 69.0761L323.332 68.2639ZM321.015 66.3566L316.335 63.7466L315.361 65.4934L320.041 68.1034L321.015 66.3566ZM316.846 64.6921L317.386 57.2221L315.391 57.0779L314.851 64.5479L316.846 64.6921ZM316.465 58.1471C322.701 57.6674 327.944 57.3079 332.194 57.0684L332.082 55.0716C327.813 55.3121 322.555 55.6726 316.311 56.1529L316.465 58.1471ZM332.208 57.0675C336.458 56.7683 339.852 56.62 342.398 56.62V54.62C339.785 54.62 336.338 54.7717 332.068 55.0725L332.208 57.0675ZM342.398 56.62C350.616 56.62 357.109 57.5748 361.928 59.4331L362.648 57.5669C357.508 55.5852 350.741 54.62 342.398 54.62V56.62ZM361.932 59.4345C366.784 61.2828 370.243 64.169 372.392 68.0724L374.144 67.1076C371.734 62.731 367.872 59.5572 362.644 57.5655L361.932 59.4345ZM372.398 68.0821C374.624 72.0203 375.778 77.3215 375.778 84.06H377.778C377.778 77.1185 376.593 71.4397 374.139 67.0979L372.398 68.0821ZM375.778 84.06C375.778 92.5498 373.834 99.312 370.035 104.434L371.641 105.626C375.763 100.068 377.778 92.8502 377.778 84.06H375.778ZM370.044 104.422C366.638 108.867 362.108 111.961 356.415 113.704L357.001 115.616C363.068 113.759 367.958 110.433 371.632 105.638L370.044 104.422ZM356.422 113.702C350.727 115.404 343.452 116.27 334.568 116.27V118.27C343.564 118.27 351.049 117.396 356.995 115.618L356.422 113.702ZM345.908 105.4C351.01 105.4 355.146 104.795 358.256 103.526L357.5 101.674C354.73 102.805 350.886 103.4 345.908 103.4V105.4ZM358.819 102.939C359.397 101.334 359.888 98.9057 360.31 95.7109L358.327 95.4491C357.909 98.6143 357.439 100.866 356.937 102.261L358.819 102.939ZM360.307 95.7293C360.793 92.5077 361.038 89.4873 361.038 86.67H359.038C359.038 89.3727 358.803 92.2923 358.329 95.4307L360.307 95.7293ZM361.038 86.67C361.038 79.7811 359.61 74.4853 356.562 70.9835L355.054 72.2965C357.646 75.2747 359.038 79.9989 359.038 86.67H361.038ZM356.569 70.9915C353.56 67.4592 349.006 65.78 343.118 65.78V67.78C348.63 67.78 352.536 69.3408 355.047 72.2885L356.569 70.9915ZM343.118 65.78C342.313 65.78 341.562 65.8109 340.868 65.8741L341.049 67.8659C341.674 67.8091 342.363 67.78 343.118 67.78V65.78ZM340.868 65.8741C340.205 65.9343 339.572 65.9946 338.969 66.055L339.168 68.045C339.764 67.9854 340.391 67.9256 341.049 67.8659L340.868 65.8741ZM338.068 67.05V103.95H340.068V67.05H338.068ZM338.944 104.942C341.38 105.247 343.702 105.4 345.908 105.4V103.4C343.794 103.4 341.556 103.253 339.192 102.958L338.944 104.942Z" fill="black"/>
<path d="M389.078 110.818L392.273 110.114L428.854 68.7691L443.756 72.4935L444.884 124.307C444.941 125.978 445.005 127.079 445.075 127.611C445.145 128.143 445.354 128.914 445.703 129.924L446.558 132.409L443.959 138.272L420.058 130.007L422.002 121.632L428.57 122.19L428.819 112.658L411.464 106.942L407.74 111.653C407.393 112.105 407.161 112.501 407.043 112.841C406.906 113.238 406.855 113.569 406.89 113.835C407.001 114.064 407.207 114.294 407.508 114.525L412.524 119.022L409.085 126.213L386.8 118.506L389.078 110.818ZM429.54 83.8617L418.278 98.2516L429.074 102.556L429.54 83.8617Z" fill="#B00000"/>
<path d="M389.078 110.818L388.863 109.842L388.287 109.969L388.119 110.534L389.078 110.818ZM392.273 110.114L392.489 111.091L392.807 111.021L393.022 110.777L392.273 110.114ZM428.854 68.7691L429.097 67.7989L428.508 67.6517L428.106 68.1064L428.854 68.7691ZM443.756 72.4935L444.755 72.4717L444.739 71.7084L443.998 71.5233L443.756 72.4935ZM444.884 124.307L443.884 124.329L443.884 124.342L444.884 124.307ZM445.703 129.924L446.649 129.599L446.648 129.597L445.703 129.924ZM446.558 132.409L447.472 132.815L447.631 132.456L447.504 132.084L446.558 132.409ZM443.959 138.272L443.632 139.217L444.501 139.518L444.873 138.677L443.959 138.272ZM420.058 130.007L419.084 129.781L418.88 130.658L419.731 130.952L420.058 130.007ZM422.002 121.632L422.086 120.636L421.223 120.563L421.028 121.406L422.002 121.632ZM428.57 122.19L428.486 123.186L429.542 123.276L429.57 122.216L428.57 122.19ZM428.819 112.658L429.819 112.684L429.838 111.94L429.132 111.708L428.819 112.658ZM411.464 106.942L411.777 105.992L411.113 105.773L410.68 106.322L411.464 106.942ZM407.74 111.653L406.955 111.033L406.951 111.039L406.947 111.044L407.74 111.653ZM406.89 113.835L405.898 113.966L405.92 114.127L405.991 114.273L406.89 113.835ZM407.508 114.525L408.176 113.781L408.148 113.755L408.117 113.732L407.508 114.525ZM412.524 119.022L413.427 119.453L413.75 118.777L413.192 118.277L412.524 119.022ZM409.085 126.213L408.759 127.158L409.602 127.449L409.988 126.644L409.085 126.213ZM386.8 118.506L385.841 118.222L385.57 119.139L386.473 119.451L386.8 118.506ZM429.54 83.8617L430.539 83.8866L430.614 80.8656L428.752 83.2454L429.54 83.8617ZM418.278 98.2516L417.491 97.6353L416.668 98.6862L417.908 99.1805L418.278 98.2516ZM429.074 102.556L428.704 103.485L430.038 104.017L430.074 102.581L429.074 102.556ZM389.293 111.795L392.489 111.091L392.058 109.138L388.863 109.842L389.293 111.795ZM393.022 110.777L429.603 69.4317L428.106 68.1064L391.525 109.452L393.022 110.777ZM428.612 69.7392L443.513 73.4636L443.998 71.5233L429.097 67.7989L428.612 69.7392ZM442.756 72.5152L443.884 124.329L445.884 124.286L444.755 72.4717L442.756 72.5152ZM443.884 124.342C443.941 126.003 444.006 127.153 444.083 127.742L446.066 127.481C446.004 127.005 445.941 125.953 445.883 124.273L443.884 124.342ZM444.083 127.742C444.167 128.378 444.404 129.227 444.758 130.251L446.648 129.597C446.304 128.601 446.122 127.909 446.066 127.481L444.083 127.742ZM444.758 130.249L445.612 132.735L447.504 132.084L446.649 129.599L444.758 130.249ZM445.644 132.004L443.045 137.867L444.873 138.677L447.472 132.815L445.644 132.004ZM444.286 137.327L420.385 129.062L419.731 130.952L443.632 139.217L444.286 137.327ZM421.032 130.233L422.976 121.858L421.028 121.406L419.084 129.781L421.032 130.233ZM421.917 122.629L428.486 123.186L428.655 121.193L422.086 120.636L421.917 122.629ZM429.57 122.216L429.819 112.684L427.819 112.631L427.571 122.163L429.57 122.216ZM429.132 111.708L411.777 105.992L411.151 107.892L428.506 113.607L429.132 111.708ZM410.68 106.322L406.955 111.033L408.524 112.273L412.249 107.562L410.68 106.322ZM406.947 111.044C406.568 111.538 406.265 112.031 406.098 112.514L407.988 113.168C408.057 112.97 408.218 112.672 408.533 112.262L406.947 111.044ZM406.098 112.514C405.936 112.983 405.835 113.483 405.898 113.966L407.881 113.705C407.875 113.656 407.876 113.493 407.988 113.168L406.098 112.514ZM405.991 114.273C406.195 114.693 406.531 115.036 406.9 115.319L408.117 113.732C407.884 113.553 407.808 113.436 407.789 113.398L405.991 114.273ZM406.841 115.27L411.857 119.766L413.192 118.277L408.176 113.781L406.841 115.27ZM411.622 118.59L408.183 125.781L409.988 126.644L413.427 119.453L411.622 118.59ZM409.412 125.267L387.127 117.561L386.473 119.451L408.759 127.158L409.412 125.267ZM387.759 118.79L390.037 111.103L388.119 110.534L385.841 118.222L387.759 118.79ZM428.752 83.2454L417.491 97.6353L419.066 98.8679L430.327 84.478L428.752 83.2454ZM417.908 99.1805L428.704 103.485L429.445 101.627L418.649 97.3227L417.908 99.1805ZM430.074 102.581L430.539 83.8866L428.54 83.8369L428.075 102.531L430.074 102.581Z" fill="black"/>
<path d="M481.666 162.506C474.068 157.462 469.762 151.255 468.749 143.885C467.736 136.515 470.051 128.581 475.692 120.083C479.276 114.684 483.337 110.682 487.875 108.078C492.496 105.456 497.361 104.365 502.471 104.804C507.614 105.194 512.76 107.097 517.908 110.515C523.757 114.398 528.901 119.721 533.341 126.486C529.904 130.686 525.878 135.178 521.261 139.963L515.313 136.555L515.167 125.547C513.399 123.438 511.19 121.503 508.541 119.744C506.541 118.417 504.526 117.331 502.494 116.486C500.665 117.505 498.655 119.123 496.463 121.34C494.27 123.558 492.311 125.966 490.586 128.566C486.902 134.114 485.164 138.902 485.372 142.929C485.662 146.939 487.974 150.454 492.307 153.474C494.056 154.636 496.422 155.846 499.403 157.105C502.467 158.347 505.556 159.389 508.67 160.232L505.519 170.023C501.791 169.997 497.713 169.306 493.283 167.95C488.937 166.577 485.065 164.763 481.666 162.506Z" fill="#B00000"/>
<path d="M468.749 143.885L469.74 143.749L469.74 143.749L468.749 143.885ZM487.875 108.078L487.381 107.208L487.377 107.21L487.875 108.078ZM502.471 104.804L502.385 105.801L502.396 105.801L502.471 104.804ZM533.341 126.486L534.115 127.119L534.58 126.551L534.177 125.937L533.341 126.486ZM521.261 139.963L520.764 140.831L521.439 141.218L521.98 140.658L521.261 139.963ZM515.313 136.555L514.313 136.569L514.321 137.139L514.816 137.423L515.313 136.555ZM515.167 125.547L516.167 125.534L516.162 125.178L515.933 124.905L515.167 125.547ZM502.494 116.486L502.878 115.563L502.43 115.377L502.007 115.613L502.494 116.486ZM485.372 142.929L484.373 142.98L484.374 142.991L484.374 143.001L485.372 142.929ZM492.307 153.474L491.735 154.294L491.744 154.301L491.754 154.307L492.307 153.474ZM499.403 157.105L499.014 158.026L499.02 158.029L499.027 158.031L499.403 157.105ZM508.67 160.232L509.622 160.538L509.943 159.54L508.931 159.266L508.67 160.232ZM505.519 170.023L505.512 171.023L506.246 171.028L506.471 170.329L505.519 170.023ZM493.283 167.95L492.982 168.903L492.991 168.906L493.283 167.95ZM482.219 161.673C474.801 156.749 470.705 150.771 469.74 143.749L467.759 144.021C468.819 151.738 473.334 158.175 481.113 163.339L482.219 161.673ZM469.74 143.749C468.771 136.697 470.968 129.007 476.525 120.636L474.859 119.53C469.133 128.155 466.702 136.333 467.759 144.021L469.74 143.749ZM476.525 120.636C480.043 115.336 483.998 111.456 488.373 108.945L487.377 107.21C482.676 109.909 478.509 114.032 474.859 119.53L476.525 120.636ZM488.368 108.947C492.82 106.422 497.485 105.379 502.385 105.801L502.557 103.808C497.238 103.351 492.172 104.49 487.381 107.208L488.368 108.947ZM502.396 105.801C507.337 106.175 512.321 108.006 517.355 111.348L518.461 109.682C513.198 106.188 507.891 104.212 502.547 103.807L502.396 105.801ZM517.355 111.348C523.075 115.146 528.128 120.366 532.505 127.034L534.177 125.937C529.674 119.077 524.438 113.65 518.461 109.682L517.355 111.348ZM532.567 125.852C529.151 130.027 525.143 134.5 520.541 139.269L521.98 140.658C526.612 135.857 530.658 131.344 534.115 127.119L532.567 125.852ZM521.758 139.096L515.81 135.688L514.816 137.423L520.764 140.831L521.758 139.096ZM516.313 136.542L516.167 125.534L514.167 125.561L514.313 136.569L516.313 136.542ZM515.933 124.905C514.095 122.711 511.811 120.715 509.094 118.911L507.988 120.577C510.569 122.291 512.703 124.164 514.4 126.19L515.933 124.905ZM509.094 118.911C507.046 117.552 504.974 116.434 502.878 115.563L502.11 117.41C504.078 118.228 506.037 119.282 507.988 120.577L509.094 118.911ZM502.007 115.613C500.066 116.694 497.981 118.382 495.751 120.637L497.174 122.044C499.329 119.864 501.264 118.316 502.98 117.36L502.007 115.613ZM495.751 120.637C493.514 122.901 491.514 125.36 489.753 128.013L491.419 129.119C493.109 126.573 495.027 124.215 497.174 122.044L495.751 120.637ZM489.753 128.013C486.021 133.634 484.149 138.64 484.373 142.98L486.37 142.877C486.179 139.164 487.783 134.595 491.419 129.119L489.753 128.013ZM484.374 143.001C484.693 147.4 487.238 151.16 491.735 154.294L492.879 152.654C488.71 149.748 486.632 146.477 486.369 142.857L484.374 143.001ZM491.754 154.307C493.575 155.516 496.002 156.754 499.014 158.026L499.792 156.183C496.841 154.937 494.538 153.755 492.86 152.641L491.754 154.307ZM499.027 158.031C502.128 159.288 505.255 160.344 508.408 161.197L508.931 159.266C505.857 158.435 502.806 157.405 499.778 156.178L499.027 158.031ZM507.718 159.925L504.567 169.716L506.471 170.329L509.622 160.538L507.718 159.925ZM505.526 169.023C501.915 168.998 497.934 168.328 493.576 166.994L492.991 168.906C497.491 170.284 501.667 170.996 505.512 171.023L505.526 169.023ZM493.585 166.996C489.318 165.649 485.531 163.872 482.219 161.673L481.113 163.339C484.598 165.653 488.557 167.506 492.982 168.903L493.585 166.996Z" fill="black"/>
<path d="M528.791 181.595L575.716 181.473L567.354 171.886L556.893 170.873L553.687 164.385L570.525 154.722L597.74 190.785L590.093 197.684L541.961 197.702L553.286 210.916L563.475 211.12L566.664 218.184C558.961 222.719 553.325 225.958 549.755 227.901L520.262 188.82L528.791 181.595Z" fill="#B00000"/>
<path d="M528.791 181.595L528.788 180.595L528.423 180.596L528.144 180.832L528.791 181.595ZM575.716 181.473L575.719 182.473L577.911 182.467L576.47 180.816L575.716 181.473ZM567.354 171.886L568.107 171.229L567.846 170.929L567.45 170.891L567.354 171.886ZM556.893 170.873L555.996 171.316L556.243 171.815L556.796 171.868L556.893 170.873ZM553.687 164.385L553.19 163.517L552.375 163.985L552.791 164.828L553.687 164.385ZM570.525 154.722L571.323 154.12L570.792 153.416L570.027 153.855L570.525 154.722ZM597.74 190.785L598.41 191.528L599.09 190.914L598.539 190.183L597.74 190.785ZM590.093 197.684L590.093 198.684L590.477 198.684L590.763 198.427L590.093 197.684ZM541.961 197.702L541.96 196.702L539.787 196.703L541.201 198.353L541.961 197.702ZM553.286 210.916L552.527 211.567L552.818 211.907L553.266 211.916L553.286 210.916ZM563.475 211.12L564.386 210.708L564.126 210.132L563.495 210.12L563.475 211.12ZM566.664 218.184L567.171 219.046L567.945 218.591L567.575 217.773L566.664 218.184ZM549.755 227.901L548.957 228.503L549.476 229.191L550.233 228.779L549.755 227.901ZM520.262 188.82L519.616 188.057L518.895 188.668L519.464 189.423L520.262 188.82ZM528.793 182.595L575.719 182.473L575.714 180.473L528.788 180.595L528.793 182.595ZM576.47 180.816L568.107 171.229L566.6 172.543L574.963 182.13L576.47 180.816ZM567.45 170.891L556.989 169.878L556.796 171.868L567.258 172.881L567.45 170.891ZM557.789 170.43L554.584 163.942L552.791 164.828L555.996 171.316L557.789 170.43ZM554.185 165.252L571.022 155.59L570.027 153.855L553.19 163.517L554.185 165.252ZM569.726 155.325L596.942 191.388L598.539 190.183L571.323 154.12L569.726 155.325ZM597.071 190.043L589.423 196.942L590.763 198.427L598.41 191.528L597.071 190.043ZM590.093 196.684L541.96 196.702L541.961 198.702L590.093 198.684L590.093 196.684ZM541.201 198.353L552.527 211.567L554.045 210.265L542.72 197.051L541.201 198.353ZM553.266 211.916L563.455 212.119L563.495 210.12L553.306 209.916L553.266 211.916ZM562.563 211.531L565.752 218.596L567.575 217.773L564.386 210.708L562.563 211.531ZM566.157 217.322C558.455 221.857 552.831 225.088 549.277 227.022L550.233 228.779C553.819 226.828 559.468 223.582 567.171 219.046L566.157 217.322ZM550.553 227.298L521.06 188.218L519.464 189.423L548.957 228.503L550.553 227.298ZM520.909 189.583L529.437 182.358L528.144 180.832L519.616 188.057L520.909 189.583Z" fill="black"/>
<g filter="url(#filter0_d_104_70)">
<path d="M474.999 443.361C486.332 412.965 493.643 408.887 495.882 410.647" stroke="#D0D0D0"/>
<path d="M493.975 410.042C491.194 407.235 483.125 409.848 473.092 442.755C474.083 445.693 478.096 452.109 486.223 454.27C497.295 450.792 518.567 440.307 515.078 426.188C511.206 420.761 501.564 409.934 493.975 410.042Z" fill="#6F6F6D" stroke="#6F6F6D"/>
<path d="M451.15 501.363C445.989 501.647 435.149 499.218 433.081 487.23C432.64 485.865 434.053 482.187 443.234 478.388C454.164 473.046 455.233 465.936 454.401 463.049C462.013 473.441 468.131 475.979 470.239 475.949C459.839 482.718 457.825 488.794 458.119 490.985C457.218 494.372 454.563 501.188 451.15 501.363Z" fill="#383838"/>
<path d="M458.119 490.985C457.218 494.372 454.563 501.188 451.15 501.363C445.989 501.647 435.149 499.218 433.081 487.23C432.64 485.865 434.053 482.187 443.234 478.388M458.119 490.985C451.409 481.719 445.4 478.726 443.234 478.388M458.119 490.985C457.825 488.794 459.839 482.718 470.239 475.949C468.131 475.979 462.013 473.441 454.401 463.049C455.233 465.936 454.164 473.046 443.234 478.388" stroke="#383838"/>
<path d="M475.108 476.046C474.801 476.42 474.247 476.653 473.383 476.656C472.524 476.658 471.432 476.429 470.174 475.967C467.661 475.044 464.586 473.236 461.563 470.749C458.539 468.261 456.172 465.594 454.782 463.305C454.086 462.159 453.65 461.133 453.487 460.289C453.323 459.441 453.445 458.853 453.753 458.479C454.06 458.105 454.613 457.872 455.477 457.869C456.337 457.867 457.428 458.096 458.687 458.558C461.2 459.481 464.274 461.289 467.298 463.776C470.322 466.264 472.689 468.931 474.079 471.22C474.775 472.366 475.21 473.392 475.374 474.236C475.538 475.084 475.415 475.672 475.108 476.046Z" fill="#383838" stroke="#383838"/>
<path d="M458.651 458.628C459.292 455.509 463.216 448.222 473.782 444.024C475.033 446.694 479.439 452.64 487.064 455.062C486.43 458.708 483.315 467.197 475.919 471.982C474.981 472.734 470.214 471.115 458.651 458.628Z" fill="#191919" stroke="#191919"/>
<path d="M477.252 446.175C493.306 418.536 499.868 413.145 501.143 413.904" stroke="#D0D0D0"/>
<path d="M478.856 447.734C497.476 421.334 503.178 415.416 503.702 415.757" stroke="#D0D0D0"/>
<path d="M483.016 451.153C506.18 429.144 510.645 422.511 509.982 421.946" stroke="#D0D0D0"/>
<path d="M481.412 449.595C503.273 426.74 508.119 419.781 507.81 419.158" stroke="#D0D0D0"/>
<g filter="url(#filter1_d_104_70)">
<path d="M474.999 443.361C486.332 412.965 493.643 408.887 495.882 410.647" stroke="#D0D0D0"/>
</g>
<path d="M474.999 443.361C481.193 450.285 485.482 452.198 486.852 452.289" stroke="#D0D0D0"/>
<path d="M486.828 452.364C510.134 435.788 514.427 428.056 513.661 426.262" stroke="#D0D0D0"/>
</g>
<defs>
<filter id="filter0_d_104_70" x="428.509" y="408.698" width="91.4518" height="101.186" filterUnits="userSpaceOnUse" color-interpolation-filters="sRGB">
<feFlood flood-opacity="0" result="BackgroundImageFix"/>
<feColorMatrix in="SourceAlpha" type="matrix" values="0 0 0 0 0 0 0 0 0 0 0 0 0 0 0 0 0 0 127 0" result="hardAlpha"/>
<feOffset dy="4"/>
<feGaussianBlur stdDeviation="2"/>
<feComposite in2="hardAlpha" operator="out"/>
<feColorMatrix type="matrix" values="0 0 0 0 0 0 0 0 0 0 0 0 0 0 0 0 0 0 0.25 0"/>
<feBlend mode="normal" in2="BackgroundImageFix" result="effect1_dropShadow_104_70"/>
<feBlend mode="normal" in="SourceGraphic" in2="effect1_dropShadow_104_70" result="shape"/>
</filter>
<filter id="filter1_d_104_70" x="470.53" y="409.801" width="29.6604" height="41.7345" filterUnits="userSpaceOnUse" color-interpolation-filters="sRGB">
<feFlood flood-opacity="0" result="BackgroundImageFix"/>
<feColorMatrix in="SourceAlpha" type="matrix" values="0 0 0 0 0 0 0 0 0 0 0 0 0 0 0 0 0 0 127 0" result="hardAlpha"/>
<feOffset dy="4"/>
<feGaussianBlur stdDeviation="2"/>
<feComposite in2="hardAlpha" operator="out"/>
<feColorMatrix type="matrix" values="0 0 0 0 0 0 0 0 0 0 0 0 0 0 0 0 0 0 0.25 0"/>
<feBlend mode="normal" in2="BackgroundImageFix" result="effect1_dropShadow_104_70"/>
<feBlend mode="normal" in="SourceGraphic" in2="effect1_dropShadow_104_70" result="shape"/>
</filter>
</defs>
</svg>
