<svg width="556" height="577" viewBox="0 0 556 577" fill="none" xmlns="http://www.w3.org/2000/svg">
<rect x="202.662" y="155" width="133" height="183" fill="#BEC2C4"/>
<path d="M385.662 198L341.662 250C342.162 251 342.862 257.2 341.662 274L385.662 198Z" fill="#6F6F6D" stroke="#6F6F6D"/>
<path d="M209.162 238.5C205.562 268.9 211.662 279.167 215.162 280.5" stroke="black"/>
<path d="M218.662 205C225.462 191.4 224.162 184.667 222.662 183" stroke="black"/>
<path d="M222.162 228.5C232.962 222.9 239.329 223.5 241.162 224.5C238.362 216.1 231.662 214.333 228.662 214.5C225.462 214.9 218.995 219.667 216.162 222C216.562 217.6 222.662 211.833 225.662 209.5C228.062 207.9 231.329 208.5 232.662 209C238.662 211 247.829 215.833 251.662 218C260.462 222.8 260.995 226 260.162 227C258.962 228.6 259.662 234.667 260.162 237.5C257.762 238.3 254.495 240.5 253.162 241.5C252.762 240.3 253.995 239 254.662 238.5C257.462 236.5 257.495 235.333 257.162 235C254.362 229.8 243.329 229.5 238.162 230C235.192 230.495 233.983 230.76 233.612 230.891C233.629 230.927 233.646 230.963 233.662 231C233.471 231 233.383 230.971 233.612 230.891C232.279 228.199 225.451 228.171 222.162 228.5Z" fill="black"/>
<path d="M222.162 228.5C232.962 222.9 239.329 223.5 241.162 224.5C238.362 216.1 231.662 214.333 228.662 214.5C225.462 214.9 218.995 219.667 216.162 222C216.562 217.6 222.662 211.833 225.662 209.5C228.062 207.9 231.329 208.5 232.662 209C238.662 211 247.829 215.833 251.662 218C260.462 222.8 260.995 226 260.162 227C258.962 228.6 259.662 234.667 260.162 237.5C257.762 238.3 254.495 240.5 253.162 241.5C252.762 240.3 253.995 239 254.662 238.5C257.462 236.5 257.495 235.333 257.162 235C254.362 229.8 243.329 229.5 238.162 230C233.362 230.8 233.162 231 233.662 231C232.462 228.2 225.495 228.167 222.162 228.5Z" stroke="black"/>
<path d="M319.162 314C326.335 308.061 326.855 305.906 326.162 305.5C329.362 308.7 327.495 313.167 326.162 315C320.162 315.8 318.995 314.667 319.162 314Z" stroke="black"/>
<path d="M308.662 340C315.062 330.8 314.329 324.167 313.162 322M369.662 363.5C370.062 346.7 360.495 341.5 355.662 341" stroke="black"/>
<path d="M301.662 247.5C309.662 250.7 313.662 249.167 314.662 248" stroke="black"/>
<path d="M291.162 255C295.162 262.6 299.162 263.5 300.662 263" stroke="black"/>
<path d="M196.288 297.5C200.455 292.167 206.588 274.6 197.788 247L202.788 251C201.519 251 200.342 254.1 205.788 266.5C205.788 269 207.688 276.8 215.288 288C214.621 287.333 213.688 287.9 215.288 295.5C215.455 297 216.388 299.8 218.788 299C219.621 298.833 221.088 299.1 220.288 301.5C219.788 300.833 218.588 300.5 217.788 304.5C218.288 306.667 220.388 310.5 224.788 308.5C225.288 307.667 230.888 304.3 249.288 297.5C252.455 296.167 260.988 293.6 269.788 294C272.621 293.5 282.288 293.9 298.288 299.5C297.788 300 295.388 300.9 289.788 300.5C293.121 301.833 300.888 304 305.288 302C307.788 304.167 314.288 307.1 320.288 301.5C322.621 300.167 327.988 295.3 330.788 286.5C332.434 282.384 335.707 266.398 335.786 235.168C335.755 234.702 335.76 234.308 335.788 234C335.788 234.392 335.787 234.781 335.786 235.168C335.94 237.468 336.961 241.507 340.288 245.5C340.788 253.833 341.388 272 339.788 278C337.788 281.167 334.588 289.3 337.788 296.5C338.955 297.333 341.188 301.2 340.788 310C341.955 310.833 343.788 316.8 341.788 334C342.288 334.833 342.988 338.6 341.788 347C341.621 347.5 340.888 348.1 339.288 346.5C339.788 352.5 337.888 366 326.288 372C323.788 378.5 316.688 391.9 308.288 393.5C308.955 395.167 306.288 400.2 290.288 407C289.288 409 287.688 411.7 275.288 410.5C273.455 410.833 268.088 410.4 261.288 406C256.455 405.167 243.988 400 232.788 386C230.455 386 223.588 383 214.788 371C210.621 369.167 201.088 362.6 196.288 351C191.288 341.333 184.288 317.1 196.288 297.5Z" fill="#1A1A1A"/>
<path d="M197.788 247C206.588 274.6 200.455 292.167 196.288 297.5C184.288 317.1 191.288 341.333 196.288 351C201.088 362.6 210.621 369.167 214.788 371C223.588 383 230.455 386 232.788 386C243.988 400 256.455 405.167 261.288 406C268.088 410.4 273.455 410.833 275.288 410.5C287.688 411.7 289.288 409 290.288 407C306.288 400.2 308.955 395.167 308.288 393.5C316.688 391.9 323.788 378.5 326.288 372C337.888 366 339.788 352.5 339.288 346.5C340.888 348.1 341.621 347.5 341.788 347C342.988 338.6 342.288 334.833 341.788 334C343.788 316.8 341.955 310.833 340.788 310C341.188 301.2 338.955 297.333 337.788 296.5C334.588 289.3 337.788 281.167 339.788 278C341.388 272 340.788 253.833 340.288 245.5C336.288 240.7 335.621 235.833 335.788 234C335.788 266 332.455 282.333 330.788 286.5C327.988 295.3 322.621 300.167 320.288 301.5C314.288 307.1 307.788 304.167 305.288 302C300.888 304 293.121 301.833 289.788 300.5C295.388 300.9 297.788 300 298.288 299.5C282.288 293.9 272.621 293.5 269.788 294C260.988 293.6 252.455 296.167 249.288 297.5C230.888 304.3 225.288 307.667 224.788 308.5C220.388 310.5 218.288 306.667 217.788 304.5C218.588 300.5 219.788 300.833 220.288 301.5C221.088 299.1 219.621 298.833 218.788 299C216.388 299.8 215.455 297 215.288 295.5C213.688 287.9 214.621 287.333 215.288 288C207.688 276.8 205.788 269 205.788 266.5C200.342 254.1 201.519 251 202.788 251L197.788 247Z" stroke="black"/>
<path d="M278.662 291C281.204 250.69 277.07 235.355 274.042 231.749C273.75 231.509 273.457 231.259 273.162 231C273.438 231.138 273.734 231.383 274.042 231.749C283.639 239.655 291.412 237.265 294.162 235C312.162 228.2 323.329 229.5 326.662 231C333.062 236.2 330.662 237.167 328.662 237C304.662 238.6 300.662 239.667 301.662 240C293.662 241.6 313.995 241.333 325.162 241C327.162 242.2 325.329 243.167 324.162 243.5C304.162 242.7 292.495 243.833 289.162 244.5C283.562 245.3 283.162 253.167 283.662 257C285.262 282.2 293.329 291.167 297.162 292.5C298.362 295.3 293.662 292.333 291.162 290.5C283.962 293.3 279.829 292 278.662 291Z" fill="black"/>
<path d="M255.162 281.5C249.162 292.7 268.329 292.5 278.662 291M278.662 291C281.462 246.6 276.162 232.5 273.162 231C283.162 239.8 291.329 237.333 294.162 235C312.162 228.2 323.329 229.5 326.662 231C333.062 236.2 330.662 237.167 328.662 237C304.662 238.6 300.662 239.667 301.662 240C293.662 241.6 313.995 241.333 325.162 241C327.162 242.2 325.329 243.167 324.162 243.5C304.162 242.7 292.495 243.833 289.162 244.5C283.562 245.3 283.162 253.167 283.662 257C285.262 282.2 293.329 291.167 297.162 292.5C298.362 295.3 293.662 292.333 291.162 290.5C283.962 293.3 279.829 292 278.662 291Z" stroke="black"/>
<path d="M245.662 293.5C250.462 289.1 250.662 286 250.162 285" stroke="black"/>
<path d="M245.662 262.5C252.462 255.7 253.495 252.333 253.162 251.5" stroke="black"/>
<path d="M268.662 214C270.662 230 268.162 233.333 266.662 233" stroke="black"/>
<path d="M236.662 247C249.462 245.8 251.329 243.167 250.662 242" stroke="black"/>
<path d="M254.662 238C249.495 242.167 236.362 247.6 225.162 236C229.329 233.833 239.162 229.7 245.162 230.5C250.662 231.333 260.262 234 254.662 238Z" stroke="black"/>
<circle cx="242.662" cy="237" r="6" fill="#002C85"/>
<path d="M239.162 198C263.662 199.5 267.651 203.197 273.662 205C279.674 206.803 302.318 205.611 307.162 205" stroke="black"/>
<path d="M309.162 189.5C290.362 195.5 274.662 194.667 269.162 193.5C264.662 192.545 253.162 190.667 247.662 190" stroke="black"/>
<path d="M291.791 322.327C286.125 326.327 270.291 331.827 252.291 321.827C250.958 321.494 249.191 320.727 252.791 320.327C267.458 319.827 295.791 319.527 291.791 322.327Z" fill="#BEC2C4" stroke="#BEC2C4"/>
<path d="M271.662 316C258.495 318.167 229.862 320.2 220.662 311C225.162 313.833 241.862 318.3 272.662 313.5C279.829 314.667 296.962 316.9 308.162 316.5C301.995 317.667 286.062 319.2 271.662 316Z" fill="#BEC2C4" stroke="#BEC2C4"/>
<path d="M203.662 251L197.162 245.5C197.995 245.833 199.762 246.4 200.162 246C200.995 238.667 202.062 221.6 199.662 212C198.162 207.667 195.862 194.2 198.662 175C198.662 173.167 197.562 168.5 193.162 164.5C192.329 161.667 191.762 154.3 196.162 147.5C197.495 141.5 203.662 127.7 217.662 120.5C223.662 115.833 240.462 106.6 259.662 107C267.662 106.833 285.762 108.3 294.162 115.5C296.329 114.833 306.662 116 330.662 126C335.829 127.167 346.262 132 346.662 142C347.329 148.333 348.162 161.2 346.162 162C344.829 162.667 342.262 165.2 342.662 170C343.495 179.833 344.462 202.2 341.662 213C340.329 218.333 338.262 232.1 340.662 244.5C339.329 243.667 336.362 240.3 335.162 233.5C337.495 220 338.462 188.4 323.662 170C317.662 177.5 287.562 188.9 215.162 174.5C214.662 187.333 212.762 213.5 209.162 215.5C207.329 216.167 203.662 224.2 203.662 251Z" fill="#1A1A1A" stroke="black"/>
<path d="M330.162 254.5C334.562 277.7 326.329 290.5 321.662 294" stroke="black"/>
<path d="M326.162 179C334.962 203.4 332.495 216.5 330.162 220C328.562 194 326.829 181.833 326.162 179Z" fill="black" stroke="black"/>
<path d="M189.162 209.5C190.662 208.333 194.862 207.7 199.662 214.5C200.495 215.333 201.762 222.4 200.162 244C199.829 243.667 199.062 242.6 198.662 241C198.662 240.5 190.162 229.5 188.162 221C187.662 217.833 187.162 211.1 189.162 209.5Z" fill="#BEC2C4" stroke="black"/>
<path d="M348.162 212C350.329 214.833 351.962 225.2 341.162 244C339.829 239.5 338.162 226.6 342.162 211C343.329 210.167 346.162 209.2 348.162 212Z" fill="#BEC2C4" stroke="black"/>
<path d="M130.162 375.5L111.162 401C120.162 410.667 157.762 433.8 236.162 449C241.662 452.333 249.362 461.5 236.162 471.5C228.829 476.5 191.362 472.6 100.162 417C93.9954 424.5 81.2621 438.1 79.6621 432.5C79.1621 431.333 81.2621 425.7 93.6621 412.5C92.4955 412.333 90.0621 411 89.6622 407C89.1622 402.833 90.9622 394.9 102.162 396.5L176.162 308.5C177.662 307.667 181.962 307.9 187.162 315.5L139.162 375.5H130.162Z" fill="#383838" stroke="#383838"/>
<path fill-rule="evenodd" clip-rule="evenodd" d="M210.646 393.944L210.662 394C210.656 393.982 210.651 393.964 210.646 393.944Z" fill="#6F6F6D"/>
<path fill-rule="evenodd" clip-rule="evenodd" d="M196.162 388C188.962 396.4 186.162 403.833 185.662 406.5C183.262 416.9 185.995 420.833 187.662 421.5C184.062 429.9 176.829 426 173.662 423C174.062 418.2 171.162 419.667 169.662 421C167.262 423 169.995 426.5 171.662 428C178.862 432.4 182.995 431.833 184.162 431C193.762 427 207.495 410.333 213.162 402.5C221.162 393.7 226.829 388.833 228.662 387.5C224.662 385.5 222.329 383 221.662 382C212.232 389.073 210.392 392.865 210.646 393.944L210.662 394C210.656 393.982 210.651 393.964 210.646 393.944C207.04 381.21 199.49 384.672 196.162 388ZM199 414C203 408.167 209.5 395.4 203.5 391C201.833 390.5 197.5 391.5 193.5 399.5C192.333 401.333 189.9 406.3 189.5 411.5C189.333 413.5 189.6 417.6 192 418C192.833 418.5 195.4 418.4 199 414Z" fill="#6F6F6D"/>
<path d="M210.662 394L210.646 393.944M210.662 394C210.656 393.982 210.651 393.964 210.646 393.944M210.662 394C210.657 393.981 210.652 393.963 210.646 393.944M210.646 393.944C210.392 392.865 212.232 389.073 221.662 382C222.329 383 224.662 385.5 228.662 387.5C226.829 388.833 221.162 393.7 213.162 402.5C207.495 410.333 193.762 427 184.162 431C182.995 431.833 178.862 432.4 171.662 428C169.995 426.5 167.262 423 169.662 421C171.162 419.667 174.062 418.2 173.662 423C176.829 426 184.062 429.9 187.662 421.5C185.995 420.833 183.262 416.9 185.662 406.5C186.162 403.833 188.962 396.4 196.162 388C199.49 384.672 207.04 381.21 210.646 393.944ZM203.5 391C209.5 395.4 203 408.167 199 414C195.4 418.4 192.833 418.5 192 418C189.6 417.6 189.333 413.5 189.5 411.5C189.9 406.3 192.333 401.333 193.5 399.5C197.5 391.5 201.833 390.5 203.5 391Z" stroke="#6F6F6D"/>
<path fill-rule="evenodd" clip-rule="evenodd" d="M316 391.5C327.352 399.9 333.568 409 335.257 412.5C338.906 420.9 344.886 424.333 347.419 425C351.068 425.4 354.345 421.5 355.528 419.5C359.176 413.9 354.345 401.833 351.474 396.5C336.473 393.7 331.372 390.667 330.696 389.5C328.669 393.1 325.797 391.667 324.615 390.5C321.777 387.7 321.068 386.333 321.068 386C319.041 389.2 316.845 391 316 391.5ZM346.838 419C343.338 419 336.038 414.4 334.838 396C335.505 395.333 338.538 394.9 345.338 398.5C348.838 404.833 354.038 417.8 346.838 419Z" fill="#6F6F6D" stroke="#6F6F6D"/>
<path d="M155.162 198.5L198.162 269C196.995 265.5 194.762 255.4 195.162 243L155.162 198.5Z" fill="#6F6F6D" stroke="#6F6F6D"/>
<path d="M331.662 387.5C305.662 352.7 301.829 340.667 303.162 339C303.962 333.8 305.829 331.167 306.662 330.5C309.062 321.3 308.329 317.667 307.662 317C306.462 313.4 308.495 312.833 309.662 313C315.262 313.4 321.329 319.167 323.662 322C326.462 334.8 322.495 340.333 320.162 341.5C319.762 344.7 316.662 344.833 315.162 344.5C314.762 344.9 315.329 345.667 315.662 346C320.462 345.6 321.329 343.167 321.162 342C323.162 340 324.662 341.167 325.162 342C329.162 350.8 335.829 355.333 338.662 356.5C351.862 354.9 354.162 341.833 353.662 335.5C355.662 319.9 350.829 312.667 348.162 311C343.762 307.8 336.662 309.333 333.662 310.5C330.062 317.3 321.829 316.333 318.162 315C310.562 312.2 312.995 309.167 315.162 308C322.762 300.4 328.995 298.5 331.162 298.5C349.962 284.9 358.995 286.167 361.162 288.5C359.562 267.7 356.162 260.5 354.662 259.5C347.862 249.9 348.495 240.833 349.662 237.5C352.062 229.9 355.329 230.333 356.662 231.5C363.062 236.3 365.662 243.5 366.162 246.5C374.331 256.897 376.812 263.789 377.126 266.457C375.606 242.889 378.508 235.662 380.162 235C383.762 231 387.662 232.333 389.162 233.5C395.562 238.3 395.829 259.167 395.162 269C398.762 258.2 403.329 260.167 405.162 262.5C411.162 280.1 408.662 308.5 406.662 320.5C409.062 369.3 403.329 387.833 400.162 391C373.762 396.6 365.495 393.333 364.662 391C351.462 396.2 337.162 390.833 331.662 387.5Z" fill="#BEC2C4"/>
<path d="M331.662 387.5C305.662 352.7 301.829 340.667 303.162 339C303.962 333.8 305.829 331.167 306.662 330.5C309.062 321.3 308.329 317.667 307.662 317C306.462 313.4 308.495 312.833 309.662 313C315.262 313.4 321.329 319.167 323.662 322C326.462 334.8 322.495 340.333 320.162 341.5C319.762 344.7 316.662 344.833 315.162 344.5C314.762 344.9 315.329 345.667 315.662 346C320.462 345.6 321.329 343.167 321.162 342C323.162 340 324.662 341.167 325.162 342C329.162 350.8 335.829 355.333 338.662 356.5C351.862 354.9 354.162 341.833 353.662 335.5C355.662 319.9 350.829 312.667 348.162 311C343.762 307.8 336.662 309.333 333.662 310.5C330.062 317.3 321.829 316.333 318.162 315C310.562 312.2 312.995 309.167 315.162 308C322.762 300.4 328.995 298.5 331.162 298.5C349.962 284.9 358.995 286.167 361.162 288.5C359.562 267.7 356.162 260.5 354.662 259.5C347.862 249.9 348.495 240.833 349.662 237.5C352.062 229.9 355.329 230.333 356.662 231.5C363.062 236.3 365.662 243.5 366.162 246.5C374.962 257.7 377.162 264.833 377.162 267C375.562 243 378.495 235.667 380.162 235C383.762 231 387.662 232.333 389.162 233.5C395.562 238.3 395.829 259.167 395.162 269C398.762 258.2 403.329 260.167 405.162 262.5C411.162 280.1 408.662 308.5 406.662 320.5C409.062 369.3 403.329 387.833 400.162 391C373.762 396.6 365.495 393.333 364.662 391C351.462 396.2 337.162 390.833 331.662 387.5Z" stroke="black"/>
<path d="M325.162 352.5C336.362 364.9 344.495 361 347.162 357.5" stroke="black"/>
<path d="M342.162 305C341.329 304.667 340.362 304.9 343.162 308.5C343.495 308.167 344.762 307.9 347.162 309.5C348.329 309.667 350.362 309.5 349.162 307.5C348.329 307.5 346.762 306.9 347.162 304.5C347.829 303.667 347.762 302.6 342.162 305Z" fill="black" stroke="black"/>
<path d="M334.022 309.674C333.36 310.371 332.579 311.144 331.662 312C331.546 311.418 331.981 310.382 334.022 309.674C336.735 306.817 337.462 305.238 337.428 304.494C337.347 304.334 337.258 304.169 337.162 304C337.309 304.074 337.416 304.232 337.428 304.494C338.69 307.001 338.132 308.53 337.662 309C336.09 309.121 334.906 309.367 334.022 309.674Z" fill="black"/>
<path d="M331.662 312C337.662 306.4 337.829 304.333 337.162 304C338.762 306.8 338.162 308.5 337.662 309C332.462 309.4 331.495 311.167 331.662 312Z" stroke="black"/>
<path d="M378.129 344C364.529 338.4 363.795 327.667 365.129 323" stroke="black"/>
<path d="M365.662 306C364.662 306 362.862 303.1 363.662 291.5C363.162 289.833 362.062 284.4 361.662 276C361.662 275 361.862 272.6 362.662 271C362.162 271.333 360.662 270.5 358.662 264.5C357.829 263 355.562 258.3 353.162 251.5C352.329 247.333 350.962 238.9 352.162 238.5C353.329 238.5 355.762 239.7 356.162 244.5C357.329 248.167 359.362 255.5 358.162 255.5C357.162 255.5 355.962 256.2 359.162 259C360.828 259.167 363.462 259.848 360.662 261.241C360.328 260.828 359.862 261 360.662 265C361.828 266 364.362 268.5 365.162 270.5C365.662 271.667 366.162 274.2 364.162 275C363.662 275.333 363.062 276.5 364.662 278.5C365.495 278.5 366.962 278.9 366.162 280.5C365.162 280.167 363.762 280.5 366.162 284.5C367.162 284.333 369.062 285.1 368.662 289.5C367.995 289.5 367.562 292.5 371.162 304.5C370.828 305.5 369.262 307.2 365.662 306Z" fill="black" stroke="black"/>
<path d="M377.662 306.5C379.162 300.5 380.762 284.2 375.162 267C376.329 267.5 378.762 267.9 379.162 265.5C378.495 261.667 377.762 251.4 380.162 241C381.329 238.833 383.862 235.2 384.662 238C383.662 238.167 381.762 240 382.162 246C381.329 248.833 380.362 255.3 383.162 258.5C383.662 259.333 383.962 260.6 381.162 259C380.662 259.167 380.462 260.7 383.662 265.5C382.662 265.167 380.662 265.2 380.662 268C381.829 268 383.862 274.6 382.662 301C382.829 301.667 382.562 304.1 380.162 308.5C379.662 307.833 378.262 309.1 376.662 319.5C375.829 319.667 374.862 317.3 377.662 306.5Z" fill="black" stroke="black"/>
<path d="M393.662 279C394.162 280.333 393.262 289.4 385.662 315C388.162 314.167 392.962 311.8 392.162 309C391.495 309.5 390.162 310.1 390.162 308.5C390.995 307 392.862 304 393.662 304C393.995 304 394.862 302.9 395.662 298.5C396.162 296.167 396.962 291.1 396.162 289.5C395.495 288.167 394.662 283.1 396.662 273.5C397.995 270.833 400.562 265.4 400.162 265C399.662 264.667 398.162 264.9 396.162 268.5C394.995 268.667 392.862 271 393.662 279Z" fill="#070707" stroke="black"/>
<path d="M399.662 389C399.162 389.667 397.262 390.7 393.662 389.5C393.221 385.971 393.714 370.298 398.506 334.789C398.892 323.425 399.885 319.586 400.662 319.5C399.862 324.961 399.146 330.052 398.506 334.789C398.148 345.35 398.313 362.411 399.662 389Z" fill="black"/>
<path d="M393.662 389.5C397.262 390.7 399.162 389.667 399.662 389C396.862 333.8 399.162 319.667 400.662 319.5C393.862 365.9 393.162 385.5 393.662 389.5Z" stroke="black"/>
<path d="M364.662 390C364.495 389.5 363.062 388.8 358.662 390C357.998 387.179 358.755 380.062 367.054 374.078C367.093 374.036 367.129 374.011 367.162 374C367.126 374.026 367.09 374.052 367.054 374.078C366.505 374.66 365.409 378.42 364.662 390Z" fill="black"/>
<path d="M358.662 390C363.062 388.8 364.495 389.5 364.662 390C365.462 377.6 366.662 374.167 367.162 374C358.762 380 357.995 387.167 358.662 390Z" stroke="black"/>
<circle cx="228.162" cy="460.5" r="5.5" fill="#BEC2C4"/>
<circle cx="228.162" cy="460.5" r="1.5" fill="black"/>
<circle cx="99.1621" cy="405.5" r="5.5" fill="#BEC2C4"/>
<circle cx="99.1621" cy="405.5" r="1.5" fill="black"/>
<path d="M96.0619 552.32C90.3019 552.32 84.5419 552.107 78.7819 551.68L78.3819 543.84L84.2219 542.24V511.76C84.2219 510.373 84.1152 509.467 83.9019 509.04C83.6885 508.56 83.1285 508.133 82.2219 507.76L78.0619 505.44L78.5419 498.8C87.1819 497.68 94.5952 497.12 100.782 497.12C108.355 497.12 113.902 498.24 117.422 500.48C120.942 502.72 122.702 506.267 122.702 511.12C122.702 513.52 122.329 515.653 121.582 517.52C120.835 519.333 119.689 520.987 118.142 522.48C123.475 524.88 126.142 528.773 126.142 534.16C126.142 538.96 124.809 542.827 122.142 545.76C119.475 548.693 115.555 550.613 110.382 551.52C108.462 552.053 103.689 552.32 96.0619 552.32ZM107.822 519.92C108.355 518.533 108.622 516.213 108.622 512.96C108.622 510.72 108.089 509.067 107.022 508C106.009 506.933 104.435 506.347 102.302 506.24C100.915 506.24 99.5285 506.293 98.1419 506.4V519.76C99.0485 519.707 100.222 519.68 101.662 519.68C103.849 519.68 105.902 519.76 107.822 519.92ZM104.462 542.4C107.502 542.4 109.662 542.133 110.942 541.6C111.475 539.467 111.742 537.573 111.742 535.92C111.742 533.253 111.049 531.36 109.662 530.24C108.275 529.12 105.929 528.56 102.622 528.56C101.929 528.56 101.049 528.613 99.9819 528.72L98.1419 528.8V541.84C100.009 542.213 102.115 542.4 104.462 542.4ZM142.249 544.88L144.729 543.36L163.449 498L177.049 496.8L193.049 540C193.582 541.387 193.955 542.293 194.169 542.72C194.382 543.147 194.782 543.733 195.369 544.48L196.809 546.32L196.329 552H173.849L173.049 544.4L178.729 542.96L176.169 534.88L159.929 535.12L158.169 540.16C158.009 540.64 157.929 541.04 157.929 541.36C157.929 541.733 157.982 542.027 158.089 542.24C158.249 542.4 158.489 542.533 158.809 542.64L164.329 544.96L163.529 552H142.569L142.249 544.88ZM168.409 510.48L163.129 525.84L173.449 526.32L168.409 510.48ZM214.554 543.84L220.394 542.24V511.76C220.394 510.373 220.287 509.467 220.074 509.04C219.86 508.56 219.3 508.133 218.394 507.76L214.234 505.44L214.714 498.88C222.714 497.707 230.42 497.12 237.834 497.12C243.594 497.12 248.234 497.707 251.754 498.88C255.274 500 257.834 501.787 259.434 504.24C261.087 506.64 261.914 509.84 261.914 513.84C261.914 517.147 261.06 520.053 259.354 522.56C257.647 525.013 255.22 526.907 252.074 528.24L264.874 548.88L264.794 552H250.234L238.394 530.64L234.874 530.56V539.52C234.874 540.8 234.954 541.627 235.114 542C235.327 542.32 235.807 542.693 236.554 543.12L239.994 545.12L239.674 552H214.954L214.554 543.84ZM239.994 521.6C242.82 521.6 244.9 521.333 246.234 520.8C246.767 518.88 247.034 516.587 247.034 513.92C247.034 511.253 246.447 509.36 245.274 508.24C244.154 507.12 242.26 506.56 239.594 506.56C238.1 506.56 236.58 506.64 235.034 506.8V521.12C236.42 521.44 238.074 521.6 239.994 521.6ZM302.624 552.32C296.864 552.32 291.104 552.107 285.344 551.68L284.944 543.84L290.784 542.24V511.76C290.784 510.373 290.678 509.467 290.464 509.04C290.251 508.56 289.691 508.133 288.784 507.76L284.624 505.44L285.104 498.8C293.744 497.68 301.158 497.12 307.344 497.12C314.918 497.12 320.464 498.24 323.984 500.48C327.504 502.72 329.264 506.267 329.264 511.12C329.264 513.52 328.891 515.653 328.144 517.52C327.398 519.333 326.251 520.987 324.704 522.48C330.038 524.88 332.704 528.773 332.704 534.16C332.704 538.96 331.371 542.827 328.704 545.76C326.038 548.693 322.118 550.613 316.944 551.52C315.024 552.053 310.251 552.32 302.624 552.32ZM314.384 519.92C314.918 518.533 315.184 516.213 315.184 512.96C315.184 510.72 314.651 509.067 313.584 508C312.571 506.933 310.998 506.347 308.864 506.24C307.478 506.24 306.091 506.293 304.704 506.4V519.76C305.611 519.707 306.784 519.68 308.224 519.68C310.411 519.68 312.464 519.76 314.384 519.92ZM311.024 542.4C314.064 542.4 316.224 542.133 317.504 541.6C318.038 539.467 318.304 537.573 318.304 535.92C318.304 533.253 317.611 531.36 316.224 530.24C314.838 529.12 312.491 528.56 309.184 528.56C308.491 528.56 307.611 528.613 306.544 528.72L304.704 528.8V541.84C306.571 542.213 308.678 542.4 311.024 542.4ZM352.504 543.84L358.344 542.24V511.6C358.344 510.213 358.237 509.307 358.024 508.88C357.81 508.4 357.25 507.973 356.344 507.6L352.344 505.28L352.584 498.08H396.024C396.397 503.68 396.584 509.147 396.584 514.48L390.664 514.88L384.984 507.84L372.904 507.52V520.56L389.944 519.12V531.44L372.904 529.6V542.48L386.184 542.24L392.344 535.2L398.264 535.6C398.05 541.2 397.65 546.667 397.064 552H352.904L352.504 543.84ZM419.632 543.84L425.472 542.24V511.76C425.472 510.373 425.365 509.467 425.152 509.04C424.939 508.56 424.379 508.133 423.472 507.76L419.312 505.44L419.792 498.88C427.792 497.707 435.499 497.12 442.912 497.12C448.672 497.12 453.312 497.707 456.832 498.88C460.352 500 462.912 501.787 464.512 504.24C466.165 506.64 466.992 509.84 466.992 513.84C466.992 517.147 466.139 520.053 464.432 522.56C462.725 525.013 460.299 526.907 457.152 528.24L469.952 548.88L469.872 552H455.312L443.472 530.64L439.952 530.56V539.52C439.952 540.8 440.032 541.627 440.192 542C440.405 542.32 440.885 542.693 441.632 543.12L445.072 545.12L444.752 552H420.032L419.632 543.84ZM445.072 521.6C447.899 521.6 449.979 521.333 451.312 520.8C451.845 518.88 452.112 516.587 452.112 513.92C452.112 511.253 451.525 509.36 450.352 508.24C449.232 507.12 447.339 506.56 444.672 506.56C443.179 506.56 441.659 506.64 440.112 506.8V521.12C441.499 521.44 443.152 521.6 445.072 521.6Z" fill="#002C85"/>
<path d="M78.7819 551.68L77.7832 551.731L77.8281 552.612L78.708 552.677L78.7819 551.68ZM78.3819 543.84L78.1176 542.876L77.3422 543.088L77.3832 543.891L78.3819 543.84ZM84.2219 542.24L84.4861 543.204L85.2219 543.003V542.24H84.2219ZM83.9019 509.04L82.9881 509.446L82.9973 509.467L83.0074 509.487L83.9019 509.04ZM82.2219 507.76L81.7348 508.633L81.7864 508.662L81.8411 508.685L82.2219 507.76ZM78.0619 505.44L77.0645 505.368L77.0186 506.003L77.5748 506.313L78.0619 505.44ZM78.5419 498.8L78.4133 497.808L77.6034 497.913L77.5445 498.728L78.5419 498.8ZM117.422 500.48L117.959 499.636L117.959 499.636L117.422 500.48ZM121.582 517.52L122.507 517.901L122.51 517.891L121.582 517.52ZM118.142 522.48L117.447 521.761L116.385 522.786L117.732 523.392L118.142 522.48ZM122.142 545.76L122.882 546.433L122.882 546.433L122.142 545.76ZM110.382 551.52L110.209 550.535L110.161 550.543L110.114 550.556L110.382 551.52ZM107.822 519.92L107.739 520.917L108.486 520.979L108.755 520.279L107.822 519.92ZM107.022 508L106.297 508.689L106.306 508.698L106.315 508.707L107.022 508ZM102.302 506.24L102.352 505.241L102.327 505.24H102.302V506.24ZM98.1419 506.4L98.0652 505.403L97.1419 505.474V506.4H98.1419ZM98.1419 519.76H97.1419V520.821L98.2006 520.758L98.1419 519.76ZM110.942 541.6L111.326 542.523L111.79 542.33L111.912 541.843L110.942 541.6ZM109.662 530.24L110.29 529.462L110.29 529.462L109.662 530.24ZM99.9819 528.72L100.025 529.719L100.053 529.718L100.081 529.715L99.9819 528.72ZM98.1419 528.8L98.0984 527.801L97.1419 527.843V528.8H98.1419ZM98.1419 541.84H97.1419V542.66L97.9458 542.821L98.1419 541.84ZM96.0619 551.32C90.3266 551.32 84.5912 551.108 78.8557 550.683L78.708 552.677C84.4925 553.106 90.2772 553.32 96.0619 553.32V551.32ZM79.7806 551.629L79.3806 543.789L77.3832 543.891L77.7832 551.731L79.7806 551.629ZM78.6461 544.804L84.4861 543.204L83.9576 541.276L78.1176 542.876L78.6461 544.804ZM85.2219 542.24V511.76H83.2219V542.24H85.2219ZM85.2219 511.76C85.2219 511.045 85.1946 510.43 85.135 509.923C85.0782 509.44 84.9827 508.966 84.7963 508.593L83.0074 509.487C83.0343 509.541 83.0989 509.733 83.1487 510.157C83.1958 510.557 83.2219 511.088 83.2219 511.76H85.2219ZM84.8157 508.634C84.4384 507.785 83.5633 507.231 82.6026 506.835L81.8411 508.685C82.6938 509.036 82.9387 509.335 82.9881 509.446L84.8157 508.634ZM82.7089 506.887L78.5489 504.567L77.5748 506.313L81.7348 508.633L82.7089 506.887ZM79.0593 505.512L79.5393 498.872L77.5445 498.728L77.0645 505.368L79.0593 505.512ZM78.6704 499.792C87.2835 498.675 94.6516 498.12 100.782 498.12V496.12C94.5388 496.12 87.0802 496.685 78.4133 497.808L78.6704 499.792ZM100.782 498.12C108.299 498.12 113.61 499.239 116.885 501.324L117.959 499.636C114.194 497.241 108.412 496.12 100.782 496.12V498.12ZM116.885 501.324C120.065 503.348 121.702 506.543 121.702 511.12H123.702C123.702 505.99 121.818 502.092 117.959 499.636L116.885 501.324ZM121.702 511.12C121.702 513.417 121.345 515.421 120.653 517.149L122.51 517.891C123.312 515.886 123.702 513.623 123.702 511.12H121.702ZM120.657 517.139C119.968 518.813 118.904 520.354 117.447 521.761L118.836 523.199C120.473 521.62 121.703 519.853 122.507 517.901L120.657 517.139ZM117.732 523.392C120.271 524.535 122.109 526.002 123.317 527.765C124.521 529.523 125.142 531.639 125.142 534.16H127.142C127.142 531.294 126.43 528.771 124.967 526.635C123.508 524.504 121.346 522.825 118.552 521.568L117.732 523.392ZM125.142 534.16C125.142 538.766 123.868 542.375 121.402 545.087L122.882 546.433C125.75 543.278 127.142 539.154 127.142 534.16H125.142ZM121.402 545.087C118.927 547.81 115.235 549.654 110.209 550.535L110.555 552.505C115.875 551.572 120.024 549.576 122.882 546.433L121.402 545.087ZM110.114 550.556C109.269 550.791 107.693 550.988 105.306 551.122C102.946 551.253 99.8661 551.32 96.0619 551.32V553.32C99.8843 553.32 103.005 553.253 105.418 553.118C107.804 552.985 109.575 552.782 110.65 552.484L110.114 550.556ZM108.755 520.279C109.36 518.707 109.622 516.225 109.622 512.96H107.622C107.622 516.202 107.35 518.36 106.889 519.561L108.755 520.279ZM109.622 512.96C109.622 510.582 109.057 508.621 107.729 507.293L106.315 508.707C107.12 509.512 107.622 510.858 107.622 512.96H109.622ZM107.747 507.311C106.491 505.989 104.626 505.355 102.352 505.241L102.252 507.239C104.244 507.338 105.526 507.878 106.297 508.689L107.747 507.311ZM102.302 505.24C100.89 505.24 99.4773 505.294 98.0652 505.403L98.2186 507.397C99.5798 507.292 100.941 507.24 102.302 507.24V505.24ZM97.1419 506.4V519.76H99.1419V506.4H97.1419ZM98.2006 520.758C99.0799 520.707 100.232 520.68 101.662 520.68V518.68C100.212 518.68 99.0172 518.707 98.0832 518.762L98.2006 520.758ZM101.662 520.68C103.824 520.68 105.85 520.759 107.739 520.917L107.905 518.923C105.954 518.761 103.873 518.68 101.662 518.68V520.68ZM104.462 543.4C107.514 543.4 109.849 543.139 111.326 542.523L110.557 540.677C109.475 541.128 107.49 541.4 104.462 541.4V543.4ZM111.912 541.843C112.459 539.654 112.742 537.677 112.742 535.92H110.742C110.742 537.47 110.491 539.279 109.972 541.357L111.912 541.843ZM112.742 535.92C112.742 533.105 112.01 530.851 110.29 529.462L109.034 531.018C110.087 531.869 110.742 533.402 110.742 535.92H112.742ZM110.29 529.462C108.627 528.119 105.986 527.56 102.622 527.56V529.56C105.871 529.56 107.923 530.121 109.034 531.018L110.29 529.462ZM102.622 527.56C101.883 527.56 100.966 527.617 99.8824 527.725L100.081 529.715C101.131 529.61 101.975 529.56 102.622 529.56V527.56ZM99.9384 527.721L98.0984 527.801L98.1853 529.799L100.025 529.719L99.9384 527.721ZM97.1419 528.8V541.84H99.1419V528.8H97.1419ZM97.9458 542.821C99.8899 543.209 102.064 543.4 104.462 543.4V541.4C102.167 541.4 100.127 541.217 98.338 540.859L97.9458 542.821ZM142.249 544.88L141.726 544.027L141.223 544.336L141.25 544.925L142.249 544.88ZM144.729 543.36L145.251 544.213L145.529 544.042L145.653 543.741L144.729 543.36ZM163.449 498L163.361 497.004L162.756 497.057L162.524 497.619L163.449 498ZM177.049 496.8L177.987 496.453L177.721 495.737L176.961 495.804L177.049 496.8ZM193.049 540L192.111 540.347L192.115 540.359L193.049 540ZM195.369 544.48L196.156 543.864L196.155 543.862L195.369 544.48ZM196.809 546.32L197.805 546.404L197.838 546.013L197.596 545.704L196.809 546.32ZM196.329 552V553H197.248L197.325 552.084L196.329 552ZM173.849 552L172.854 552.105L172.948 553H173.849V552ZM173.049 544.4L172.803 543.431L171.964 543.643L172.054 544.505L173.049 544.4ZM178.729 542.96L178.974 543.929L180.002 543.669L179.682 542.658L178.729 542.96ZM176.169 534.88L177.122 534.578L176.897 533.869L176.154 533.88L176.169 534.88ZM159.929 535.12L159.914 534.12L159.215 534.13L158.985 534.79L159.929 535.12ZM158.169 540.16L157.225 539.83L157.222 539.837L157.22 539.844L158.169 540.16ZM158.089 542.24L157.194 542.687L157.267 542.832L157.382 542.947L158.089 542.24ZM158.809 542.64L159.196 541.718L159.161 541.703L159.125 541.691L158.809 542.64ZM164.329 544.96L165.322 545.073L165.407 544.328L164.716 544.038L164.329 544.96ZM163.529 552V553H164.422L164.522 552.113L163.529 552ZM142.569 552L141.57 552.045L141.613 553H142.569V552ZM168.409 510.48L169.362 510.177L168.445 507.297L167.463 510.155L168.409 510.48ZM163.129 525.84L162.183 525.515L161.749 526.777L163.082 526.839L163.129 525.84ZM173.449 526.32L173.402 527.319L174.837 527.386L174.402 526.017L173.449 526.32ZM142.771 545.733L145.251 544.213L144.206 542.507L141.726 544.027L142.771 545.733ZM145.653 543.741L164.373 498.381L162.524 497.619L143.804 542.979L145.653 543.741ZM163.537 498.996L177.137 497.796L176.961 495.804L163.361 497.004L163.537 498.996ZM176.111 497.147L192.111 540.347L193.987 539.653L177.987 496.453L176.111 497.147ZM192.115 540.359C192.645 541.737 193.036 542.69 193.274 543.167L195.063 542.273C194.875 541.897 194.519 541.037 193.982 539.641L192.115 540.359ZM193.274 543.167C193.535 543.688 193.986 544.339 194.582 545.098L196.155 543.862C195.578 543.127 195.23 542.605 195.063 542.273L193.274 543.167ZM194.581 545.096L196.021 546.936L197.596 545.704L196.156 543.864L194.581 545.096ZM195.812 546.236L195.332 551.916L197.325 552.084L197.805 546.404L195.812 546.236ZM196.329 551H173.849V553H196.329V551ZM174.843 551.895L174.043 544.295L172.054 544.505L172.854 552.105L174.843 551.895ZM173.294 545.369L178.974 543.929L178.483 541.991L172.803 543.431L173.294 545.369ZM179.682 542.658L177.122 534.578L175.215 535.182L177.775 543.262L179.682 542.658ZM176.154 533.88L159.914 534.12L159.944 536.12L176.184 535.88L176.154 533.88ZM158.985 534.79L157.225 539.83L159.113 540.49L160.873 535.45L158.985 534.79ZM157.22 539.844C157.043 540.374 156.929 540.889 156.929 541.36H158.929C158.929 541.191 158.974 540.906 159.117 540.476L157.22 539.844ZM156.929 541.36C156.929 541.81 156.99 542.278 157.194 542.687L158.983 541.793C158.974 541.775 158.929 541.657 158.929 541.36H156.929ZM157.382 542.947C157.692 543.257 158.092 543.455 158.493 543.589L159.125 541.691C158.886 541.612 158.806 541.543 158.796 541.533L157.382 542.947ZM158.421 543.562L163.941 545.882L164.716 544.038L159.196 541.718L158.421 543.562ZM163.335 544.847L162.535 551.887L164.522 552.113L165.322 545.073L163.335 544.847ZM163.529 551H142.569V553H163.529V551ZM143.568 551.955L143.248 544.835L141.25 544.925L141.57 552.045L143.568 551.955ZM167.463 510.155L162.183 525.515L164.074 526.165L169.354 510.805L167.463 510.155ZM163.082 526.839L173.402 527.319L173.495 525.321L163.175 524.841L163.082 526.839ZM174.402 526.017L169.362 510.177L167.456 510.783L172.496 526.623L174.402 526.017ZM214.554 543.84L214.29 542.876L213.516 543.088L213.555 543.889L214.554 543.84ZM220.394 542.24L220.658 543.204L221.394 543.003V542.24H220.394ZM220.074 509.04L219.16 509.446L219.169 509.467L219.179 509.487L220.074 509.04ZM218.394 507.76L217.907 508.633L217.958 508.662L218.013 508.685L218.394 507.76ZM214.234 505.44L213.236 505.367L213.19 506.003L213.747 506.313L214.234 505.44ZM214.714 498.88L214.569 497.891L213.775 498.007L213.716 498.807L214.714 498.88ZM251.754 498.88L251.437 499.829L251.451 499.833L251.754 498.88ZM259.434 504.24L258.596 504.786L258.603 504.797L258.61 504.807L259.434 504.24ZM259.354 522.56L260.175 523.131L260.18 523.123L259.354 522.56ZM252.074 528.24L251.684 527.319L250.609 527.775L251.224 528.767L252.074 528.24ZM264.874 548.88L265.873 548.906L265.881 548.607L265.724 548.353L264.874 548.88ZM264.794 552V553H265.768L265.793 552.026L264.794 552ZM250.234 552L249.359 552.485L249.645 553H250.234V552ZM238.394 530.64L239.268 530.155L238.99 529.653L238.416 529.64L238.394 530.64ZM234.874 530.56L234.896 529.56L233.874 529.537V530.56H234.874ZM235.114 542L234.195 542.394L234.231 542.478L234.282 542.555L235.114 542ZM236.554 543.12L237.056 542.255L237.05 542.252L236.554 543.12ZM239.994 545.12L240.993 545.166L241.021 544.56L240.496 544.255L239.994 545.12ZM239.674 552V553H240.628L240.673 552.046L239.674 552ZM214.954 552L213.955 552.049L214.002 553H214.954V552ZM246.234 520.8L246.605 521.728L247.065 521.545L247.197 521.068L246.234 520.8ZM245.274 508.24L244.567 508.947L244.575 508.955L244.583 508.963L245.274 508.24ZM235.034 506.8L234.931 505.805L234.034 505.898V506.8H235.034ZM235.034 521.12H234.034V521.916L234.809 522.094L235.034 521.12ZM214.818 544.804L220.658 543.204L220.13 541.276L214.29 542.876L214.818 544.804ZM221.394 542.24V511.76H219.394V542.24H221.394ZM221.394 511.76C221.394 511.045 221.366 510.43 221.307 509.923C221.25 509.44 221.155 508.966 220.968 508.593L219.179 509.487C219.206 509.541 219.271 509.733 219.321 510.157C219.368 510.557 219.394 511.088 219.394 511.76H221.394ZM220.988 508.634C220.61 507.785 219.735 507.231 218.775 506.835L218.013 508.685C218.866 509.036 219.111 509.335 219.16 509.446L220.988 508.634ZM218.881 506.887L214.721 504.567L213.747 506.313L217.907 508.633L218.881 506.887ZM215.231 505.513L215.711 498.953L213.716 498.807L213.236 505.367L215.231 505.513ZM214.859 499.869C222.815 498.702 230.473 498.12 237.834 498.12V496.12C230.368 496.12 222.612 496.711 214.569 497.891L214.859 499.869ZM237.834 498.12C243.539 498.12 248.06 498.703 251.438 499.829L252.07 497.931C248.408 496.711 243.649 496.12 237.834 496.12V498.12ZM251.451 499.833C254.81 500.902 257.152 502.572 258.596 504.786L260.271 503.694C258.515 501.001 255.738 499.098 252.057 497.927L251.451 499.833ZM258.61 504.807C260.113 506.989 260.914 509.969 260.914 513.84H262.914C262.914 509.711 262.061 506.291 260.257 503.673L258.61 504.807ZM260.914 513.84C260.914 516.965 260.111 519.672 258.527 521.997L260.18 523.123C262.01 520.435 262.914 517.328 262.914 513.84H260.914ZM258.533 521.989C256.949 524.266 254.682 526.049 251.684 527.319L252.464 529.161C255.759 527.765 258.345 525.761 260.175 523.131L258.533 521.989ZM251.224 528.767L264.024 549.407L265.724 548.353L252.924 527.713L251.224 528.767ZM263.874 548.854L263.794 551.974L265.793 552.026L265.873 548.906L263.874 548.854ZM264.794 551H250.234V553H264.794V551ZM251.108 551.515L239.268 530.155L237.519 531.125L249.359 552.485L251.108 551.515ZM238.416 529.64L234.896 529.56L234.851 531.56L238.371 531.64L238.416 529.64ZM233.874 530.56V539.52H235.874V530.56H233.874ZM233.874 539.52C233.874 540.177 233.894 540.739 233.938 541.196C233.98 541.628 234.051 542.058 234.195 542.394L236.033 541.606C236.033 541.606 236.032 541.603 236.029 541.595C236.026 541.588 236.023 541.577 236.019 541.562C236.01 541.533 236 541.492 235.989 541.439C235.968 541.331 235.947 541.188 235.929 541.004C235.893 540.635 235.874 540.143 235.874 539.52H233.874ZM234.282 542.555C234.636 543.087 235.303 543.557 236.058 543.988L237.05 542.252C236.311 541.829 236.018 541.553 235.946 541.445L234.282 542.555ZM236.051 543.985L239.491 545.985L240.496 544.255L237.056 542.255L236.051 543.985ZM238.995 545.074L238.675 551.954L240.673 552.046L240.993 545.166L238.995 545.074ZM239.674 551H214.954V553H239.674V551ZM215.953 551.951L215.553 543.791L213.555 543.889L213.955 552.049L215.953 551.951ZM239.994 522.6C242.849 522.6 245.088 522.336 246.605 521.728L245.862 519.872C244.713 520.331 242.792 520.6 239.994 520.6V522.6ZM247.197 521.068C247.761 519.037 248.034 516.649 248.034 513.92H246.034C246.034 516.525 245.773 518.723 245.27 520.532L247.197 521.068ZM248.034 513.92C248.034 511.149 247.431 508.917 245.964 507.517L244.583 508.963C245.463 509.803 246.034 511.358 246.034 513.92H248.034ZM245.981 507.533C244.58 506.132 242.355 505.56 239.594 505.56V507.56C242.166 507.56 243.728 508.108 244.567 508.947L245.981 507.533ZM239.594 505.56C238.065 505.56 236.51 505.642 234.931 505.805L235.137 507.795C236.651 507.638 238.136 507.56 239.594 507.56V505.56ZM234.034 506.8V521.12H236.034V506.8H234.034ZM234.809 522.094C236.29 522.436 238.022 522.6 239.994 522.6V520.6C238.125 520.6 236.551 520.444 235.259 520.146L234.809 522.094ZM285.344 551.68L284.346 551.731L284.391 552.612L285.271 552.677L285.344 551.68ZM284.944 543.84L284.68 542.876L283.905 543.088L283.946 543.891L284.944 543.84ZM290.784 542.24L291.049 543.204L291.784 543.003V542.24H290.784ZM290.464 509.04L289.551 509.446L289.56 509.467L289.57 509.487L290.464 509.04ZM288.784 507.76L288.297 508.633L288.349 508.662L288.404 508.685L288.784 507.76ZM284.624 505.44L283.627 505.368L283.581 506.003L284.137 506.313L284.624 505.44ZM285.104 498.8L284.976 497.808L284.166 497.913L284.107 498.728L285.104 498.8ZM323.984 500.48L324.521 499.636L324.521 499.636L323.984 500.48ZM328.144 517.52L329.069 517.901L329.073 517.891L328.144 517.52ZM324.704 522.48L324.01 521.761L322.948 522.786L324.294 523.392L324.704 522.48ZM328.704 545.76L329.444 546.433L329.444 546.433L328.704 545.76ZM316.944 551.52L316.772 550.535L316.724 550.543L316.677 550.556L316.944 551.52ZM314.384 519.92L314.301 520.917L315.049 520.979L315.318 520.279L314.384 519.92ZM313.584 508L312.859 508.689L312.868 508.698L312.877 508.707L313.584 508ZM308.864 506.24L308.914 505.241L308.889 505.24H308.864V506.24ZM304.704 506.4L304.628 505.403L303.704 505.474V506.4H304.704ZM304.704 519.76H303.704V520.821L304.763 520.758L304.704 519.76ZM317.504 541.6L317.889 542.523L318.353 542.33L318.475 541.843L317.504 541.6ZM316.224 530.24L316.853 529.462L316.853 529.462L316.224 530.24ZM306.544 528.72L306.588 529.719L306.616 529.718L306.644 529.715L306.544 528.72ZM304.704 528.8L304.661 527.801L303.704 527.843V528.8H304.704ZM304.704 541.84H303.704V542.66L304.508 542.821L304.704 541.84ZM302.624 551.32C296.889 551.32 291.154 551.108 285.418 550.683L285.271 552.677C291.055 553.106 296.84 553.32 302.624 553.32V551.32ZM286.343 551.629L285.943 543.789L283.946 543.891L284.346 551.731L286.343 551.629ZM285.209 544.804L291.049 543.204L290.52 541.276L284.68 542.876L285.209 544.804ZM291.784 542.24V511.76H289.784V542.24H291.784ZM291.784 511.76C291.784 511.045 291.757 510.43 291.698 509.923C291.641 509.44 291.545 508.966 291.359 508.593L289.57 509.487C289.597 509.541 289.661 509.733 289.711 510.157C289.758 510.557 289.784 511.088 289.784 511.76H291.784ZM291.378 508.634C291.001 507.785 290.126 507.231 289.165 506.835L288.404 508.685C289.256 509.036 289.501 509.335 289.551 509.446L291.378 508.634ZM289.271 506.887L285.111 504.567L284.137 506.313L288.297 508.633L289.271 506.887ZM285.622 505.512L286.102 498.872L284.107 498.728L283.627 505.368L285.622 505.512ZM285.233 499.792C293.846 498.675 301.214 498.12 307.344 498.12V496.12C301.101 496.12 293.643 496.685 284.976 497.808L285.233 499.792ZM307.344 498.12C314.861 498.12 320.172 499.239 323.448 501.324L324.521 499.636C320.757 497.241 314.974 496.12 307.344 496.12V498.12ZM323.448 501.324C326.628 503.348 328.264 506.543 328.264 511.12H330.264C330.264 505.99 328.381 502.092 324.521 499.636L323.448 501.324ZM328.264 511.12C328.264 513.417 327.907 515.421 327.216 517.149L329.073 517.891C329.875 515.886 330.264 513.623 330.264 511.12H328.264ZM327.22 517.139C326.53 518.813 325.467 520.354 324.01 521.761L325.399 523.199C327.035 521.62 328.265 519.853 329.069 517.901L327.22 517.139ZM324.294 523.392C326.833 524.535 328.672 526.002 329.879 527.765C331.083 529.523 331.704 531.639 331.704 534.16H333.704C333.704 531.294 332.992 528.771 331.529 526.635C330.07 524.504 327.909 522.825 325.115 521.568L324.294 523.392ZM331.704 534.16C331.704 538.766 330.43 542.375 327.964 545.087L329.444 546.433C332.312 543.278 333.704 539.154 333.704 534.16H331.704ZM327.964 545.087C325.489 547.81 321.798 549.654 316.772 550.535L317.117 552.505C322.438 551.572 326.586 549.576 329.444 546.433L327.964 545.087ZM316.677 550.556C315.831 550.791 314.255 550.988 311.869 551.122C309.508 551.253 306.429 551.32 302.624 551.32V553.32C306.447 553.32 309.567 553.253 311.98 553.118C314.367 552.985 316.137 552.782 317.212 552.484L316.677 550.556ZM315.318 520.279C315.922 518.707 316.184 516.225 316.184 512.96H314.184C314.184 516.202 313.913 518.36 313.451 519.561L315.318 520.279ZM316.184 512.96C316.184 510.582 315.62 508.621 314.291 507.293L312.877 508.707C313.682 509.512 314.184 510.858 314.184 512.96H316.184ZM314.309 507.311C313.053 505.989 311.189 505.355 308.914 505.241L308.814 507.239C310.806 507.338 312.089 507.878 312.859 508.689L314.309 507.311ZM308.864 505.24C307.452 505.24 306.04 505.294 304.628 505.403L304.781 507.397C306.142 507.292 307.503 507.24 308.864 507.24V505.24ZM303.704 506.4V519.76H305.704V506.4H303.704ZM304.763 520.758C305.642 520.707 306.794 520.68 308.224 520.68V518.68C306.775 518.68 305.58 518.707 304.646 518.762L304.763 520.758ZM308.224 520.68C310.387 520.68 312.412 520.759 314.301 520.917L314.467 518.923C312.516 518.761 310.435 518.68 308.224 518.68V520.68ZM311.024 543.4C314.076 543.4 316.411 543.139 317.889 542.523L317.12 540.677C316.038 541.128 314.053 541.4 311.024 541.4V543.4ZM318.475 541.843C319.022 539.654 319.304 537.677 319.304 535.92H317.304C317.304 537.47 317.054 539.279 316.534 541.357L318.475 541.843ZM319.304 535.92C319.304 533.105 318.572 530.851 316.853 529.462L315.596 531.018C316.65 531.869 317.304 533.402 317.304 535.92H319.304ZM316.853 529.462C315.19 528.119 312.549 527.56 309.184 527.56V529.56C312.433 529.56 314.486 530.121 315.596 531.018L316.853 529.462ZM309.184 527.56C308.445 527.56 307.529 527.617 306.445 527.725L306.644 529.715C307.693 529.61 308.537 529.56 309.184 529.56V527.56ZM306.501 527.721L304.661 527.801L304.748 529.799L306.588 529.719L306.501 527.721ZM303.704 528.8V541.84H305.704V528.8H303.704ZM304.508 542.821C306.452 543.209 308.626 543.4 311.024 543.4V541.4C308.729 541.4 306.69 541.217 304.9 540.859L304.508 542.821ZM352.504 543.84L352.24 542.876L351.466 543.088L351.505 543.889L352.504 543.84ZM358.344 542.24L358.608 543.204L359.344 543.003V542.24H358.344ZM358.024 508.88L357.11 509.286L357.119 509.307L357.129 509.327L358.024 508.88ZM356.344 507.6L355.842 508.465L355.901 508.499L355.963 508.525L356.344 507.6ZM352.344 505.28L351.344 505.247L351.324 505.845L351.842 506.145L352.344 505.28ZM352.584 498.08V497.08H351.617L351.584 498.047L352.584 498.08ZM396.024 498.08L397.022 498.013L396.959 497.08H396.024V498.08ZM396.584 514.48L396.651 515.478L397.584 515.415V514.48H396.584ZM390.664 514.88L389.885 515.508L390.212 515.913L390.731 515.878L390.664 514.88ZM384.984 507.84L385.762 507.212L385.472 506.853L385.01 506.84L384.984 507.84ZM372.904 507.52L372.93 506.52L371.904 506.493V507.52H372.904ZM372.904 520.56H371.904V521.648L372.988 521.556L372.904 520.56ZM389.944 519.12H390.944V518.032L389.86 518.124L389.944 519.12ZM389.944 531.44L389.836 532.434L390.944 532.554V531.44H389.944ZM372.904 529.6L373.011 528.606L371.904 528.486V529.6H372.904ZM372.904 542.48H371.904V543.498L372.922 543.48L372.904 542.48ZM386.184 542.24L386.202 543.24L386.645 543.232L386.936 542.899L386.184 542.24ZM392.344 535.2L392.411 534.202L391.917 534.169L391.591 534.541L392.344 535.2ZM398.264 535.6L399.263 535.638L399.3 534.668L398.331 534.602L398.264 535.6ZM397.064 552V553H397.96L398.058 552.109L397.064 552ZM352.904 552L351.905 552.049L351.952 553H352.904V552ZM352.768 544.804L358.608 543.204L358.08 541.276L352.24 542.876L352.768 544.804ZM359.344 542.24V511.6H357.344V542.24H359.344ZM359.344 511.6C359.344 510.885 359.316 510.27 359.257 509.763C359.2 509.28 359.105 508.806 358.918 508.433L357.129 509.327C357.156 509.381 357.221 509.573 357.271 509.997C357.318 510.397 357.344 510.928 357.344 511.6H359.344ZM358.938 508.474C358.56 507.625 357.685 507.071 356.724 506.675L355.963 508.525C356.816 508.876 357.061 509.175 357.11 509.286L358.938 508.474ZM356.845 506.735L352.845 504.415L351.842 506.145L355.842 508.465L356.845 506.735ZM353.343 505.313L353.583 498.113L351.584 498.047L351.344 505.247L353.343 505.313ZM352.584 499.08H396.024V497.08H352.584V499.08ZM395.026 498.147C395.398 503.726 395.584 509.17 395.584 514.48H397.584C397.584 509.123 397.396 503.634 397.022 498.013L395.026 498.147ZM396.516 513.482L390.596 513.882L390.731 515.878L396.651 515.478L396.516 513.482ZM391.442 514.252L385.762 507.212L384.205 508.468L389.885 515.508L391.442 514.252ZM385.01 506.84L372.93 506.52L372.877 508.52L384.957 508.84L385.01 506.84ZM371.904 507.52V520.56H373.904V507.52H371.904ZM372.988 521.556L390.028 520.116L389.86 518.124L372.82 519.564L372.988 521.556ZM388.944 519.12V531.44H390.944V519.12H388.944ZM390.051 530.446L373.011 528.606L372.796 530.594L389.836 532.434L390.051 530.446ZM371.904 529.6V542.48H373.904V529.6H371.904ZM372.922 543.48L386.202 543.24L386.166 541.24L372.886 541.48L372.922 543.48ZM386.936 542.899L393.096 535.859L391.591 534.541L385.431 541.581L386.936 542.899ZM392.276 536.198L398.196 536.598L398.331 534.602L392.411 534.202L392.276 536.198ZM397.264 535.562C397.052 541.139 396.654 546.582 396.07 551.891L398.058 552.109C398.647 546.751 399.049 541.261 399.263 535.638L397.264 535.562ZM397.064 551H352.904V553H397.064V551ZM353.903 551.951L353.503 543.791L351.505 543.889L351.905 552.049L353.903 551.951ZM419.632 543.84L419.368 542.876L418.594 543.088L418.633 543.889L419.632 543.84ZM425.472 542.24L425.736 543.204L426.472 543.003V542.24H425.472ZM425.152 509.04L424.238 509.446L424.247 509.467L424.257 509.487L425.152 509.04ZM423.472 507.76L422.985 508.633L423.036 508.662L423.091 508.685L423.472 507.76ZM419.312 505.44L418.315 505.367L418.268 506.003L418.825 506.313L419.312 505.44ZM419.792 498.88L419.647 497.891L418.853 498.007L418.795 498.807L419.792 498.88ZM456.832 498.88L456.516 499.829L456.529 499.833L456.832 498.88ZM464.512 504.24L463.674 504.786L463.681 504.797L463.688 504.807L464.512 504.24ZM464.432 522.56L465.253 523.131L465.258 523.123L464.432 522.56ZM457.152 528.24L456.762 527.319L455.687 527.775L456.302 528.767L457.152 528.24ZM469.952 548.88L470.952 548.906L470.959 548.607L470.802 548.353L469.952 548.88ZM469.872 552V553H470.847L470.872 552.026L469.872 552ZM455.312 552L454.437 552.485L454.723 553H455.312V552ZM443.472 530.64L444.346 530.155L444.068 529.653L443.495 529.64L443.472 530.64ZM439.952 530.56L439.975 529.56L438.952 529.537V530.56H439.952ZM440.192 542L439.273 542.394L439.309 542.478L439.36 542.555L440.192 542ZM441.632 543.12L442.135 542.255L442.128 542.252L441.632 543.12ZM445.072 545.12L446.071 545.166L446.099 544.56L445.574 544.255L445.072 545.12ZM444.752 552V553H445.706L445.751 552.046L444.752 552ZM420.032 552L419.033 552.049L419.08 553H420.032V552ZM451.312 520.8L451.683 521.728L452.143 521.545L452.275 521.068L451.312 520.8ZM450.352 508.24L449.645 508.947L449.653 508.955L449.661 508.963L450.352 508.24ZM440.112 506.8L440.009 505.805L439.112 505.898V506.8H440.112ZM440.112 521.12H439.112V521.916L439.887 522.094L440.112 521.12ZM419.896 544.804L425.736 543.204L425.208 541.276L419.368 542.876L419.896 544.804ZM426.472 542.24V511.76H424.472V542.24H426.472ZM426.472 511.76C426.472 511.045 426.445 510.43 426.385 509.923C426.328 509.44 426.233 508.966 426.046 508.593L424.257 509.487C424.284 509.541 424.349 509.733 424.399 510.157C424.446 510.557 424.472 511.088 424.472 511.76H426.472ZM426.066 508.634C425.688 507.785 424.813 507.231 423.853 506.835L423.091 508.685C423.944 509.036 424.189 509.335 424.238 509.446L426.066 508.634ZM423.959 506.887L419.799 504.567L418.825 506.313L422.985 508.633L423.959 506.887ZM420.309 505.513L420.789 498.953L418.795 498.807L418.315 505.367L420.309 505.513ZM419.937 499.869C427.893 498.702 435.551 498.12 442.912 498.12V496.12C435.446 496.12 427.691 496.711 419.647 497.891L419.937 499.869ZM442.912 498.12C448.617 498.12 453.138 498.703 456.516 499.829L457.148 497.931C453.486 496.711 448.727 496.12 442.912 496.12V498.12ZM456.529 499.833C459.888 500.902 462.23 502.572 463.674 504.786L465.349 503.694C463.594 501.001 460.816 499.098 457.135 497.927L456.529 499.833ZM463.688 504.807C465.191 506.989 465.992 509.969 465.992 513.84H467.992C467.992 509.711 467.139 506.291 465.335 503.673L463.688 504.807ZM465.992 513.84C465.992 516.965 465.189 519.672 463.605 521.997L465.258 523.123C467.088 520.435 467.992 517.328 467.992 513.84H465.992ZM463.611 521.989C462.027 524.266 459.76 526.049 456.762 527.319L457.542 529.161C460.837 527.765 463.424 525.761 465.253 523.131L463.611 521.989ZM456.302 528.767L469.102 549.407L470.802 548.353L458.002 527.713L456.302 528.767ZM468.952 548.854L468.872 551.974L470.872 552.026L470.952 548.906L468.952 548.854ZM469.872 551H455.312V553H469.872V551ZM456.186 551.515L444.346 530.155L442.597 531.125L454.437 552.485L456.186 551.515ZM443.495 529.64L439.975 529.56L439.929 531.56L443.449 531.64L443.495 529.64ZM438.952 530.56V539.52H440.952V530.56H438.952ZM438.952 539.52C438.952 540.177 438.972 540.739 439.017 541.196C439.058 541.628 439.129 542.058 439.273 542.394L441.111 541.606C441.111 541.606 441.11 541.603 441.107 541.595C441.104 541.588 441.101 541.577 441.097 541.562C441.088 541.533 441.078 541.492 441.067 541.439C441.046 541.331 441.025 541.188 441.007 541.004C440.972 540.635 440.952 540.143 440.952 539.52H438.952ZM439.36 542.555C439.715 543.087 440.381 543.557 441.136 543.988L442.128 542.252C441.389 541.829 441.096 541.553 441.024 541.445L439.36 542.555ZM441.129 543.985L444.569 545.985L445.574 544.255L442.134 542.255L441.129 543.985ZM444.073 545.074L443.753 551.954L445.751 552.046L446.071 545.166L444.073 545.074ZM444.752 551H420.032V553H444.752V551ZM421.031 551.951L420.631 543.791L418.633 543.889L419.033 552.049L421.031 551.951ZM445.072 522.6C447.927 522.6 450.166 522.336 451.683 521.728L450.94 519.872C449.791 520.331 447.87 520.6 445.072 520.6V522.6ZM452.275 521.068C452.84 519.037 453.112 516.649 453.112 513.92H451.112C451.112 516.525 450.851 518.723 450.348 520.532L452.275 521.068ZM453.112 513.92C453.112 511.149 452.509 508.917 451.042 507.517L449.661 508.963C450.542 509.803 451.112 511.358 451.112 513.92H453.112ZM451.059 507.533C449.658 506.132 447.433 505.56 444.672 505.56V507.56C447.244 507.56 448.806 508.108 449.645 508.947L451.059 507.533ZM444.672 505.56C443.143 505.56 441.588 505.642 440.009 505.805L440.215 507.795C441.729 507.638 443.214 507.56 444.672 507.56V505.56ZM439.112 506.8V521.12H441.112V506.8H439.112ZM439.887 522.094C441.368 522.436 443.101 522.6 445.072 522.6V520.6C443.203 520.6 441.629 520.444 440.337 520.146L439.887 522.094Z" fill="black"/>
<path d="M78.1819 193.568C73.4447 197.99 68.5438 202.236 63.4791 206.307L57.132 200.166L60.7067 194.367L37.3097 169.299C36.2453 168.159 35.4616 167.495 34.9586 167.308C34.4147 167.077 33.6266 167.156 32.5944 167.545L27.3922 168.83L22.69 163.001C28.936 155.447 34.6031 149.296 39.6912 144.547C45.9197 138.734 51.3411 135.397 55.9556 134.537C60.57 133.678 64.7399 135.244 68.4654 139.235C70.3077 141.209 71.6383 143.25 72.4571 145.358C73.2349 147.423 73.561 149.663 73.4353 152.078C79.6639 149.958 84.8456 151.113 88.9805 155.543C92.6651 159.491 94.5367 163.694 94.5952 168.154C94.6537 172.613 92.9037 177.201 89.3449 181.918C88.1753 183.831 84.4543 187.714 78.1819 193.568ZM62.9828 157.895C62.357 156.345 60.7954 154.232 58.2981 151.556C56.5786 149.714 54.8709 148.764 53.1748 148.705C51.5226 148.606 49.7783 149.331 47.9419 150.881C46.8015 151.945 45.702 153.054 44.6435 154.206L54.8989 165.194C55.6036 164.454 56.5481 163.531 57.7324 162.426C59.5308 160.747 61.2809 159.237 62.9828 157.895ZM77.4755 178.962C79.9757 176.628 81.5474 174.751 82.1907 173.33C80.9918 171.166 79.7577 169.404 78.4886 168.044C76.4416 165.851 74.418 164.826 72.4179 164.97C70.4177 165.113 68.0579 166.454 65.3384 168.992C64.7682 169.524 64.0854 170.244 63.29 171.15L61.8381 172.628L71.8479 183.353C73.6697 182.227 75.5455 180.763 77.4755 178.962Z" fill="#B00000"/>
<path d="M63.4791 206.307L62.7837 207.025L63.4178 207.639L64.1055 207.086L63.4791 206.307ZM57.132 200.166L56.2807 199.641L55.8588 200.325L56.4366 200.884L57.132 200.166ZM60.7067 194.367L61.558 194.892L61.9583 194.242L61.4378 193.685L60.7067 194.367ZM34.9586 167.308L34.5677 168.228L34.5886 168.237L34.6099 168.245L34.9586 167.308ZM32.5944 167.545L32.8342 168.516L32.8916 168.502L32.947 168.481L32.5944 167.545ZM27.3922 168.83L26.6139 169.458L27.0138 169.954L27.6321 169.801L27.3922 168.83ZM22.69 163.001L21.9193 162.364L21.3989 162.993L21.9117 163.629L22.69 163.001ZM55.9556 134.537L55.7724 133.554L55.7724 133.554L55.9556 134.537ZM72.4571 145.358L73.3929 145.006L73.3892 144.996L72.4571 145.358ZM73.4353 152.078L72.4367 152.026L72.3599 153.501L73.7576 153.025L73.4353 152.078ZM94.5952 168.154L95.5951 168.141L95.5951 168.141L94.5952 168.154ZM89.3449 181.918L88.5467 181.316L88.5173 181.355L88.4918 181.396L89.3449 181.918ZM62.9828 157.895L63.602 158.68L64.1908 158.215L63.91 157.52L62.9828 157.895ZM53.1748 148.705L53.1148 149.704L53.1275 149.704L53.1404 149.705L53.1748 148.705ZM47.9419 150.881L47.297 150.117L47.2779 150.133L47.2596 150.15L47.9419 150.881ZM44.6435 154.206L43.9071 153.529L43.2806 154.211L43.9124 154.888L44.6435 154.206ZM54.8989 165.194L54.1678 165.876L54.8915 166.651L55.6229 165.883L54.8989 165.194ZM82.1907 173.33L83.1017 173.742L83.3089 173.285L83.0654 172.845L82.1907 173.33ZM72.4179 164.97L72.3464 163.972L72.3464 163.972L72.4179 164.97ZM63.29 171.15L64.0034 171.851L64.0231 171.831L64.0417 171.81L63.29 171.15ZM61.8381 172.628L61.1247 171.928L60.4538 172.611L61.1071 173.311L61.8381 172.628ZM71.8479 183.353L71.1168 184.035L71.6762 184.634L72.3736 184.203L71.8479 183.353ZM77.4995 192.837C72.7804 197.242 67.8981 201.472 62.8526 205.527L64.1055 207.086C69.1894 203 74.109 198.738 78.8642 194.299L77.4995 192.837ZM64.1744 205.588L57.8273 199.447L56.4366 200.884L62.7837 207.025L64.1744 205.588ZM57.9832 200.69L61.558 194.892L59.8555 193.842L56.2807 199.641L57.9832 200.69ZM61.4378 193.685L38.0408 168.617L36.5787 169.982L59.9757 195.049L61.4378 193.685ZM38.0408 168.617C37.494 168.031 37.0026 167.55 36.5699 167.183C36.1552 166.832 35.726 166.527 35.3073 166.371L34.6099 168.245C34.6942 168.277 34.9083 168.397 35.2773 168.709C35.6283 169.007 36.061 169.427 36.5787 169.982L38.0408 168.617ZM35.3495 166.388C34.434 165.999 33.3287 166.2 32.2418 166.609L32.947 168.481C33.9246 168.112 34.3954 168.155 34.5677 168.228L35.3495 166.388ZM32.3545 166.574L27.1524 167.859L27.6321 169.801L32.8342 168.516L32.3545 166.574ZM28.1706 168.202L23.4683 162.373L21.9117 163.629L26.6139 169.458L28.1706 168.202ZM23.4606 163.638C29.6894 156.106 35.3266 149.989 40.3735 145.278L39.0088 143.816C33.8796 148.604 28.1827 154.789 21.9193 162.364L23.4606 163.638ZM40.3735 145.278C46.5606 139.504 51.8094 136.327 56.1387 135.521L55.7724 133.554C50.8729 134.467 45.2788 137.964 39.0088 143.816L40.3735 145.278ZM56.1387 135.521C60.3575 134.734 64.1976 136.128 67.7344 139.917L69.1965 138.553C65.2823 134.359 60.7825 132.621 55.7724 133.554L56.1387 135.521ZM67.7344 139.917C69.5063 141.816 70.7601 143.751 71.5249 145.72L73.3892 144.996C72.5164 142.749 71.1091 140.602 69.1965 138.553L67.7344 139.917ZM71.5213 145.711C72.246 147.634 72.5559 149.735 72.4367 152.026L74.434 152.13C74.5662 149.59 74.2239 147.211 73.3929 145.006L71.5213 145.711ZM73.7576 153.025C76.7394 152.01 79.4022 151.801 81.7755 152.33C84.1425 152.858 86.2995 154.136 88.2495 156.225L89.7116 154.861C87.5266 152.52 85.0253 151.006 82.2106 150.378C79.4021 149.752 76.3598 150.026 73.1131 151.131L73.7576 153.025ZM88.2495 156.225C91.802 160.032 93.5407 164.006 93.5953 168.167L95.5951 168.141C95.5326 163.382 93.5282 158.95 89.7116 154.861L88.2495 156.225ZM93.5953 168.167C93.6501 172.342 92.0151 176.719 88.5467 181.316L90.1432 182.52C93.7922 177.684 95.6574 172.885 95.5951 168.141L93.5953 168.167ZM88.4918 181.396C87.9691 182.251 86.8154 183.631 84.9549 185.573C83.1125 187.496 80.6291 189.916 77.4995 192.837L78.8642 194.299C82.007 191.366 84.5204 188.918 86.399 186.957C88.2595 185.015 89.5511 183.498 90.198 182.44L88.4918 181.396ZM63.91 157.52C63.2097 155.786 61.5344 153.558 59.0291 150.874L57.567 152.239C60.0564 154.906 61.5042 156.904 62.0555 158.269L63.91 157.52ZM59.0291 150.874C57.2158 148.931 55.2753 147.777 53.2093 147.706L53.1404 149.705C54.4665 149.75 55.9415 150.497 57.567 152.239L59.0291 150.874ZM53.2349 147.707C51.2307 147.587 49.2415 148.476 47.297 150.117L48.5869 151.645C50.3152 150.187 51.8146 149.625 53.1148 149.704L53.2349 147.707ZM47.2596 150.15C46.1004 151.232 44.9829 152.358 43.9071 153.529L45.3798 154.882C46.4211 153.749 47.5026 152.659 48.6243 151.612L47.2596 150.15ZM43.9124 154.888L54.1678 165.876L55.6299 164.511L45.3745 153.524L43.9124 154.888ZM55.6229 165.883C56.3087 165.163 57.2375 164.256 58.4147 163.157L57.0501 161.695C55.8587 162.807 54.8984 163.744 54.1748 164.504L55.6229 165.883ZM58.4147 163.157C60.1955 161.495 61.9246 160.003 63.602 158.68L62.3635 157.109C60.6372 158.471 58.8661 160 57.0501 161.695L58.4147 163.157ZM78.1578 179.693C80.6667 177.351 82.37 175.359 83.1017 173.742L81.2797 172.917C80.7248 174.143 79.2847 175.905 76.7932 178.231L78.1578 179.693ZM83.0654 172.845C81.839 170.632 80.5594 168.797 79.2196 167.362L77.7575 168.727C78.956 170.011 80.1445 171.7 81.316 173.814L83.0654 172.845ZM79.2196 167.362C77.0712 165.06 74.7734 163.798 72.3464 163.972L72.4893 165.967C74.0626 165.854 75.812 166.642 77.7575 168.727L79.2196 167.362ZM72.3464 163.972C69.9918 164.141 67.4176 165.683 64.656 168.261L66.0207 169.723C68.6981 167.224 70.8435 166.085 72.4893 165.967L72.3464 163.972ZM64.656 168.261C64.0522 168.824 63.3452 169.571 62.5383 170.491L64.0417 171.81C64.8256 170.916 65.4841 170.224 66.0207 169.723L64.656 168.261ZM62.5765 170.449L61.1247 171.928L62.5516 173.329L64.0034 171.851L62.5765 170.449ZM61.1071 173.311L71.1168 184.035L72.5789 182.67L62.5692 171.946L61.1071 173.311ZM72.3736 184.203C74.2625 183.036 76.1903 181.529 78.1578 179.693L76.7932 178.231C74.9007 179.997 73.0768 181.418 71.3222 182.502L72.3736 184.203Z" fill="black"/>
<path d="M109.435 145.679L113.397 140.138L91.7686 113.53C90.7846 112.32 90.0481 111.604 89.5591 111.383C89.0322 111.115 88.2406 111.14 87.1842 111.458L81.9063 112.384L77.6703 106.317C83.8215 99.6158 90.1329 93.6349 96.6045 88.3744C101.633 84.287 106.1 81.5066 110.005 80.0331C113.873 78.513 117.376 78.2561 120.513 79.2624C123.66 80.1843 126.652 82.3912 129.49 85.8831C131.837 88.7697 133.154 91.9127 133.443 95.312C133.694 98.6648 132.919 102.04 131.119 105.436L156.939 114.372L159.083 117.152L146.373 127.484L120.879 117.239L117.75 119.667L124.108 127.489C125.016 128.606 125.673 129.271 126.077 129.484C126.491 129.611 127.175 129.597 128.129 129.439L132.551 128.744L137.154 134.977L115.574 152.519L109.435 145.679ZM115.861 108.212C118.329 106.206 119.956 104.497 120.741 103.086C119.844 101.031 118.45 98.8398 116.557 96.5119C114.665 94.184 112.809 92.9475 110.99 92.8023C109.218 92.6194 107.168 93.474 104.84 95.3663C103.536 96.426 102.266 97.5744 101.029 98.8116L111.191 111.313C112.628 110.608 114.185 109.574 115.861 108.212Z" fill="#B00000"/>
<path d="M109.435 145.679L108.621 145.098L108.154 145.75L108.69 146.347L109.435 145.679ZM113.397 140.138L114.211 140.72L114.655 140.1L114.173 139.508L113.397 140.138ZM89.5591 111.383L89.1062 112.274L89.1264 112.285L89.1471 112.294L89.5591 111.383ZM87.1842 111.458L87.3571 112.443L87.4154 112.432L87.472 112.415L87.1842 111.458ZM81.9063 112.384L81.0864 112.957L81.4513 113.479L82.0793 113.369L81.9063 112.384ZM77.6703 106.317L76.9336 105.641L76.3912 106.232L76.8504 106.889L77.6703 106.317ZM110.005 80.0331L110.358 80.9688L110.371 80.9638L110.005 80.0331ZM120.513 79.2624L120.208 80.2146L120.22 80.2185L120.232 80.2221L120.513 79.2624ZM133.443 95.312L134.441 95.2374L134.44 95.2274L133.443 95.312ZM131.119 105.436L130.235 104.968L129.688 106L130.792 106.381L131.119 105.436ZM156.939 114.372L157.731 113.761L157.548 113.524L157.266 113.427L156.939 114.372ZM159.083 117.152L159.714 117.928L160.47 117.313L159.875 116.541L159.083 117.152ZM146.373 127.484L146 128.412L146.546 128.632L147.003 128.26L146.373 127.484ZM120.879 117.239L121.252 116.311L120.72 116.097L120.267 116.449L120.879 117.239ZM117.75 119.667L117.137 118.877L116.329 119.504L116.974 120.298L117.75 119.667ZM126.077 129.484L125.613 130.369L125.694 130.412L125.782 130.439L126.077 129.484ZM128.129 129.439L127.974 128.452L127.966 128.453L128.129 129.439ZM132.551 128.744L133.356 128.15L132.995 127.662L132.396 127.756L132.551 128.744ZM137.154 134.977L137.785 135.753L138.526 135.151L137.959 134.383L137.154 134.977ZM115.574 152.519L114.83 153.187L115.466 153.896L116.205 153.295L115.574 152.519ZM120.741 103.086L121.615 103.572L121.856 103.139L121.658 102.686L120.741 103.086ZM110.99 92.8023L110.888 93.7971L110.899 93.7982L110.911 93.7992L110.99 92.8023ZM101.029 98.8116L100.322 98.1047L99.6844 98.7426L100.253 99.4424L101.029 98.8116ZM111.191 111.313L110.415 111.943L110.917 112.561L111.631 112.211L111.191 111.313ZM110.248 146.261L114.211 140.72L112.584 139.557L108.621 145.098L110.248 146.261ZM114.173 139.508L92.5445 112.899L90.9926 114.161L112.621 140.769L114.173 139.508ZM92.5445 112.899C92.0391 112.278 91.5818 111.764 91.1752 111.368C90.7854 110.99 90.3781 110.656 89.971 110.472L89.1471 112.294C89.2291 112.331 89.4345 112.466 89.7812 112.803C90.1111 113.123 90.514 113.572 90.9926 114.161L92.5445 112.899ZM90.012 110.491C89.1252 110.041 88.0088 110.166 86.8964 110.5L87.472 112.415C88.4724 112.115 88.9393 112.19 89.1062 112.274L90.012 110.491ZM87.0113 110.473L81.7334 111.399L82.0793 113.369L87.3571 112.443L87.0113 110.473ZM82.7263 111.812L78.4903 105.744L76.8504 106.889L81.0864 112.957L82.7263 111.812ZM78.407 106.993C84.5283 100.325 90.8046 94.3777 97.2353 89.1503L95.9738 87.5984C89.4612 92.8922 83.1147 98.907 76.9336 105.641L78.407 106.993ZM97.2353 89.1503C102.221 85.0977 106.593 82.3893 110.358 80.9687L109.652 79.0974C105.607 80.6238 101.045 83.4764 95.9738 87.5984L97.2353 89.1503ZM110.371 80.9638C114.081 79.5055 117.342 79.2955 120.208 80.2146L120.819 78.3102C117.409 77.2167 113.664 77.5205 109.639 79.1024L110.371 80.9638ZM120.232 80.2221C123.124 81.0693 125.957 83.1222 128.714 86.5139L130.266 85.2524C127.346 81.6602 124.195 79.2993 120.794 78.3027L120.232 80.2221ZM128.714 86.5139C130.946 89.2595 132.177 92.2155 132.447 95.3967L134.44 95.2274C134.132 91.6099 132.727 88.28 130.266 85.2524L128.714 86.5139ZM132.446 95.3867C132.681 98.5255 131.961 101.713 130.235 104.968L132.002 105.905C133.878 102.366 134.708 98.8041 134.441 95.2374L132.446 95.3867ZM130.792 106.381L156.612 115.317L157.266 113.427L131.446 104.491L130.792 106.381ZM156.147 114.982L158.291 117.763L159.875 116.541L157.731 113.761L156.147 114.982ZM158.452 116.376L145.742 126.708L147.003 128.26L159.714 117.928L158.452 116.376ZM146.746 126.556L121.252 116.311L120.507 118.167L146 128.412L146.746 126.556ZM120.267 116.449L117.137 118.877L118.363 120.457L121.492 118.029L120.267 116.449ZM116.974 120.298L123.332 128.12L124.884 126.858L118.526 119.036L116.974 120.298ZM123.332 128.12C123.797 128.691 124.21 129.164 124.57 129.528C124.911 129.874 125.266 130.187 125.613 130.369L126.542 128.598C126.484 128.567 126.308 128.442 125.993 128.123C125.696 127.822 125.327 127.404 124.884 126.858L123.332 128.12ZM125.782 130.439C126.438 130.642 127.329 130.585 128.292 130.426L127.966 128.453C127.021 128.609 126.543 128.581 126.373 128.528L125.782 130.439ZM128.284 130.427L132.707 129.732L132.396 127.756L127.974 128.452L128.284 130.427ZM131.747 129.338L136.35 135.571L137.959 134.383L133.356 128.15L131.747 129.338ZM136.523 134.201L114.943 151.743L116.205 153.295L137.785 135.753L136.523 134.201ZM116.318 151.851L110.179 145.011L108.69 146.347L114.83 153.187L116.318 151.851ZM116.492 108.988C118.982 106.964 120.733 105.157 121.615 103.572L119.867 102.599C119.178 103.838 117.676 105.448 115.231 107.436L116.492 108.988ZM121.658 102.686C120.715 100.526 119.265 98.2572 117.333 95.8812L115.781 97.1427C117.635 99.4225 118.974 101.537 119.825 103.486L121.658 102.686ZM117.333 95.8812C115.375 93.472 113.293 91.9829 111.07 91.8055L110.911 93.7992C112.326 93.9121 113.955 94.896 115.781 97.1427L117.333 95.8812ZM111.093 91.8076C108.925 91.5839 106.61 92.6384 104.209 94.5903L105.47 96.1423C107.725 94.3096 109.51 93.6549 110.888 93.7971L111.093 91.8076ZM104.209 94.5903C102.878 95.6726 101.582 96.8442 100.322 98.1047L101.736 99.5186C102.95 98.3047 104.195 97.1794 105.47 96.1423L104.209 94.5903ZM100.253 99.4424L110.415 111.943L111.967 110.682L101.805 98.1809L100.253 99.4424ZM111.631 112.211C113.155 111.463 114.776 110.383 116.492 108.988L115.231 107.436C113.594 108.766 112.101 109.753 110.751 110.415L111.631 112.211Z" fill="black"/>
<path d="M201.6 100.188C192.841 104.93 185.099 106.256 178.373 104.166C171.699 102.048 165.92 96.4773 161.036 87.4547C157.865 81.5979 156.204 75.947 156.054 70.5019C155.875 65.0041 157.162 60.0089 159.915 55.5164C162.668 51.0238 166.815 47.2778 172.355 44.2785C189.979 34.7378 203.661 38.9636 213.401 56.9562C216.601 62.8657 218.275 68.543 218.426 73.9881C218.576 79.4331 217.208 84.4041 214.321 88.901C211.486 93.3694 207.246 97.1318 201.6 100.188ZM197.349 88.3663C200.357 86.7381 202.818 84.4163 204.734 81.4007C204.428 79.4508 203.777 77.1766 202.78 74.5781C201.754 71.9268 200.598 69.4139 199.313 67.0396C196.142 61.1828 192.634 57.3505 188.79 55.5426C184.999 53.7063 180.992 53.9307 176.771 56.2159C173.764 57.8441 171.162 59.9692 168.965 62.5912C168.927 63.9079 169.379 65.8128 170.319 68.3058C171.231 70.746 172.486 73.4436 174.086 76.3983C177.399 82.519 181.05 86.6151 185.037 88.6867C189.024 90.7583 193.128 90.6516 197.349 88.3663Z" fill="#B00000"/>
<path d="M178.373 104.166L178.07 105.119L178.076 105.121L178.373 104.166ZM156.054 70.5019L157.054 70.4743L157.054 70.4694L156.054 70.5019ZM159.915 55.5164L160.768 56.0389L160.768 56.0389L159.915 55.5164ZM218.426 73.9881L217.426 74.0157L217.426 74.0157L218.426 73.9881ZM214.321 88.901L213.479 88.3607L213.476 88.3654L214.321 88.901ZM204.734 81.4007L205.578 81.9369L205.78 81.6186L205.722 81.2461L204.734 81.4007ZM202.78 74.5781L203.713 74.2197L203.712 74.2172L202.78 74.5781ZM188.79 55.5426L188.354 56.4427L188.365 56.4476L188.79 55.5426ZM168.965 62.5912L168.198 61.949L167.975 62.2153L167.965 62.5626L168.965 62.5912ZM170.319 68.3058L171.256 67.9558L171.255 67.9529L170.319 68.3058ZM185.037 88.6867L185.498 87.7993L185.498 87.7993L185.037 88.6867ZM201.124 99.3089C192.503 103.976 185.047 105.193 178.669 103.211L178.076 105.121C185.15 107.319 193.18 105.884 202.076 101.068L201.124 99.3089ZM178.675 103.213C172.343 101.203 166.733 95.8787 161.915 86.9786L160.156 87.9308C165.107 97.076 171.056 102.893 178.07 105.119L178.675 103.213ZM161.915 86.9786C158.803 81.2295 157.199 75.7314 157.054 70.4743L155.054 70.5295C155.21 76.1626 156.927 81.9663 160.156 87.9308L161.915 86.9786ZM157.054 70.4694C156.881 65.1579 158.122 60.3572 160.768 56.0389L159.063 54.9938C156.203 59.6607 154.869 64.8503 155.055 70.5345L157.054 70.4694ZM160.768 56.0389C163.413 51.7232 167.416 48.0899 172.832 45.1579L171.879 43.3991C166.215 46.4658 161.924 50.3244 159.063 54.9938L160.768 56.0389ZM172.832 45.1579C181.503 40.4635 189.043 39.2415 195.539 41.2478C202.04 43.2557 207.722 48.567 212.522 57.4322L214.281 56.4801C209.339 47.3528 203.31 41.5549 196.129 39.3369C188.943 37.1173 180.831 38.5528 171.879 43.3991L172.832 45.1579ZM212.522 57.4322C215.664 63.2355 217.281 68.7599 217.426 74.0157L219.425 73.9605C219.27 68.3261 217.537 62.496 214.281 56.4801L212.522 57.4322ZM217.426 74.0157C217.571 79.264 216.256 84.0364 213.479 88.3608L215.162 89.4413C218.16 84.7718 219.581 79.6023 219.425 73.9604L217.426 74.0157ZM213.476 88.3654C210.751 92.6618 206.652 96.3164 201.124 99.3089L202.076 101.068C207.84 97.9472 212.221 94.077 215.165 89.4367L213.476 88.3654ZM197.825 89.2457C200.99 87.5327 203.575 85.0897 205.578 81.9369L203.889 80.8646C202.061 83.7428 199.724 85.9436 196.873 87.4869L197.825 89.2457ZM205.722 81.2461C205.402 79.2047 204.727 76.8596 203.713 74.2197L201.846 74.9364C202.828 77.4936 203.455 79.6969 203.746 81.5553L205.722 81.2461ZM203.712 74.2172C202.672 71.5285 201.499 68.977 200.192 66.5635L198.433 67.5156C199.698 69.8509 200.836 72.3251 201.847 74.939L203.712 74.2172ZM200.192 66.5635C196.973 60.6183 193.335 56.5749 189.216 54.6377L188.365 56.4476C191.934 58.126 195.31 61.7472 198.433 67.5156L200.192 66.5635ZM189.226 54.6426C185.101 52.6449 180.754 52.9227 176.295 55.3365L177.247 57.0953C181.231 54.9387 184.896 54.7676 188.354 56.4426L189.226 54.6426ZM176.295 55.3365C173.177 57.0248 170.476 59.2304 168.198 61.949L169.731 63.2334C171.847 60.7081 174.351 58.6634 177.247 57.0953L176.295 55.3365ZM167.965 62.5626C167.922 64.0846 168.434 66.1428 169.383 68.6587L171.255 67.9529C170.323 65.4828 169.933 63.7313 169.965 62.6198L167.965 62.5626ZM169.382 68.6558C170.314 71.1496 171.591 73.89 173.206 76.8744L174.965 75.9223C173.382 72.9971 172.147 70.3424 171.256 67.9558L169.382 68.6558ZM173.206 76.8744C176.567 83.0813 180.338 87.3724 184.576 89.5741L185.498 87.7993C181.761 85.8577 178.232 81.9566 174.965 75.9223L173.206 76.8744ZM184.576 89.5741C188.88 91.8106 193.336 91.6761 197.825 89.2457L196.873 87.4869C192.92 89.627 189.168 89.706 185.498 87.7993L184.576 89.5741Z" fill="black"/>
<path d="M266.568 89.27C260.088 89.27 254.118 89 248.658 88.46L248.208 79.82L254.778 78.02V43.73C254.778 42.17 254.658 41.15 254.418 40.67C254.178 40.13 253.548 39.65 252.528 39.23L247.848 36.62L248.388 29.15C254.628 28.67 259.878 28.31 264.138 28.07C268.398 27.77 271.818 27.62 274.398 27.62C282.678 27.62 289.308 28.58 294.288 30.5C299.328 32.42 302.988 35.45 305.268 39.59C307.608 43.73 308.778 49.22 308.778 56.06C308.778 64.7 306.798 71.69 302.838 77.03C299.298 81.65 294.588 84.86 288.708 86.66C282.888 88.4 275.508 89.27 266.568 89.27ZM277.908 76.4C282.948 76.4 286.938 75.8 289.878 74.6C290.418 73.1 290.898 70.76 291.318 67.58C291.798 64.4 292.038 61.43 292.038 58.67C292.038 51.89 290.628 46.88 287.808 43.64C285.048 40.4 280.818 38.78 275.118 38.78C274.338 38.78 273.618 38.81 272.958 38.87C272.298 38.93 271.668 38.99 271.068 39.05V75.95C273.468 76.25 275.748 76.4 277.908 76.4Z" fill="#B00000"/>
<path d="M248.658 88.46L247.66 88.512L247.704 89.3705L248.56 89.4551L248.658 88.46ZM248.208 79.82L247.944 78.8555L247.168 79.0682L247.21 79.872L248.208 79.82ZM254.778 78.02L255.042 78.9845L255.778 78.7829V78.02H254.778ZM254.418 40.67L253.504 41.0761L253.514 41.0969L253.524 41.1172L254.418 40.67ZM252.528 39.23L252.041 40.1034L252.093 40.1322L252.147 40.1547L252.528 39.23ZM247.848 36.62L246.851 36.5479L246.805 37.1831L247.361 37.4934L247.848 36.62ZM248.388 29.15L248.311 28.1529L247.453 28.219L247.391 29.0779L248.388 29.15ZM264.138 28.07L264.194 29.0685L264.208 29.0675L264.138 28.07ZM294.288 30.5L293.928 31.4331L293.932 31.4345L294.288 30.5ZM305.268 39.59L304.392 40.0724L304.398 40.0821L305.268 39.59ZM302.838 77.03L303.632 77.6382L303.637 77.632L303.641 77.6257L302.838 77.03ZM288.708 86.66L288.995 87.6181L289.001 87.6162L288.708 86.66ZM289.878 74.6L290.256 75.5258L290.668 75.3576L290.819 74.9387L289.878 74.6ZM291.318 67.58L290.329 67.4307L290.328 67.4399L290.327 67.4491L291.318 67.58ZM287.808 43.64L287.047 44.2885L287.054 44.2965L287.808 43.64ZM272.958 38.87L272.868 37.8741L272.868 37.8741L272.958 38.87ZM271.068 39.05L270.969 38.055L270.068 38.145V39.05H271.068ZM271.068 75.95H270.068V76.8328L270.944 76.9423L271.068 75.95ZM266.568 88.27C260.115 88.27 254.179 88.0011 248.757 87.4649L248.56 89.4551C254.058 89.9989 260.061 90.27 266.568 90.27V88.27ZM249.657 88.408L249.207 79.768L247.21 79.872L247.66 88.512L249.657 88.408ZM248.472 80.7845L255.042 78.9845L254.514 77.0555L247.944 78.8555L248.472 80.7845ZM255.778 78.02V43.73H253.778V78.02H255.778ZM255.778 43.73C255.778 42.9287 255.748 42.2413 255.681 41.6782C255.618 41.1384 255.512 40.6223 255.313 40.2228L253.524 41.1172C253.564 41.1977 253.639 41.4316 253.695 41.9118C253.749 42.3687 253.778 42.9713 253.778 43.73H255.778ZM255.332 40.2639C254.928 39.3549 253.983 38.7476 252.909 38.3053L252.147 40.1547C253.113 40.5524 253.428 40.9051 253.504 41.0761L255.332 40.2639ZM253.015 38.3566L248.335 35.7466L247.361 37.4934L252.041 40.1034L253.015 38.3566ZM248.846 36.6921L249.386 29.2221L247.391 29.0779L246.851 36.5479L248.846 36.6921ZM248.465 30.1471C254.701 29.6674 259.944 29.3079 264.194 29.0684L264.082 27.0716C259.813 27.3121 254.555 27.6726 248.311 28.1529L248.465 30.1471ZM264.208 29.0675C268.458 28.7683 271.852 28.62 274.398 28.62V26.62C271.785 26.62 268.338 26.7717 264.068 27.0725L264.208 29.0675ZM274.398 28.62C282.616 28.62 289.109 29.5748 293.928 31.4331L294.648 29.5669C289.508 27.5852 282.741 26.62 274.398 26.62V28.62ZM293.932 31.4345C298.784 33.2828 302.243 36.169 304.392 40.0724L306.144 39.1076C303.734 34.731 299.872 31.5572 294.644 29.5655L293.932 31.4345ZM304.398 40.0821C306.624 44.0203 307.778 49.3215 307.778 56.06H309.778C309.778 49.1185 308.593 43.4397 306.139 39.0979L304.398 40.0821ZM307.778 56.06C307.778 64.5498 305.834 71.312 302.035 76.4343L303.641 77.6257C307.763 72.068 309.778 64.8502 309.778 56.06H307.778ZM302.044 76.4218C298.638 80.8668 294.108 83.9611 288.415 85.7038L289.001 87.6162C295.068 85.7589 299.958 82.4332 303.632 77.6382L302.044 76.4218ZM288.422 85.7019C282.727 87.4044 275.452 88.27 266.568 88.27V90.27C275.564 90.27 283.049 89.3956 288.995 87.6181L288.422 85.7019ZM277.908 77.4C283.01 77.4 287.146 76.7951 290.256 75.5258L289.5 73.6742C286.73 74.8049 282.886 75.4 277.908 75.4V77.4ZM290.819 74.9387C291.397 73.3336 291.888 70.9057 292.31 67.7109L290.327 67.4491C289.909 70.6143 289.439 72.8664 288.937 74.2613L290.819 74.9387ZM292.307 67.7293C292.793 64.5077 293.038 61.4873 293.038 58.67H291.038C291.038 61.3727 290.803 64.2923 290.329 67.4307L292.307 67.7293ZM293.038 58.67C293.038 51.7811 291.61 46.4853 288.562 42.9835L287.054 44.2965C289.646 47.2747 291.038 51.9989 291.038 58.67H293.038ZM288.569 42.9915C285.56 39.4592 281.006 37.78 275.118 37.78V39.78C280.63 39.78 284.536 41.3408 287.047 44.2885L288.569 42.9915ZM275.118 37.78C274.313 37.78 273.562 37.8109 272.868 37.8741L273.049 39.8659C273.674 39.8091 274.363 39.78 275.118 39.78V37.78ZM272.868 37.8741C272.205 37.9343 271.572 37.9946 270.969 38.055L271.168 40.045C271.764 39.9854 272.391 39.9256 273.049 39.8659L272.868 37.8741ZM270.068 39.05V75.95H272.068V39.05H270.068ZM270.944 76.9423C273.38 77.2468 275.702 77.4 277.908 77.4V75.4C275.794 75.4 273.556 75.2532 271.192 74.9577L270.944 76.9423Z" fill="black"/>
<path d="M321.078 82.8185L324.273 82.1142L360.854 40.7691L375.756 44.4935L376.884 96.3074C376.941 97.9779 377.005 99.0791 377.075 99.6112C377.145 100.143 377.354 100.914 377.703 101.924L378.558 104.409L375.959 110.272L352.058 102.007L354.002 93.6323L360.57 94.1896L360.819 84.6575L343.464 78.9418L339.74 83.6533C339.393 84.1048 339.161 84.5007 339.043 84.8409C338.906 85.2379 338.855 85.5694 338.89 85.8354C339.001 86.0644 339.207 86.2944 339.508 86.5254L344.524 91.0216L341.085 98.2126L318.8 90.5063L321.078 82.8185ZM361.54 55.8617L350.278 70.2516L361.074 74.5563L361.54 55.8617Z" fill="#B00000"/>
<path d="M321.078 82.8185L320.863 81.8419L320.287 81.9689L320.119 82.5344L321.078 82.8185ZM324.273 82.1142L324.489 83.0907L324.807 83.0207L325.022 82.7768L324.273 82.1142ZM360.854 40.7691L361.097 39.7989L360.508 39.6517L360.106 40.1064L360.854 40.7691ZM375.756 44.4935L376.755 44.4717L376.739 43.7084L375.998 43.5233L375.756 44.4935ZM376.884 96.3074L375.884 96.3292L375.884 96.3417L376.884 96.3074ZM377.703 101.924L378.649 101.599L378.648 101.597L377.703 101.924ZM378.558 104.409L379.472 104.815L379.631 104.456L379.504 104.084L378.558 104.409ZM375.959 110.272L375.632 111.217L376.501 111.518L376.873 110.677L375.959 110.272ZM352.058 102.007L351.084 101.781L350.88 102.658L351.731 102.952L352.058 102.007ZM354.002 93.6323L354.086 92.6359L353.223 92.5626L353.028 93.4062L354.002 93.6323ZM360.57 94.1896L360.486 95.186L361.542 95.2756L361.57 94.2157L360.57 94.1896ZM360.819 84.6575L361.819 84.6836L361.838 83.9403L361.132 83.7077L360.819 84.6575ZM343.464 78.9418L343.777 77.9919L343.113 77.7733L342.68 78.3216L343.464 78.9418ZM339.74 83.6533L338.955 83.0332L338.951 83.0388L338.947 83.0444L339.74 83.6533ZM338.89 85.8354L337.898 85.9658L337.92 86.1266L337.991 86.2726L338.89 85.8354ZM339.508 86.5254L340.176 85.7808L340.148 85.7554L340.117 85.7322L339.508 86.5254ZM344.524 91.0216L345.427 91.4531L345.75 90.7771L345.192 90.277L344.524 91.0216ZM341.085 98.2126L340.759 99.1577L341.602 99.4495L341.988 98.644L341.085 98.2126ZM318.8 90.5063L317.841 90.2222L317.57 91.1389L318.473 91.4514L318.8 90.5063ZM361.54 55.8617L362.539 55.8866L362.614 52.8656L360.752 55.2454L361.54 55.8617ZM350.278 70.2516L349.491 69.6353L348.668 70.6862L349.908 71.1805L350.278 70.2516ZM361.074 74.5563L360.704 75.4851L362.038 76.0172L362.074 74.5811L361.074 74.5563ZM321.293 83.795L324.489 83.0907L324.058 81.1376L320.863 81.8419L321.293 83.795ZM325.022 82.7768L361.603 41.4317L360.106 40.1064L323.525 81.4515L325.022 82.7768ZM360.612 41.7392L375.513 45.4636L375.998 43.5233L361.097 39.7989L360.612 41.7392ZM374.756 44.5152L375.884 96.3292L377.884 96.2857L376.755 44.4717L374.756 44.5152ZM375.884 96.3417C375.941 98.0027 376.006 99.1532 376.083 99.7415L378.066 99.4809C378.004 99.0051 377.941 97.9531 377.883 96.2732L375.884 96.3417ZM376.083 99.7415C376.167 100.378 376.404 101.227 376.758 102.251L378.648 101.597C378.304 100.601 378.122 99.9088 378.066 99.4809L376.083 99.7415ZM376.758 102.249L377.612 104.735L379.504 104.084L378.649 101.599L376.758 102.249ZM377.644 104.004L375.045 109.867L376.873 110.677L379.472 104.815L377.644 104.004ZM376.286 109.327L352.385 101.062L351.731 102.952L375.632 111.217L376.286 109.327ZM353.032 102.233L354.976 93.8584L353.028 93.4062L351.084 101.781L353.032 102.233ZM353.917 94.6287L360.486 95.186L360.655 93.1932L354.086 92.6359L353.917 94.6287ZM361.57 94.2157L361.819 84.6836L359.819 84.6314L359.571 94.1635L361.57 94.2157ZM361.132 83.7077L343.777 77.9919L343.151 79.8916L360.506 85.6073L361.132 83.7077ZM342.68 78.3216L338.955 83.0332L340.524 84.2734L344.249 79.5619L342.68 78.3216ZM338.947 83.0444C338.568 83.5377 338.265 84.031 338.098 84.5141L339.988 85.1678C340.057 84.9705 340.218 84.672 340.533 84.2622L338.947 83.0444ZM338.098 84.5141C337.936 84.9831 337.835 85.483 337.898 85.9658L339.881 85.7051C339.875 85.6557 339.876 85.4926 339.988 85.1678L338.098 84.5141ZM337.991 86.2726C338.195 86.6928 338.531 87.0356 338.9 87.3187L340.117 85.7322C339.884 85.5531 339.808 85.4359 339.789 85.3982L337.991 86.2726ZM338.841 87.2701L343.857 91.7663L345.192 90.277L340.176 85.7808L338.841 87.2701ZM343.622 90.5902L340.183 97.7812L341.988 98.644L345.427 91.4531L343.622 90.5902ZM341.412 97.2675L319.127 89.5612L318.473 91.4514L340.759 99.1577L341.412 97.2675ZM319.759 90.7903L322.037 83.1025L320.119 82.5344L317.841 90.2222L319.759 90.7903ZM360.752 55.2454L349.491 69.6353L351.066 70.8679L362.327 56.478L360.752 55.2454ZM349.908 71.1805L360.704 75.4851L361.445 73.6274L350.649 69.3227L349.908 71.1805ZM362.074 74.5811L362.539 55.8866L360.54 55.8369L360.075 74.5314L362.074 74.5811Z" fill="black"/>
<path d="M413.666 134.506C406.068 129.462 401.762 123.255 400.749 115.885C399.736 108.515 402.051 100.581 407.692 92.0829C411.276 86.6843 415.337 82.6825 419.875 80.0777C424.496 77.456 429.361 76.3649 434.471 76.8042C439.614 77.1936 444.76 79.0973 449.908 82.5153C455.757 86.3979 460.901 91.7213 465.341 98.4856C461.904 102.686 457.878 107.178 453.261 111.963L447.313 108.555L447.167 97.5475C445.399 95.4375 443.19 93.5031 440.541 91.7444C438.541 90.417 436.526 89.3309 434.494 88.4862C432.665 89.5048 430.655 91.1229 428.463 93.3405C426.27 95.558 424.311 97.9664 422.586 100.566C418.902 106.114 417.164 110.902 417.372 114.929C417.662 118.939 419.974 122.454 424.307 125.474C426.056 126.636 428.422 127.846 431.403 129.105C434.467 130.347 437.556 131.389 440.67 132.232L437.519 142.023C433.791 141.997 429.713 141.306 425.283 139.95C420.937 138.577 417.065 136.763 413.666 134.506Z" fill="#B00000"/>
<path d="M400.749 115.885L401.74 115.749L401.74 115.749L400.749 115.885ZM419.875 80.0777L419.381 79.2079L419.377 79.2104L419.875 80.0777ZM434.471 76.8042L434.385 77.8006L434.396 77.8014L434.471 76.8042ZM465.341 98.4856L466.115 99.1188L466.58 98.5506L466.177 97.9369L465.341 98.4856ZM453.261 111.963L452.764 112.831L453.439 113.218L453.98 112.658L453.261 111.963ZM447.313 108.555L446.313 108.569L446.321 109.139L446.816 109.423L447.313 108.555ZM447.167 97.5475L448.167 97.5342L448.162 97.1781L447.933 96.9052L447.167 97.5475ZM434.494 88.4862L434.878 87.5628L434.43 87.3768L434.007 87.6126L434.494 88.4862ZM417.372 114.929L416.373 114.98L416.374 114.991L416.374 115.001L417.372 114.929ZM424.307 125.474L423.735 126.294L423.744 126.301L423.754 126.307L424.307 125.474ZM431.403 129.105L431.014 130.026L431.02 130.029L431.027 130.031L431.403 129.105ZM440.67 132.232L441.622 132.538L441.943 131.54L440.931 131.266L440.67 132.232ZM437.519 142.023L437.512 143.023L438.246 143.028L438.471 142.329L437.519 142.023ZM425.283 139.95L424.982 140.903L424.991 140.906L425.283 139.95ZM414.219 133.673C406.801 128.749 402.705 122.771 401.74 115.749L399.759 116.021C400.819 123.738 405.334 130.175 413.113 135.339L414.219 133.673ZM401.74 115.749C400.771 108.697 402.968 101.007 408.525 92.636L406.859 91.5299C401.133 100.155 398.702 108.333 399.759 116.021L401.74 115.749ZM408.525 92.636C412.043 87.3365 415.998 83.4563 420.373 80.9449L419.377 79.2104C414.676 81.9087 410.509 86.0321 406.859 91.5299L408.525 92.636ZM420.368 80.9474C424.82 78.4217 429.485 77.3791 434.385 77.8005L434.557 75.8079C429.238 75.3506 424.172 76.4903 419.381 79.2079L420.368 80.9474ZM434.396 77.8014C439.337 78.1755 444.321 80.0063 449.355 83.3484L450.461 81.6822C445.198 78.1883 439.891 76.2117 434.547 75.8071L434.396 77.8014ZM449.355 83.3484C455.075 87.1458 460.128 92.3659 464.505 99.0343L466.177 97.9369C461.674 91.0768 456.438 85.65 450.461 81.6822L449.355 83.3484ZM464.567 97.8523C461.151 102.027 457.143 106.5 452.541 111.269L453.98 112.658C458.612 107.857 462.658 103.344 466.115 99.1188L464.567 97.8523ZM453.758 111.096L447.81 107.688L446.816 109.423L452.764 112.831L453.758 111.096ZM448.313 108.542L448.167 97.5342L446.167 97.5608L446.313 108.569L448.313 108.542ZM447.933 96.9052C446.095 94.7114 443.811 92.715 441.094 90.9112L439.988 92.5775C442.569 94.2913 444.703 96.1637 446.4 98.1898L447.933 96.9052ZM441.094 90.9112C439.046 89.5516 436.974 88.4342 434.878 87.5628L434.11 89.4096C436.078 90.2276 438.037 91.2824 439.988 92.5775L441.094 90.9112ZM434.007 87.6126C432.066 88.6938 429.981 90.3822 427.751 92.6374L429.174 94.0435C431.329 91.8637 433.264 90.3159 434.98 89.3598L434.007 87.6126ZM427.751 92.6374C425.514 94.9009 423.514 97.3596 421.753 100.013L423.419 101.119C425.109 98.5733 427.027 96.2151 429.174 94.0435L427.751 92.6374ZM421.753 100.013C418.021 105.634 416.149 110.64 416.373 114.98L418.37 114.877C418.179 111.164 419.783 106.595 423.419 101.119L421.753 100.013ZM416.374 115.001C416.693 119.4 419.238 123.16 423.735 126.294L424.879 124.654C420.71 121.748 418.632 118.477 418.369 114.857L416.374 115.001ZM423.754 126.307C425.575 127.516 428.002 128.754 431.014 130.026L431.792 128.183C428.841 126.937 426.538 125.755 424.86 124.641L423.754 126.307ZM431.027 130.031C434.128 131.288 437.255 132.344 440.408 133.197L440.931 131.266C437.857 130.435 434.806 129.405 431.778 128.178L431.027 130.031ZM439.718 131.925L436.567 141.716L438.471 142.329L441.622 132.538L439.718 131.925ZM437.526 141.023C433.915 140.998 429.934 140.328 425.576 138.994L424.991 140.906C429.491 142.284 433.667 142.996 437.512 143.023L437.526 141.023ZM425.585 138.996C421.318 137.649 417.531 135.872 414.219 133.673L413.113 135.339C416.598 137.653 420.557 139.506 424.982 140.903L425.585 138.996Z" fill="black"/>
<path d="M460.791 153.595L507.716 153.473L499.354 143.886L488.893 142.873L485.687 136.385L502.525 126.722L529.74 162.785L522.093 169.684L473.961 169.702L485.286 182.916L495.475 183.12L498.664 190.184C490.961 194.719 485.325 197.958 481.755 199.901L452.262 160.82L460.791 153.595Z" fill="#B00000"/>
<path d="M460.791 153.595L460.788 152.595L460.423 152.596L460.144 152.832L460.791 153.595ZM507.716 153.473L507.719 154.473L509.911 154.467L508.47 152.816L507.716 153.473ZM499.354 143.886L500.107 143.229L499.846 142.929L499.45 142.891L499.354 143.886ZM488.893 142.873L487.996 143.316L488.243 143.815L488.796 143.868L488.893 142.873ZM485.687 136.385L485.19 135.517L484.375 135.985L484.791 136.828L485.687 136.385ZM502.525 126.722L503.323 126.12L502.792 125.416L502.027 125.855L502.525 126.722ZM529.74 162.785L530.41 163.528L531.09 162.914L530.539 162.183L529.74 162.785ZM522.093 169.684L522.093 170.684L522.477 170.684L522.763 170.427L522.093 169.684ZM473.961 169.702L473.96 168.702L471.787 168.703L473.201 170.353L473.961 169.702ZM485.286 182.916L484.527 183.567L484.818 183.907L485.266 183.916L485.286 182.916ZM495.475 183.12L496.386 182.708L496.126 182.132L495.495 182.12L495.475 183.12ZM498.664 190.184L499.171 191.046L499.945 190.591L499.575 189.773L498.664 190.184ZM481.755 199.901L480.957 200.503L481.476 201.191L482.233 200.779L481.755 199.901ZM452.262 160.82L451.616 160.057L450.895 160.668L451.464 161.423L452.262 160.82ZM460.793 154.595L507.719 154.473L507.714 152.473L460.788 152.595L460.793 154.595ZM508.47 152.816L500.107 143.229L498.6 144.543L506.963 154.13L508.47 152.816ZM499.45 142.891L488.989 141.878L488.796 143.868L499.258 144.881L499.45 142.891ZM489.789 142.43L486.584 135.942L484.791 136.828L487.996 143.316L489.789 142.43ZM486.185 137.252L503.022 127.59L502.027 125.855L485.19 135.517L486.185 137.252ZM501.726 127.325L528.942 163.388L530.539 162.183L503.323 126.12L501.726 127.325ZM529.071 162.043L521.423 168.942L522.763 170.427L530.41 163.528L529.071 162.043ZM522.093 168.684L473.96 168.702L473.961 170.702L522.093 170.684L522.093 168.684ZM473.201 170.353L484.527 183.567L486.045 182.265L474.72 169.051L473.201 170.353ZM485.266 183.916L495.455 184.119L495.495 182.12L485.306 181.916L485.266 183.916ZM494.563 183.531L497.752 190.596L499.575 189.773L496.386 182.708L494.563 183.531ZM498.157 189.322C490.455 193.857 484.831 197.088 481.277 199.022L482.233 200.779C485.819 198.828 491.468 195.582 499.171 191.046L498.157 189.322ZM482.553 199.298L453.06 160.218L451.464 161.423L480.957 200.503L482.553 199.298ZM452.909 161.583L461.437 154.358L460.144 152.832L451.616 160.057L452.909 161.583Z" fill="black"/>
<g filter="url(#filter0_d_80_116)">
<path d="M406.999 415.361C418.332 384.965 425.643 380.887 427.882 382.647" stroke="#D0D0D0"/>
<path d="M425.975 382.042C423.194 379.235 415.125 381.848 405.092 414.755C406.083 417.693 410.096 424.109 418.223 426.27C429.295 422.792 450.567 412.307 447.078 398.188C443.206 392.761 433.564 381.934 425.975 382.042Z" fill="#6F6F6D" stroke="#6F6F6D"/>
<path d="M383.15 473.363C377.989 473.647 367.149 471.218 365.081 459.23C364.64 457.865 366.053 454.187 375.234 450.388C386.164 445.046 387.233 437.936 386.401 435.049C394.013 445.441 400.131 447.979 402.239 447.949C391.839 454.718 389.825 460.794 390.119 462.985C389.218 466.372 386.563 473.188 383.15 473.363Z" fill="#383838"/>
<path d="M390.119 462.985C389.218 466.372 386.563 473.188 383.15 473.363C377.989 473.647 367.149 471.218 365.081 459.23C364.64 457.865 366.053 454.187 375.234 450.388M390.119 462.985C383.409 453.719 377.4 450.726 375.234 450.388M390.119 462.985C389.825 460.794 391.839 454.718 402.239 447.949C400.131 447.979 394.013 445.441 386.401 435.049C387.233 437.936 386.164 445.046 375.234 450.388" stroke="#383838"/>
<path d="M407.108 448.046C406.801 448.42 406.247 448.653 405.383 448.656C404.524 448.658 403.432 448.429 402.174 447.967C399.661 447.044 396.586 445.236 393.563 442.749C390.539 440.261 388.172 437.594 386.782 435.306C386.086 434.159 385.65 433.133 385.487 432.289C385.323 431.441 385.445 430.853 385.753 430.479C386.06 430.105 386.613 429.872 387.477 429.869C388.337 429.867 389.428 430.096 390.687 430.558C393.2 431.481 396.274 433.289 399.298 435.777C402.322 438.264 404.689 440.932 406.079 443.22C406.775 444.366 407.21 445.392 407.374 446.236C407.538 447.084 407.415 447.672 407.108 448.046Z" fill="#383838" stroke="#383838"/>
<path d="M390.651 430.628C391.292 427.509 395.216 420.222 405.782 416.024C407.033 418.694 411.439 424.64 419.064 427.062C418.43 430.708 415.315 439.197 407.919 443.982C406.981 444.733 402.214 443.114 390.651 430.628Z" fill="#191919" stroke="#191919"/>
<path d="M409.252 418.175C425.306 390.536 431.868 385.145 433.143 385.904" stroke="#D0D0D0"/>
<path d="M410.856 419.734C429.476 393.334 435.178 387.416 435.702 387.757" stroke="#D0D0D0"/>
<path d="M415.016 423.153C438.18 401.144 442.645 394.511 441.982 393.946" stroke="#D0D0D0"/>
<path d="M413.412 421.595C435.273 398.74 440.119 391.781 439.81 391.158" stroke="#D0D0D0"/>
<g filter="url(#filter1_d_80_116)">
<path d="M406.999 415.361C418.332 384.965 425.643 380.887 427.882 382.647" stroke="#D0D0D0"/>
</g>
<path d="M406.999 415.361C413.193 422.285 417.482 424.198 418.852 424.289" stroke="#D0D0D0"/>
<path d="M418.828 424.364C442.134 407.788 446.427 400.056 445.661 398.262" stroke="#D0D0D0"/>
</g>
<defs>
<filter id="filter0_d_80_116" x="360.509" y="380.698" width="91.4519" height="101.186" filterUnits="userSpaceOnUse" color-interpolation-filters="sRGB">
<feFlood flood-opacity="0" result="BackgroundImageFix"/>
<feColorMatrix in="SourceAlpha" type="matrix" values="0 0 0 0 0 0 0 0 0 0 0 0 0 0 0 0 0 0 127 0" result="hardAlpha"/>
<feOffset dy="4"/>
<feGaussianBlur stdDeviation="2"/>
<feComposite in2="hardAlpha" operator="out"/>
<feColorMatrix type="matrix" values="0 0 0 0 0 0 0 0 0 0 0 0 0 0 0 0 0 0 0.25 0"/>
<feBlend mode="normal" in2="BackgroundImageFix" result="effect1_dropShadow_80_116"/>
<feBlend mode="normal" in="SourceGraphic" in2="effect1_dropShadow_80_116" result="shape"/>
</filter>
<filter id="filter1_d_80_116" x="402.53" y="381.801" width="29.6604" height="41.7344" filterUnits="userSpaceOnUse" color-interpolation-filters="sRGB">
<feFlood flood-opacity="0" result="BackgroundImageFix"/>
<feColorMatrix in="SourceAlpha" type="matrix" values="0 0 0 0 0 0 0 0 0 0 0 0 0 0 0 0 0 0 127 0" result="hardAlpha"/>
<feOffset dy="4"/>
<feGaussianBlur stdDeviation="2"/>
<feComposite in2="hardAlpha" operator="out"/>
<feColorMatrix type="matrix" values="0 0 0 0 0 0 0 0 0 0 0 0 0 0 0 0 0 0 0.25 0"/>
<feBlend mode="normal" in2="BackgroundImageFix" result="effect1_dropShadow_80_116"/>
<feBlend mode="normal" in="SourceGraphic" in2="effect1_dropShadow_80_116" result="shape"/>
</filter>
</defs>
</svg>
