<svg width="477" height="183" viewBox="0 0 477 183" fill="none" xmlns="http://www.w3.org/2000/svg">
<path d="M58.7494 79.32C52.9894 79.32 47.2294 79.1067 41.4694 78.68L41.0694 70.84L46.9094 69.24V38.76C46.9094 37.3733 46.8027 36.4667 46.5894 36.04C46.376 35.56 45.816 35.1333 44.9094 34.76L40.7494 32.44L41.2294 25.8C49.8694 24.68 57.2827 24.12 63.4694 24.12C71.0427 24.12 76.5894 25.24 80.1094 27.48C83.6294 29.72 85.3894 33.2667 85.3894 38.12C85.3894 40.52 85.016 42.6533 84.2694 44.52C83.5227 46.3333 82.376 47.9867 80.8294 49.48C86.1627 51.88 88.8294 55.7733 88.8294 61.16C88.8294 65.96 87.496 69.8267 84.8294 72.76C82.1627 75.6933 78.2427 77.6133 73.0694 78.52C71.1494 79.0533 66.376 79.32 58.7494 79.32ZM70.5094 46.92C71.0427 45.5333 71.3094 43.2133 71.3094 39.96C71.3094 37.72 70.776 36.0667 69.7094 35C68.696 33.9333 67.1227 33.3467 64.9894 33.24C63.6027 33.24 62.216 33.2933 60.8294 33.4V46.76C61.736 46.7067 62.9094 46.68 64.3494 46.68C66.536 46.68 68.5894 46.76 70.5094 46.92ZM67.1494 69.4C70.1894 69.4 72.3494 69.1333 73.6294 68.6C74.1627 66.4667 74.4294 64.5733 74.4294 62.92C74.4294 60.2533 73.736 58.36 72.3494 57.24C70.9627 56.12 68.616 55.56 65.3094 55.56C64.616 55.56 63.736 55.6133 62.6694 55.72L60.8294 55.8V68.84C62.696 69.2133 64.8027 69.4 67.1494 69.4ZM182.866 70.84L188.706 69.24V38.76C188.706 37.3733 188.6 36.4667 188.386 36.04C188.173 35.56 187.613 35.1333 186.706 34.76L182.546 32.44L183.026 25.88C191.026 24.7067 198.733 24.12 206.146 24.12C211.906 24.12 216.546 24.7067 220.066 25.88C223.586 27 226.146 28.7867 227.746 31.24C229.4 33.64 230.226 36.84 230.226 40.84C230.226 44.1467 229.373 47.0533 227.666 49.56C225.96 52.0133 223.533 53.9067 220.386 55.24L233.186 75.88L233.106 79H218.546L206.706 57.64L203.186 57.56V66.52C203.186 67.8 203.266 68.6267 203.426 69C203.64 69.32 204.12 69.6933 204.866 70.12L208.306 72.12L207.986 79H183.266L182.866 70.84ZM208.306 48.6C211.133 48.6 213.213 48.3333 214.546 47.8C215.08 45.88 215.346 43.5867 215.346 40.92C215.346 38.2533 214.76 36.36 213.586 35.24C212.466 34.12 210.573 33.56 207.906 33.56C206.413 33.56 204.893 33.64 203.346 33.8V48.12C204.733 48.44 206.386 48.6 208.306 48.6ZM320.816 70.84L326.656 69.24V38.6C326.656 37.2133 326.55 36.3067 326.336 35.88C326.123 35.4 325.563 34.9733 324.656 34.6L320.656 32.28L320.896 25.08H364.336C364.71 30.68 364.896 36.1467 364.896 41.48L358.976 41.88L353.296 34.84L341.216 34.52V47.56L358.256 46.12V58.44L341.216 56.6V69.48L354.496 69.24L360.656 62.2L366.576 62.6C366.363 68.2 365.963 73.6667 365.376 79H321.216L320.816 70.84Z" fill="#002C85"/>
<path d="M107.749 71.88L110.229 70.36L128.949 25L142.549 23.8L158.549 67C159.082 68.3867 159.455 69.2933 159.669 69.72C159.882 70.1467 160.282 70.7333 160.869 71.48L162.309 73.32L161.829 79H139.349L138.549 71.4L144.229 69.96L141.669 61.88L125.429 62.12L123.669 67.16C123.509 67.64 123.429 68.04 123.429 68.36C123.429 68.7333 123.482 69.0267 123.589 69.24C123.749 69.4 123.989 69.5333 124.309 69.64L129.829 71.96L129.029 79H108.069L107.749 71.88ZM133.909 37.48L128.629 52.84L138.949 53.32L133.909 37.48ZM270.937 79.32C265.177 79.32 259.417 79.1067 253.657 78.68L253.257 70.84L259.097 69.24V38.76C259.097 37.3733 258.99 36.4667 258.777 36.04C258.564 35.56 258.004 35.1333 257.097 34.76L252.937 32.44L253.417 25.8C262.057 24.68 269.47 24.12 275.657 24.12C283.23 24.12 288.777 25.24 292.297 27.48C295.817 29.72 297.577 33.2667 297.577 38.12C297.577 40.52 297.204 42.6533 296.457 44.52C295.71 46.3333 294.564 47.9867 293.017 49.48C298.35 51.88 301.017 55.7733 301.017 61.16C301.017 65.96 299.684 69.8267 297.017 72.76C294.35 75.6933 290.43 77.6133 285.257 78.52C283.337 79.0533 278.564 79.32 270.937 79.32ZM282.697 46.92C283.23 45.5333 283.497 43.2133 283.497 39.96C283.497 37.72 282.964 36.0667 281.897 35C280.884 33.9333 279.31 33.3467 277.177 33.24C275.79 33.24 274.404 33.2933 273.017 33.4V46.76C273.924 46.7067 275.097 46.68 276.537 46.68C278.724 46.68 280.777 46.76 282.697 46.92ZM279.337 69.4C282.377 69.4 284.537 69.1333 285.817 68.6C286.35 66.4667 286.617 64.5733 286.617 62.92C286.617 60.2533 285.924 58.36 284.537 57.24C283.15 56.12 280.804 55.56 277.497 55.56C276.804 55.56 275.924 55.6133 274.857 55.72L273.017 55.8V68.84C274.884 69.2133 276.99 69.4 279.337 69.4ZM387.944 70.84L393.784 69.24V38.76C393.784 37.3733 393.678 36.4667 393.464 36.04C393.251 35.56 392.691 35.1333 391.784 34.76L387.624 32.44L388.104 25.88C396.104 24.7067 403.811 24.12 411.224 24.12C416.984 24.12 421.624 24.7067 425.144 25.88C428.664 27 431.224 28.7867 432.824 31.24C434.478 33.64 435.304 36.84 435.304 40.84C435.304 44.1467 434.451 47.0533 432.744 49.56C431.038 52.0133 428.611 53.9067 425.464 55.24L438.264 75.88L438.184 79H423.624L411.784 57.64L408.264 57.56V66.52C408.264 67.8 408.344 68.6267 408.504 69C408.718 69.32 409.198 69.6933 409.944 70.12L413.384 72.12L413.064 79H388.344L387.944 70.84ZM413.384 48.6C416.211 48.6 418.291 48.3333 419.624 47.8C420.158 45.88 420.424 43.5867 420.424 40.92C420.424 38.2533 419.838 36.36 418.664 35.24C417.544 34.12 415.651 33.56 412.984 33.56C411.491 33.56 409.971 33.64 408.424 33.8V48.12C409.811 48.44 411.464 48.6 413.384 48.6Z" fill="#B00000"/>
<path d="M41.4694 78.68L40.4707 78.731L40.5156 79.6121L41.3955 79.6773L41.4694 78.68ZM41.0694 70.84L40.8051 69.8755L40.0297 70.088L40.0707 70.891L41.0694 70.84ZM46.9094 69.24L47.1736 70.2045L47.9094 70.0029V69.24H46.9094ZM46.5894 36.04L45.6756 36.4461L45.6848 36.4669L45.6949 36.4872L46.5894 36.04ZM44.9094 34.76L44.4223 35.6334L44.4739 35.6622L44.5286 35.6847L44.9094 34.76ZM40.7494 32.44L39.752 32.3679L39.7061 33.0031L40.2623 33.3134L40.7494 32.44ZM41.2294 25.8L41.1008 24.8083L40.2909 24.9133L40.232 25.7279L41.2294 25.8ZM80.1094 27.48L80.6463 26.6363L80.6463 26.6363L80.1094 27.48ZM84.2694 44.52L85.1941 44.9008L85.1979 44.8914L84.2694 44.52ZM80.8294 49.48L80.1348 48.7606L79.0727 49.7861L80.419 50.3919L80.8294 49.48ZM84.8294 72.76L85.5693 73.4327L85.5693 73.4327L84.8294 72.76ZM73.0694 78.52L72.8967 77.535L72.8487 77.5434L72.8017 77.5565L73.0694 78.52ZM70.5094 46.92L70.4263 47.9165L71.1736 47.9788L71.4427 47.279L70.5094 46.92ZM69.7094 35L68.9844 35.6887L68.9932 35.698L69.0023 35.7071L69.7094 35ZM64.9894 33.24L65.0393 32.2412L65.0144 32.24H64.9894V33.24ZM60.8294 33.4L60.7527 32.4029L59.8294 32.474V33.4H60.8294ZM60.8294 46.76H59.8294V47.8205L60.8881 47.7583L60.8294 46.76ZM73.6294 68.6L74.014 69.5231L74.4777 69.3299L74.5995 68.8425L73.6294 68.6ZM72.3494 57.24L72.9777 56.4621L72.9777 56.4621L72.3494 57.24ZM62.6694 55.72L62.7128 56.7191L62.7409 56.7178L62.7689 56.715L62.6694 55.72ZM60.8294 55.8L60.7859 54.8009L59.8294 54.8425V55.8H60.8294ZM60.8294 68.84H59.8294V69.6598L60.6333 69.8206L60.8294 68.84ZM58.7494 78.32C53.0141 78.32 47.2787 78.1076 41.5432 77.6827L41.3955 79.6773C47.18 80.1058 52.9647 80.32 58.7494 80.32V78.32ZM42.4681 78.629L42.0681 70.789L40.0707 70.891L40.4707 78.731L42.4681 78.629ZM41.3336 71.8045L47.1736 70.2045L46.6451 68.2755L40.8051 69.8755L41.3336 71.8045ZM47.9094 69.24V38.76H45.9094V69.24H47.9094ZM47.9094 38.76C47.9094 38.0454 47.8821 37.4296 47.8225 36.9232C47.7657 36.44 47.6702 35.9657 47.4838 35.5928L45.6949 36.4872C45.7218 36.541 45.7864 36.7333 45.8362 37.1568C45.8833 37.557 45.9094 38.0879 45.9094 38.76H47.9094ZM47.5032 35.6339C47.1259 34.7849 46.2508 34.2309 45.2901 33.8353L44.5286 35.6847C45.3813 36.0358 45.6262 36.3351 45.6756 36.4461L47.5032 35.6339ZM45.3964 33.8866L41.2364 31.5666L40.2623 33.3134L44.4223 35.6334L45.3964 33.8866ZM41.7468 32.5121L42.2268 25.8721L40.232 25.7279L39.752 32.3679L41.7468 32.5121ZM41.3579 26.7917C49.971 25.6752 57.3391 25.12 63.4694 25.12V23.12C57.2263 23.12 49.7677 23.6848 41.1008 24.8083L41.3579 26.7917ZM63.4694 25.12C70.9861 25.12 76.2972 26.2394 79.5725 28.3237L80.6463 26.6363C76.8816 24.2406 71.0993 23.12 63.4694 23.12V25.12ZM79.5725 28.3237C82.7529 30.3476 84.3894 33.5432 84.3894 38.12H86.3894C86.3894 32.9901 84.5058 29.0924 80.6463 26.6363L79.5725 28.3237ZM84.3894 38.12C84.3894 40.4169 84.0321 42.4206 83.3409 44.1486L85.1979 44.8914C86 42.8861 86.3894 40.6231 86.3894 38.12H84.3894ZM83.3447 44.1392C82.6554 45.8132 81.5919 47.3538 80.1348 48.7606L81.524 50.1994C83.1602 48.6196 84.39 46.8535 85.1941 44.9007L83.3447 44.1392ZM80.419 50.3919C82.9581 51.5345 84.797 53.0023 86.0043 54.7651C87.2081 56.5226 87.8294 58.6389 87.8294 61.16H89.8294C89.8294 58.2945 89.1173 55.7708 87.6544 53.6349C86.1951 51.5043 84.034 49.8255 81.2397 48.5681L80.419 50.3919ZM87.8294 61.16C87.8294 65.7664 86.555 69.3752 84.0894 72.0873L85.5693 73.4327C88.4371 70.2782 89.8294 66.1536 89.8294 61.16H87.8294ZM84.0894 72.0873C81.6141 74.8102 77.9225 76.6542 72.8967 77.535L73.242 79.505C78.5629 78.5725 82.7113 76.5765 85.5693 73.4327L84.0894 72.0873ZM72.8017 77.5565C71.9565 77.7913 70.3803 77.9882 67.9936 78.1216C65.6331 78.2534 62.5536 78.32 58.7494 78.32V80.32C62.5718 80.32 65.6924 80.2532 68.1052 80.1184C70.4918 79.9851 72.2623 79.7821 73.337 79.4835L72.8017 77.5565ZM71.4427 47.279C72.0475 45.7066 72.3094 43.2249 72.3094 39.96H70.3094C70.3094 43.2017 70.0379 45.3601 69.576 46.561L71.4427 47.279ZM72.3094 39.96C72.3094 37.5824 71.7449 35.6213 70.4165 34.2929L69.0023 35.7071C69.8072 36.512 70.3094 37.8576 70.3094 39.96H72.3094ZM70.4344 34.3113C69.1781 32.9889 67.314 32.355 65.0393 32.2412L64.9394 34.2388C66.9314 34.3383 68.2139 34.8778 68.9844 35.6887L70.4344 34.3113ZM64.9894 32.24C63.577 32.24 62.1648 32.2943 60.7527 32.4029L60.9061 34.3971C62.2673 34.2923 63.6284 34.24 64.9894 34.24V32.24ZM59.8294 33.4V46.76H61.8294V33.4H59.8294ZM60.8881 47.7583C61.7674 47.7066 62.9191 47.68 64.3494 47.68V45.68C62.8997 45.68 61.7047 45.7068 60.7707 45.7617L60.8881 47.7583ZM64.3494 47.68C66.5119 47.68 68.5373 47.7591 70.4263 47.9165L70.5924 45.9235C68.6414 45.7609 66.5601 45.68 64.3494 45.68V47.68ZM67.1494 70.4C70.2012 70.4 72.5361 70.1389 74.014 69.5231L73.2448 67.6769C72.1627 68.1278 70.1775 68.4 67.1494 68.4V70.4ZM74.5995 68.8425C75.1466 66.6542 75.4294 64.6769 75.4294 62.92H73.4294C73.4294 64.4698 73.1788 66.2791 72.6592 68.3575L74.5995 68.8425ZM75.4294 62.92C75.4294 60.1047 74.6973 57.851 72.9777 56.4621L71.721 58.0179C72.7748 58.869 73.4294 60.402 73.4294 62.92H75.4294ZM72.9777 56.4621C71.3146 55.1188 68.6736 54.56 65.3094 54.56V56.56C68.5584 56.56 70.6108 57.1212 71.721 58.0179L72.9777 56.4621ZM65.3094 54.56C64.5701 54.56 63.6539 54.6166 62.5699 54.725L62.7689 56.715C63.8182 56.6101 64.662 56.56 65.3094 56.56V54.56ZM62.6259 54.7209L60.7859 54.8009L60.8728 56.7991L62.7128 56.7191L62.6259 54.7209ZM59.8294 55.8V68.84H61.8294V55.8H59.8294ZM60.6333 69.8206C62.5774 70.2094 64.7514 70.4 67.1494 70.4V68.4C64.854 68.4 62.8147 68.2173 61.0255 67.8594L60.6333 69.8206ZM107.749 71.88L107.226 71.0274L106.723 71.3356L106.75 71.9249L107.749 71.88ZM110.229 70.36L110.751 71.2126L111.029 71.0425L111.153 70.7415L110.229 70.36ZM128.949 25L128.861 24.0039L128.256 24.0572L128.024 24.6185L128.949 25ZM142.549 23.8L143.487 23.4527L143.221 22.7368L142.461 22.8039L142.549 23.8ZM158.549 67L157.611 67.3473L157.615 67.359L158.549 67ZM160.869 71.48L161.656 70.8637L161.655 70.8622L160.869 71.48ZM162.309 73.32L163.305 73.4042L163.338 73.0129L163.096 72.7037L162.309 73.32ZM161.829 79V80H162.748L162.825 79.0842L161.829 79ZM139.349 79L138.354 79.1047L138.448 80H139.349V79ZM138.549 71.4L138.303 70.4307L137.464 70.6435L137.554 71.5047L138.549 71.4ZM144.229 69.96L144.474 70.9293L145.502 70.6688L145.182 69.658L144.229 69.96ZM141.669 61.88L142.622 61.578L142.397 60.8691L141.654 60.8801L141.669 61.88ZM125.429 62.12L125.414 61.1201L124.715 61.1304L124.485 61.7903L125.429 62.12ZM123.669 67.16L122.725 66.8303L122.722 66.837L122.72 66.8438L123.669 67.16ZM123.589 69.24L122.694 69.6872L122.767 69.8324L122.882 69.9471L123.589 69.24ZM124.309 69.64L124.696 68.7181L124.661 68.7034L124.625 68.6913L124.309 69.64ZM129.829 71.96L130.822 72.0729L130.907 71.3284L130.216 71.0381L129.829 71.96ZM129.029 79V80H129.922L130.022 79.1129L129.029 79ZM108.069 79L107.07 79.0449L107.113 80H108.069V79ZM133.909 37.48L134.862 37.1768L133.945 34.2971L132.963 37.1549L133.909 37.48ZM128.629 52.84L127.683 52.5149L127.249 53.7769L128.582 53.8389L128.629 52.84ZM138.949 53.32L138.902 54.3189L140.337 54.3857L139.902 53.0168L138.949 53.32ZM108.271 72.7326L110.751 71.2126L109.706 69.5074L107.226 71.0274L108.271 72.7326ZM111.153 70.7415L129.873 25.3815L128.024 24.6185L109.304 69.9785L111.153 70.7415ZM129.037 25.9961L142.637 24.7961L142.461 22.8039L128.861 24.0039L129.037 25.9961ZM141.611 24.1473L157.611 67.3473L159.487 66.6527L143.487 23.4527L141.611 24.1473ZM157.615 67.359C158.145 68.7368 158.536 69.6898 158.774 70.1672L160.563 69.2728C160.375 68.8969 160.019 68.0365 159.482 66.641L157.615 67.359ZM158.774 70.1672C159.035 70.6879 159.486 71.3394 160.082 72.0978L161.655 70.8622C161.078 70.1273 160.73 69.6055 160.563 69.2728L158.774 70.1672ZM160.081 72.0963L161.521 73.9363L163.096 72.7037L161.656 70.8637L160.081 72.0963ZM161.312 73.2358L160.832 78.9158L162.825 79.0842L163.305 73.4042L161.312 73.2358ZM161.829 78H139.349V80H161.829V78ZM140.343 78.8953L139.543 71.2953L137.554 71.5047L138.354 79.1047L140.343 78.8953ZM138.794 72.3693L144.474 70.9293L143.983 68.9907L138.303 70.4307L138.794 72.3693ZM145.182 69.658L142.622 61.578L140.715 62.182L143.275 70.262L145.182 69.658ZM141.654 60.8801L125.414 61.1201L125.444 63.1199L141.684 62.8799L141.654 60.8801ZM124.485 61.7903L122.725 66.8303L124.613 67.4897L126.373 62.4497L124.485 61.7903ZM122.72 66.8438C122.543 67.3737 122.429 67.8887 122.429 68.36H124.429C124.429 68.1913 124.474 67.9063 124.617 67.4762L122.72 66.8438ZM122.429 68.36C122.429 68.8096 122.49 69.2784 122.694 69.6872L124.483 68.7928C124.474 68.775 124.429 68.6571 124.429 68.36H122.429ZM122.882 69.9471C123.192 70.2575 123.592 70.455 123.993 70.5887L124.625 68.6913C124.386 68.6116 124.306 68.5425 124.296 68.5329L122.882 69.9471ZM123.921 70.5619L129.441 72.8819L130.216 71.0381L124.696 68.7181L123.921 70.5619ZM128.835 71.8471L128.035 78.8871L130.022 79.1129L130.822 72.0729L128.835 71.8471ZM129.029 78H108.069V80H129.029V78ZM109.068 78.9551L108.748 71.8351L106.75 71.9249L107.07 79.0449L109.068 78.9551ZM132.963 37.1549L127.683 52.5149L129.574 53.1651L134.854 37.8051L132.963 37.1549ZM128.582 53.8389L138.902 54.3189L138.995 52.3211L128.675 51.8411L128.582 53.8389ZM139.902 53.0168L134.862 37.1768L132.956 37.7832L137.996 53.6232L139.902 53.0168ZM182.866 70.84L182.602 69.8755L181.828 70.0876L181.867 70.889L182.866 70.84ZM188.706 69.24L188.97 70.2045L189.706 70.0029V69.24H188.706ZM188.386 36.04L187.472 36.4461L187.482 36.4669L187.492 36.4872L188.386 36.04ZM186.706 34.76L186.219 35.6334L186.271 35.6622L186.325 35.6847L186.706 34.76ZM182.546 32.44L181.549 32.367L181.502 33.0028L182.059 33.3134L182.546 32.44ZM183.026 25.88L182.881 24.8906L182.087 25.007L182.029 25.807L183.026 25.88ZM220.066 25.88L219.75 26.8288L219.763 26.8329L220.066 25.88ZM227.746 31.24L226.909 31.7863L226.916 31.7969L226.923 31.8073L227.746 31.24ZM227.666 49.56L228.487 50.1311L228.493 50.1228L227.666 49.56ZM220.386 55.24L219.996 54.3192L218.921 54.7748L219.536 55.767L220.386 55.24ZM233.186 75.88L234.186 75.9056L234.194 75.6069L234.036 75.353L233.186 75.88ZM233.106 79V80H234.081L234.106 79.0256L233.106 79ZM218.546 79L217.672 79.4848L217.957 80H218.546V79ZM206.706 57.64L207.581 57.1552L207.303 56.6533L206.729 56.6403L206.706 57.64ZM203.186 57.56L203.209 56.5603L202.186 56.537V57.56H203.186ZM203.426 69L202.507 69.3939L202.543 69.4783L202.594 69.5547L203.426 69ZM204.866 70.12L205.369 69.2555L205.362 69.2518L204.866 70.12ZM208.306 72.12L209.305 72.1665L209.333 71.5604L208.809 71.2555L208.306 72.12ZM207.986 79V80H208.941L208.985 79.0465L207.986 79ZM183.266 79L182.267 79.049L182.314 80H183.266V79ZM214.546 47.8L214.918 48.7285L215.377 48.5446L215.51 48.0676L214.546 47.8ZM213.586 35.24L212.879 35.9471L212.887 35.9553L212.896 35.9634L213.586 35.24ZM203.346 33.8L203.243 32.8053L202.346 32.8981V33.8H203.346ZM203.346 48.12H202.346V48.9155L203.121 49.0944L203.346 48.12ZM183.13 71.8045L188.97 70.2045L188.442 68.2755L182.602 69.8755L183.13 71.8045ZM189.706 69.24V38.76H187.706V69.24H189.706ZM189.706 38.76C189.706 38.0454 189.679 37.4296 189.619 36.9232C189.563 36.44 189.467 35.9657 189.281 35.5928L187.492 36.4872C187.519 36.541 187.583 36.7333 187.633 37.1568C187.68 37.557 187.706 38.0879 187.706 38.76H189.706ZM189.3 35.6339C188.923 34.7849 188.048 34.2309 187.087 33.8353L186.325 35.6847C187.178 36.0358 187.423 36.3351 187.472 36.4461L189.3 35.6339ZM187.193 33.8866L183.033 31.5666L182.059 33.3134L186.219 35.6334L187.193 33.8866ZM183.544 32.513L184.024 25.953L182.029 25.807L181.549 32.367L183.544 32.513ZM183.171 26.8694C191.128 25.7025 198.786 25.12 206.146 25.12V23.12C198.68 23.12 190.925 23.7108 182.881 24.8906L183.171 26.8694ZM206.146 25.12C211.851 25.12 216.372 25.7027 219.75 26.8287L220.382 24.9313C216.72 23.7106 211.961 23.12 206.146 23.12V25.12ZM219.763 26.8329C223.122 27.9017 225.465 29.572 226.909 31.7863L228.584 30.6937C226.828 28.0013 224.05 26.0983 220.369 24.9271L219.763 26.8329ZM226.923 31.8073C228.426 33.9887 229.226 36.9691 229.226 40.84H231.226C231.226 36.7109 230.374 33.2912 228.57 30.6727L226.923 31.8073ZM229.226 40.84C229.226 43.9649 228.423 46.6715 226.84 48.9972L228.493 50.1228C230.323 47.4351 231.226 44.3284 231.226 40.84H229.226ZM226.845 48.9889C225.261 51.2661 222.995 53.0487 219.996 54.3192L220.776 56.1607C224.071 54.7646 226.658 52.7605 228.487 50.1311L226.845 48.9889ZM219.536 55.767L232.336 76.407L234.036 75.353L221.236 54.713L219.536 55.767ZM232.187 75.8544L232.107 78.9744L234.106 79.0256L234.186 75.9056L232.187 75.8544ZM233.106 78H218.546V80H233.106V78ZM219.421 78.5152L207.581 57.1552L205.832 58.1248L217.672 79.4848L219.421 78.5152ZM206.729 56.6403L203.209 56.5603L203.164 58.5597L206.684 58.6397L206.729 56.6403ZM202.186 57.56V66.52H204.186V57.56H202.186ZM202.186 66.52C202.186 67.177 202.207 67.7388 202.251 68.1963C202.293 68.6284 202.363 69.0578 202.507 69.3939L204.345 68.6061C204.346 68.6063 204.344 68.603 204.341 68.5953C204.339 68.5877 204.335 68.5769 204.331 68.5623C204.323 68.5327 204.312 68.4922 204.302 68.4389C204.28 68.3311 204.259 68.1878 204.242 68.0037C204.206 67.6346 204.186 67.143 204.186 66.52H202.186ZM202.594 69.5547C202.949 70.0867 203.616 70.5572 204.37 70.9882L205.362 69.2518C204.623 68.8294 204.33 68.5533 204.258 68.4453L202.594 69.5547ZM204.364 70.9845L207.804 72.9845L208.809 71.2555L205.369 69.2555L204.364 70.9845ZM207.307 72.0735L206.987 78.9535L208.985 79.0465L209.305 72.1665L207.307 72.0735ZM207.986 78H183.266V80H207.986V78ZM184.265 78.951L183.865 70.791L181.867 70.889L182.267 79.049L184.265 78.951ZM208.306 49.6C211.161 49.6 213.4 49.3355 214.918 48.7285L214.175 46.8715C213.026 47.3311 211.105 47.6 208.306 47.6V49.6ZM215.51 48.0676C216.074 46.0368 216.346 43.6487 216.346 40.92H214.346C214.346 43.5247 214.085 45.7232 213.583 47.5324L215.51 48.0676ZM216.346 40.92C216.346 38.1486 215.743 35.9165 214.277 34.5166L212.896 35.9634C213.776 36.8035 214.346 38.358 214.346 40.92H216.346ZM214.293 34.5329C212.892 33.1319 210.667 32.56 207.906 32.56V34.56C210.478 34.56 212.04 35.1081 212.879 35.9471L214.293 34.5329ZM207.906 32.56C206.377 32.56 204.823 32.6419 203.243 32.8053L203.449 34.7947C204.963 34.6381 206.449 34.56 207.906 34.56V32.56ZM202.346 33.8V48.12H204.346V33.8H202.346ZM203.121 49.0944C204.602 49.4361 206.335 49.6 208.306 49.6V47.6C206.438 47.6 204.864 47.4439 203.571 47.1456L203.121 49.0944ZM253.657 78.68L252.658 78.731L252.703 79.6121L253.583 79.6773L253.657 78.68ZM253.257 70.84L252.993 69.8755L252.217 70.088L252.258 70.891L253.257 70.84ZM259.097 69.24L259.361 70.2045L260.097 70.0029V69.24H259.097ZM258.777 36.04L257.863 36.4461L257.872 36.4669L257.882 36.4872L258.777 36.04ZM257.097 34.76L256.61 35.6334L256.661 35.6622L256.716 35.6847L257.097 34.76ZM252.937 32.44L251.939 32.3679L251.894 33.0031L252.45 33.3134L252.937 32.44ZM253.417 25.8L253.288 24.8083L252.478 24.9133L252.419 25.7279L253.417 25.8ZM292.297 27.48L292.834 26.6363L292.834 26.6363L292.297 27.48ZM296.457 44.52L297.382 44.9008L297.385 44.8914L296.457 44.52ZM293.017 49.48L292.322 48.7606L291.26 49.7861L292.607 50.3919L293.017 49.48ZM297.017 72.76L297.757 73.4327L297.757 73.4327L297.017 72.76ZM285.257 78.52L285.084 77.535L285.036 77.5434L284.989 77.5565L285.257 78.52ZM282.697 46.92L282.614 47.9165L283.361 47.9788L283.63 47.279L282.697 46.92ZM281.897 35L281.172 35.6887L281.181 35.698L281.19 35.7071L281.897 35ZM277.177 33.24L277.227 32.2412L277.202 32.24H277.177V33.24ZM273.017 33.4L272.94 32.4029L272.017 32.474V33.4H273.017ZM273.017 46.76H272.017V47.8205L273.076 47.7583L273.017 46.76ZM285.817 68.6L286.201 69.5231L286.665 69.3299L286.787 68.8425L285.817 68.6ZM284.537 57.24L285.165 56.4621L285.165 56.4621L284.537 57.24ZM274.857 55.72L274.9 56.7191L274.928 56.7178L274.956 56.715L274.857 55.72ZM273.017 55.8L272.973 54.8009L272.017 54.8425V55.8H273.017ZM273.017 68.84H272.017V69.6598L272.821 69.8206L273.017 68.84ZM270.937 78.32C265.202 78.32 259.466 78.1076 253.731 77.6827L253.583 79.6773C259.368 80.1058 265.152 80.32 270.937 80.32V78.32ZM254.656 78.629L254.256 70.789L252.258 70.891L252.658 78.731L254.656 78.629ZM253.521 71.8045L259.361 70.2045L258.833 68.2755L252.993 69.8755L253.521 71.8045ZM260.097 69.24V38.76H258.097V69.24H260.097ZM260.097 38.76C260.097 38.0454 260.07 37.4296 260.01 36.9232C259.953 36.44 259.858 35.9657 259.671 35.5928L257.882 36.4872C257.909 36.541 257.974 36.7333 258.024 37.1568C258.071 37.557 258.097 38.0879 258.097 38.76H260.097ZM259.691 35.6339C259.313 34.7849 258.438 34.2309 257.478 33.8353L256.716 35.6847C257.569 36.0358 257.814 36.3351 257.863 36.4461L259.691 35.6339ZM257.584 33.8866L253.424 31.5666L252.45 33.3134L256.61 35.6334L257.584 33.8866ZM253.934 32.5121L254.414 25.8721L252.419 25.7279L251.939 32.3679L253.934 32.5121ZM253.545 26.7917C262.159 25.6752 269.527 25.12 275.657 25.12V23.12C269.414 23.12 261.955 23.6848 253.288 24.8083L253.545 26.7917ZM275.657 25.12C283.174 25.12 288.485 26.2394 291.76 28.3237L292.834 26.6363C289.069 24.2406 283.287 23.12 275.657 23.12V25.12ZM291.76 28.3237C294.94 30.3476 296.577 33.5432 296.577 38.12H298.577C298.577 32.9901 296.693 29.0924 292.834 26.6363L291.76 28.3237ZM296.577 38.12C296.577 40.4169 296.22 42.4206 295.528 44.1486L297.385 44.8914C298.187 42.8861 298.577 40.6231 298.577 38.12H296.577ZM295.532 44.1392C294.843 45.8132 293.779 47.3538 292.322 48.7606L293.711 50.1994C295.348 48.6196 296.578 46.8535 297.382 44.9007L295.532 44.1392ZM292.607 50.3919C295.146 51.5345 296.984 53.0023 298.192 54.7651C299.396 56.5226 300.017 58.6389 300.017 61.16H302.017C302.017 58.2945 301.305 55.7708 299.842 53.6349C298.383 51.5043 296.221 49.8255 293.427 48.5681L292.607 50.3919ZM300.017 61.16C300.017 65.7664 298.743 69.3752 296.277 72.0873L297.757 73.4327C300.625 70.2782 302.017 66.1536 302.017 61.16H300.017ZM296.277 72.0873C293.802 74.8102 290.11 76.6542 285.084 77.535L285.43 79.505C290.75 78.5725 294.899 76.5765 297.757 73.4327L296.277 72.0873ZM284.989 77.5565C284.144 77.7913 282.568 77.9882 280.181 78.1216C277.821 78.2534 274.741 78.32 270.937 78.32V80.32C274.759 80.32 277.88 80.2532 280.293 80.1184C282.679 79.9851 284.45 79.7821 285.525 79.4835L284.989 77.5565ZM283.63 47.279C284.235 45.7066 284.497 43.2249 284.497 39.96H282.497C282.497 43.2017 282.225 45.3601 281.764 46.561L283.63 47.279ZM284.497 39.96C284.497 37.5824 283.932 35.6213 282.604 34.2929L281.19 35.7071C281.995 36.512 282.497 37.8576 282.497 39.96H284.497ZM282.622 34.3113C281.366 32.9889 279.501 32.355 277.227 32.2412L277.127 34.2388C279.119 34.3383 280.401 34.8778 281.172 35.6887L282.622 34.3113ZM277.177 32.24C275.765 32.24 274.352 32.2943 272.94 32.4029L273.094 34.3971C274.455 34.2923 275.816 34.24 277.177 34.24V32.24ZM272.017 33.4V46.76H274.017V33.4H272.017ZM273.076 47.7583C273.955 47.7066 275.107 47.68 276.537 47.68V45.68C275.087 45.68 273.892 45.7068 272.958 45.7617L273.076 47.7583ZM276.537 47.68C278.699 47.68 280.725 47.7591 282.614 47.9165L282.78 45.9235C280.829 45.7609 278.748 45.68 276.537 45.68V47.68ZM279.337 70.4C282.389 70.4 284.724 70.1389 286.201 69.5231L285.432 67.6769C284.35 68.1278 282.365 68.4 279.337 68.4V70.4ZM286.787 68.8425C287.334 66.6542 287.617 64.6769 287.617 62.92H285.617C285.617 64.4698 285.366 66.2791 284.847 68.3575L286.787 68.8425ZM287.617 62.92C287.617 60.1047 286.885 57.851 285.165 56.4621L283.909 58.0179C284.962 58.869 285.617 60.402 285.617 62.92H287.617ZM285.165 56.4621C283.502 55.1188 280.861 54.56 277.497 54.56V56.56C280.746 56.56 282.798 57.1212 283.909 58.0179L285.165 56.4621ZM277.497 54.56C276.758 54.56 275.841 54.6166 274.757 54.725L274.956 56.715C276.006 56.6101 276.85 56.56 277.497 56.56V54.56ZM274.813 54.7209L272.973 54.8009L273.06 56.7991L274.9 56.7191L274.813 54.7209ZM272.017 55.8V68.84H274.017V55.8H272.017ZM272.821 69.8206C274.765 70.2094 276.939 70.4 279.337 70.4V68.4C277.042 68.4 275.002 68.2173 273.213 67.8594L272.821 69.8206ZM320.816 70.84L320.552 69.8755L319.778 70.0876L319.817 70.889L320.816 70.84ZM326.656 69.24L326.92 70.2045L327.656 70.0029V69.24H326.656ZM326.336 35.88L325.422 36.2861L325.432 36.3069L325.442 36.3272L326.336 35.88ZM324.656 34.6L324.155 35.465L324.213 35.4989L324.276 35.5247L324.656 34.6ZM320.656 32.28L319.657 32.2467L319.637 32.8448L320.155 33.145L320.656 32.28ZM320.896 25.08V24.08H319.929L319.897 25.0467L320.896 25.08ZM364.336 25.08L365.334 25.0135L365.272 24.08H364.336V25.08ZM364.896 41.48L364.964 42.4777L365.896 42.4147V41.48H364.896ZM358.976 41.88L358.198 42.5079L358.525 42.9128L359.044 42.8777L358.976 41.88ZM353.296 34.84L354.075 34.2121L353.784 33.8526L353.323 33.8403L353.296 34.84ZM341.216 34.52L341.243 33.5203L340.216 33.4932V34.52H341.216ZM341.216 47.56H340.216V48.6481L341.3 48.5564L341.216 47.56ZM358.256 46.12H359.256V45.0319L358.172 45.1236L358.256 46.12ZM358.256 58.44L358.149 59.4342L359.256 59.5538V58.44H358.256ZM341.216 56.6L341.324 55.6058L340.216 55.4862V56.6H341.216ZM341.216 69.48H340.216V70.4982L341.234 70.4798L341.216 69.48ZM354.496 69.24L354.514 70.2398L354.957 70.2318L355.249 69.8985L354.496 69.24ZM360.656 62.2L360.724 61.2023L360.23 61.1689L359.904 61.5415L360.656 62.2ZM366.576 62.6L367.576 62.6381L367.612 61.6677L366.644 61.6023L366.576 62.6ZM365.376 79V80H366.272L366.37 79.1093L365.376 79ZM321.216 79L320.217 79.049L320.264 80H321.216V79ZM321.08 71.8045L326.92 70.2045L326.392 68.2755L320.552 69.8755L321.08 71.8045ZM327.656 69.24V38.6H325.656V69.24H327.656ZM327.656 38.6C327.656 37.8854 327.629 37.2696 327.569 36.7632C327.513 36.28 327.417 35.8057 327.231 35.4328L325.442 36.3272C325.469 36.381 325.533 36.5733 325.583 36.9968C325.63 37.397 325.656 37.9279 325.656 38.6H327.656ZM327.25 35.4739C326.873 34.6249 325.998 34.0709 325.037 33.6753L324.276 35.5247C325.128 35.8758 325.373 36.1751 325.422 36.2861L327.25 35.4739ZM325.158 33.735L321.158 31.415L320.155 33.145L324.155 35.465L325.158 33.735ZM321.656 32.3133L321.896 25.1133L319.897 25.0467L319.657 32.2467L321.656 32.3133ZM320.896 26.08H364.336V24.08H320.896V26.08ZM363.338 25.1465C363.71 30.7255 363.896 36.17 363.896 41.48H365.896C365.896 36.1234 365.709 30.6345 365.334 25.0135L363.338 25.1465ZM364.829 40.4823L358.909 40.8823L359.044 42.8777L364.964 42.4777L364.829 40.4823ZM359.755 41.2521L354.075 34.2121L352.518 35.4679L358.198 42.5079L359.755 41.2521ZM353.323 33.8403L341.243 33.5203L341.19 35.5196L353.27 35.8396L353.323 33.8403ZM340.216 34.52V47.56H342.216V34.52H340.216ZM341.3 48.5564L358.34 47.1164L358.172 45.1236L341.132 46.5636L341.3 48.5564ZM357.256 46.12V58.44H359.256V46.12H357.256ZM358.364 57.4458L341.324 55.6058L341.109 57.5942L358.149 59.4342L358.364 57.4458ZM340.216 56.6V69.48H342.216V56.6H340.216ZM341.234 70.4798L354.514 70.2398L354.478 68.2402L341.198 68.4802L341.234 70.4798ZM355.249 69.8985L361.409 62.8585L359.904 61.5415L353.744 68.5815L355.249 69.8985ZM360.589 63.1977L366.509 63.5977L366.644 61.6023L360.724 61.2023L360.589 63.1977ZM365.577 62.5619C365.365 68.1392 364.966 73.582 364.382 78.8907L366.37 79.1093C366.96 73.7513 367.361 68.2608 367.576 62.6381L365.577 62.5619ZM365.376 78H321.216V80H365.376V78ZM322.215 78.951L321.815 70.791L319.817 70.889L320.217 79.049L322.215 78.951ZM387.944 70.84L387.68 69.8755L386.906 70.0876L386.946 70.889L387.944 70.84ZM393.784 69.24L394.049 70.2045L394.784 70.0029V69.24H393.784ZM393.464 36.04L392.551 36.4461L392.56 36.4669L392.57 36.4872L393.464 36.04ZM391.784 34.76L391.297 35.6334L391.349 35.6622L391.404 35.6847L391.784 34.76ZM387.624 32.44L386.627 32.367L386.581 33.0028L387.137 33.3134L387.624 32.44ZM388.104 25.88L387.959 24.8906L387.166 25.007L387.107 25.807L388.104 25.88ZM425.144 25.88L424.828 26.8288L424.841 26.8329L425.144 25.88ZM432.824 31.24L431.987 31.7863L431.994 31.7969L432.001 31.8073L432.824 31.24ZM432.744 49.56L433.565 50.1311L433.571 50.1228L432.744 49.56ZM425.464 55.24L425.074 54.3192L423.999 54.7748L424.615 55.767L425.464 55.24ZM438.264 75.88L439.264 75.9056L439.272 75.6069L439.114 75.353L438.264 75.88ZM438.184 79V80H439.159L439.184 79.0256L438.184 79ZM423.624 79L422.75 79.4848L423.035 80H423.624V79ZM411.784 57.64L412.659 57.1552L412.381 56.6533L411.807 56.6403L411.784 57.64ZM408.264 57.56L408.287 56.5603L407.264 56.537V57.56H408.264ZM408.504 69L407.585 69.3939L407.621 69.4783L407.672 69.5547L408.504 69ZM409.944 70.12L410.447 69.2555L410.441 69.2518L409.944 70.12ZM413.384 72.12L414.383 72.1665L414.411 71.5604L413.887 71.2555L413.384 72.12ZM413.064 79V80H414.019L414.063 79.0465L413.064 79ZM388.344 79L387.346 79.049L387.392 80H388.344V79ZM419.624 47.8L419.996 48.7285L420.455 48.5446L420.588 48.0676L419.624 47.8ZM418.664 35.24L417.957 35.9471L417.965 35.9553L417.974 35.9634L418.664 35.24ZM408.424 33.8L408.321 32.8053L407.424 32.8981V33.8H408.424ZM408.424 48.12H407.424V48.9155L408.2 49.0944L408.424 48.12ZM388.209 71.8045L394.049 70.2045L393.52 68.2755L387.68 69.8755L388.209 71.8045ZM394.784 69.24V38.76H392.784V69.24H394.784ZM394.784 38.76C394.784 38.0454 394.757 37.4296 394.698 36.9232C394.641 36.44 394.545 35.9657 394.359 35.5928L392.57 36.4872C392.597 36.541 392.661 36.7333 392.711 37.1568C392.758 37.557 392.784 38.0879 392.784 38.76H394.784ZM394.378 35.6339C394.001 34.7849 393.126 34.2309 392.165 33.8353L391.404 35.6847C392.256 36.0358 392.501 36.3351 392.551 36.4461L394.378 35.6339ZM392.271 33.8866L388.111 31.5666L387.137 33.3134L391.297 35.6334L392.271 33.8866ZM388.622 32.513L389.102 25.953L387.107 25.807L386.627 32.367L388.622 32.513ZM388.249 26.8694C396.206 25.7025 403.864 25.12 411.224 25.12V23.12C403.758 23.12 396.003 23.7108 387.959 24.8906L388.249 26.8694ZM411.224 25.12C416.929 25.12 421.45 25.7027 424.828 26.8287L425.461 24.9313C421.799 23.7106 417.039 23.12 411.224 23.12V25.12ZM424.841 26.8329C428.2 27.9017 430.543 29.572 431.987 31.7863L433.662 30.6937C431.906 28.0013 429.129 26.0983 425.448 24.9271L424.841 26.8329ZM432.001 31.8073C433.504 33.9887 434.304 36.9691 434.304 40.84H436.304C436.304 36.7109 435.452 33.2912 433.648 30.6727L432.001 31.8073ZM434.304 40.84C434.304 43.9649 433.501 46.6715 431.918 48.9972L433.571 50.1228C435.401 47.4351 436.304 44.3284 436.304 40.84H434.304ZM431.923 48.9889C430.339 51.2661 428.073 53.0487 425.074 54.3192L425.855 56.1607C429.149 54.7646 431.736 52.7605 433.565 50.1311L431.923 48.9889ZM424.615 55.767L437.415 76.407L439.114 75.353L426.314 54.713L424.615 55.767ZM437.265 75.8544L437.185 78.9744L439.184 79.0256L439.264 75.9056L437.265 75.8544ZM438.184 78H423.624V80H438.184V78ZM424.499 78.5152L412.659 57.1552L410.91 58.1248L422.75 79.4848L424.499 78.5152ZM411.807 56.6403L408.287 56.5603L408.242 58.5597L411.762 58.6397L411.807 56.6403ZM407.264 57.56V66.52H409.264V57.56H407.264ZM407.264 66.52C407.264 67.177 407.285 67.7388 407.329 68.1963C407.371 68.6284 407.441 69.0578 407.585 69.3939L409.424 68.6061C409.424 68.6063 409.422 68.603 409.42 68.5953C409.417 68.5877 409.413 68.5769 409.409 68.5623C409.401 68.5327 409.391 68.4922 409.38 68.4389C409.358 68.3311 409.338 68.1878 409.32 68.0037C409.284 67.6346 409.264 67.143 409.264 66.52H407.264ZM407.672 69.5547C408.027 70.0867 408.694 70.5572 409.448 70.9882L410.441 69.2518C409.701 68.8294 409.408 68.5533 409.336 68.4453L407.672 69.5547ZM409.442 70.9845L412.882 72.9845L413.887 71.2555L410.447 69.2555L409.442 70.9845ZM412.385 72.0735L412.065 78.9535L414.063 79.0465L414.383 72.1665L412.385 72.0735ZM413.064 78H388.344V80H413.064V78ZM389.343 78.951L388.943 70.791L386.946 70.889L387.346 79.049L389.343 78.951ZM413.384 49.6C416.239 49.6 418.478 49.3355 419.996 48.7285L419.253 46.8715C418.104 47.3311 416.183 47.6 413.384 47.6V49.6ZM420.588 48.0676C421.152 46.0368 421.424 43.6487 421.424 40.92H419.424C419.424 43.5247 419.163 45.7232 418.661 47.5324L420.588 48.0676ZM421.424 40.92C421.424 38.1486 420.821 35.9165 419.355 34.5166L417.974 35.9634C418.854 36.8035 419.424 38.358 419.424 40.92H421.424ZM419.371 34.5329C417.97 33.1319 415.746 32.56 412.984 32.56V34.56C415.556 34.56 417.118 35.1081 417.957 35.9471L419.371 34.5329ZM412.984 32.56C411.455 32.56 409.901 32.6419 408.321 32.8053L408.527 34.7947C410.041 34.6381 411.527 34.56 412.984 34.56V32.56ZM407.424 33.8V48.12H409.424V33.8H407.424ZM408.2 49.0944C409.68 49.4361 411.413 49.6 413.384 49.6V47.6C411.516 47.6 409.942 47.4439 408.649 47.1456L408.2 49.0944Z" fill="black"/>
<path d="M22.6947 158.32C16.9347 158.32 11.1747 158.107 5.41469 157.68L5.01469 149.84L10.8547 148.24V117.76C10.8547 116.373 10.748 115.467 10.5347 115.04C10.3214 114.56 9.76135 114.133 8.85469 113.76L4.69469 111.44L5.17469 104.8C13.8147 103.68 21.228 103.12 27.4147 103.12C34.988 103.12 40.5347 104.24 44.0547 106.48C47.5747 108.72 49.3347 112.267 49.3347 117.12C49.3347 119.52 48.9614 121.653 48.2147 123.52C47.468 125.333 46.3214 126.987 44.7747 128.48C50.108 130.88 52.7747 134.773 52.7747 140.16C52.7747 144.96 51.4414 148.827 48.7747 151.76C46.108 154.693 42.188 156.613 37.0147 157.52C35.0947 158.053 30.3214 158.32 22.6947 158.32ZM34.4547 125.92C34.988 124.533 35.2547 122.213 35.2547 118.96C35.2547 116.72 34.7214 115.067 33.6547 114C32.6414 112.933 31.068 112.347 28.9347 112.24C27.548 112.24 26.1614 112.293 24.7747 112.4V125.76C25.6814 125.707 26.8547 125.68 28.2947 125.68C30.4814 125.68 32.5347 125.76 34.4547 125.92ZM31.0947 148.4C34.1347 148.4 36.2947 148.133 37.5747 147.6C38.108 145.467 38.3747 143.573 38.3747 141.92C38.3747 139.253 37.6814 137.36 36.2947 136.24C34.908 135.12 32.5614 134.56 29.2547 134.56C28.5614 134.56 27.6814 134.613 26.6147 134.72L24.7747 134.8V147.84C26.6414 148.213 28.748 148.4 31.0947 148.4ZM169.125 159.12C160.271 159.12 153.658 156.88 149.285 152.4C144.965 147.92 142.805 141.12 142.805 132C142.805 126.08 143.898 120.96 146.085 116.64C148.271 112.267 151.391 108.907 155.445 106.56C159.498 104.213 164.325 103.04 169.925 103.04C187.738 103.04 196.645 112.133 196.645 130.32C196.645 136.293 195.551 141.44 193.365 145.76C191.178 150.08 188.005 153.387 183.845 155.68C179.738 157.973 174.831 159.12 169.125 159.12ZM170.805 148.08C173.845 148.08 176.751 147.307 179.525 145.76C180.111 144.107 180.565 142.053 180.885 139.6C181.205 137.093 181.365 134.64 181.365 132.24C181.365 126.32 180.245 121.84 178.005 118.8C175.818 115.76 172.591 114.24 168.325 114.24C165.285 114.24 162.351 114.8 159.525 115.92C158.938 116.933 158.485 118.613 158.165 120.96C157.845 123.253 157.685 125.893 157.685 128.88C157.685 135.067 158.805 139.813 161.045 143.12C163.285 146.427 166.538 148.08 170.805 148.08ZM287.71 150.88L290.19 149.36L308.91 104L322.51 102.8L338.51 146C339.043 147.387 339.416 148.293 339.63 148.72C339.843 149.147 340.243 149.733 340.83 150.48L342.27 152.32L341.79 158H319.31L318.51 150.4L324.19 148.96L321.63 140.88L305.39 141.12L303.63 146.16C303.47 146.64 303.39 147.04 303.39 147.36C303.39 147.733 303.443 148.027 303.55 148.24C303.71 148.4 303.95 148.533 304.27 148.64L309.79 150.96L308.99 158H288.03L287.71 150.88ZM313.87 116.48L308.59 131.84L318.91 132.32L313.87 116.48ZM427.185 148.08L452.225 114.72L440.945 115.52L434.625 122.4L428.305 121.2L430.465 104.08H470.625L471.425 113.2L445.665 147.36L461.105 146.4L466.705 139.28L473.425 140.8C472.519 148.693 471.799 154.427 471.265 158H427.745L427.185 148.08Z" fill="#002C85"/>
<path d="M73.3741 149.84L79.2141 148.24V117.76C79.2141 116.373 79.1074 115.467 78.8941 115.04C78.6807 114.56 78.1207 114.133 77.2141 113.76L73.0541 111.44L73.5341 104.88C81.5341 103.707 89.2407 103.12 96.6541 103.12C102.414 103.12 107.054 103.707 110.574 104.88C114.094 106 116.654 107.787 118.254 110.24C119.907 112.64 120.734 115.84 120.734 119.84C120.734 123.147 119.881 126.053 118.174 128.56C116.467 131.013 114.041 132.907 110.894 134.24L123.694 154.88L123.614 158H109.054L97.2141 136.64L93.6941 136.56V145.52C93.6941 146.8 93.7741 147.627 93.9341 148C94.1474 148.32 94.6274 148.693 95.3741 149.12L98.8141 151.12L98.4941 158H73.7741L73.3741 149.84ZM98.8141 127.6C101.641 127.6 103.721 127.333 105.054 126.8C105.587 124.88 105.854 122.587 105.854 119.92C105.854 117.253 105.267 115.36 104.094 114.24C102.974 113.12 101.081 112.56 98.4141 112.56C96.9207 112.56 95.4007 112.64 93.8541 112.8V127.12C95.2407 127.44 96.8941 127.6 98.8141 127.6ZM232.35 158.24C226.59 158.24 221.284 158 216.43 157.52L216.03 149.84L221.87 148.24V117.76C221.87 116.373 221.764 115.467 221.55 115.04C221.337 114.56 220.777 114.133 219.87 113.76L215.71 111.44L216.19 104.8C221.737 104.373 226.404 104.053 230.19 103.84C233.977 103.573 237.017 103.44 239.31 103.44C246.67 103.44 252.564 104.293 256.99 106C261.47 107.707 264.724 110.4 266.75 114.08C268.83 117.76 269.87 122.64 269.87 128.72C269.87 136.4 268.11 142.613 264.59 147.36C261.444 151.467 257.257 154.32 252.03 155.92C246.857 157.467 240.297 158.24 232.35 158.24ZM242.43 146.8C246.91 146.8 250.457 146.267 253.07 145.2C253.55 143.867 253.977 141.787 254.35 138.96C254.777 136.133 254.99 133.493 254.99 131.04C254.99 125.013 253.737 120.56 251.23 117.68C248.777 114.8 245.017 113.36 239.95 113.36C239.257 113.36 238.617 113.387 238.03 113.44C237.444 113.493 236.884 113.547 236.35 113.6V146.4C238.484 146.667 240.51 146.8 242.43 146.8ZM384.335 159.2C376.228 159.2 369.988 156.72 365.615 151.76C361.241 146.8 359.055 139.787 359.055 130.72C359.055 124.96 360.095 120 362.175 115.84C364.308 111.627 367.375 108.427 371.375 106.24C375.375 104 380.121 102.88 385.615 102.88C391.855 102.88 398.281 104.293 404.895 107.12C404.415 111.92 403.641 117.227 402.575 123.04L396.495 123.44L390.975 115.36C388.628 114.667 386.041 114.32 383.215 114.32C381.081 114.32 379.055 114.507 377.135 114.88C376.281 116.533 375.588 118.72 375.055 121.44C374.521 124.16 374.255 126.907 374.255 129.68C374.255 135.6 375.321 140 377.455 142.88C379.641 145.707 383.081 147.173 387.775 147.28C389.641 147.28 391.988 147.013 394.815 146.48C397.695 145.893 400.495 145.147 403.215 144.24L405.695 153.04C402.921 154.853 399.561 156.347 395.615 157.52C391.721 158.64 387.961 159.2 384.335 159.2Z" fill="#B00000"/>
<path d="M5.41469 157.68L4.41599 157.731L4.46094 158.612L5.34082 158.677L5.41469 157.68ZM5.01469 149.84L4.75045 148.876L3.97502 149.088L4.01599 149.891L5.01469 149.84ZM10.8547 148.24L11.1189 149.204L11.8547 149.003V148.24H10.8547ZM10.5347 115.04L9.62088 115.446L9.6301 115.467L9.64026 115.487L10.5347 115.04ZM8.85469 113.76L8.36762 114.633L8.41926 114.662L8.47394 114.685L8.85469 113.76ZM4.69469 111.44L3.69729 111.368L3.65137 112.003L4.20762 112.313L4.69469 111.44ZM5.17469 104.8L5.04613 103.808L4.23618 103.913L4.17729 104.728L5.17469 104.8ZM44.0547 106.48L44.5916 105.636L44.5916 105.636L44.0547 106.48ZM48.2147 123.52L49.1394 123.901L49.1432 123.891L48.2147 123.52ZM44.7747 128.48L44.0801 127.761L43.018 128.786L44.3643 129.392L44.7747 128.48ZM48.7747 151.76L49.5146 152.433L49.5146 152.433L48.7747 151.76ZM37.0147 157.52L36.8421 156.535L36.794 156.543L36.747 156.556L37.0147 157.52ZM34.4547 125.92L34.3716 126.917L35.1189 126.979L35.388 126.279L34.4547 125.92ZM33.6547 114L32.9297 114.689L32.9385 114.698L32.9476 114.707L33.6547 114ZM28.9347 112.24L28.9846 111.241L28.9597 111.24H28.9347V112.24ZM24.7747 112.4L24.698 111.403L23.7747 111.474V112.4H24.7747ZM24.7747 125.76H23.7747V126.821L24.8334 126.758L24.7747 125.76ZM37.5747 147.6L37.9593 148.523L38.423 148.33L38.5448 147.843L37.5747 147.6ZM36.2947 136.24L36.923 135.462L36.923 135.462L36.2947 136.24ZM26.6147 134.72L26.6581 135.719L26.6862 135.718L26.7142 135.715L26.6147 134.72ZM24.7747 134.8L24.7313 133.801L23.7747 133.843V134.8H24.7747ZM24.7747 147.84H23.7747V148.66L24.5786 148.821L24.7747 147.84ZM22.6947 157.32C16.9594 157.32 11.224 157.108 5.48856 156.683L5.34082 158.677C11.1253 159.106 16.91 159.32 22.6947 159.32V157.32ZM6.41339 157.629L6.01339 149.789L4.01599 149.891L4.41599 157.731L6.41339 157.629ZM5.27892 150.804L11.1189 149.204L10.5905 147.276L4.75045 148.876L5.27892 150.804ZM11.8547 148.24V117.76H9.85469V148.24H11.8547ZM11.8547 117.76C11.8547 117.045 11.8274 116.43 11.7678 115.923C11.711 115.44 11.6155 114.966 11.4291 114.593L9.64026 115.487C9.66716 115.541 9.73171 115.733 9.78154 116.157C9.82862 116.557 9.85469 117.088 9.85469 117.76H11.8547ZM11.4485 114.634C11.0712 113.785 10.1961 113.231 9.23544 112.835L8.47394 114.685C9.32658 115.036 9.57153 115.335 9.62088 115.446L11.4485 114.634ZM9.34176 112.887L5.18176 110.567L4.20762 112.313L8.36762 114.633L9.34176 112.887ZM5.69208 111.512L6.17208 104.872L4.17729 104.728L3.69729 111.368L5.69208 111.512ZM5.30324 105.792C13.9163 104.675 21.2844 104.12 27.4147 104.12V102.12C21.1717 102.12 13.713 102.685 5.04613 103.808L5.30324 105.792ZM27.4147 104.12C34.9314 104.12 40.2425 105.239 43.5178 107.324L44.5916 105.636C40.8269 103.241 35.0447 102.12 27.4147 102.12V104.12ZM43.5178 107.324C46.6983 109.348 48.3347 112.543 48.3347 117.12H50.3347C50.3347 111.99 48.4511 108.092 44.5916 105.636L43.5178 107.324ZM48.3347 117.12C48.3347 119.417 47.9774 121.421 47.2862 123.149L49.1432 123.891C49.9453 121.886 50.3347 119.623 50.3347 117.12H48.3347ZM47.29 123.139C46.6007 124.813 45.5372 126.354 44.0801 127.761L45.4693 129.199C47.1055 127.62 48.3353 125.853 49.1394 123.901L47.29 123.139ZM44.3643 129.392C46.9035 130.535 48.7423 132.002 49.9497 133.765C51.1534 135.523 51.7747 137.639 51.7747 140.16H53.7747C53.7747 137.294 53.0626 134.771 51.5997 132.635C50.1404 130.504 47.9793 128.825 45.1851 127.568L44.3643 129.392ZM51.7747 140.16C51.7747 144.766 50.5003 148.375 48.0348 151.087L49.5146 152.433C52.3824 149.278 53.7747 145.154 53.7747 140.16H51.7747ZM48.0348 151.087C45.5594 153.81 41.8678 155.654 36.8421 156.535L37.1873 158.505C42.5082 157.572 46.6566 155.576 49.5146 152.433L48.0348 151.087ZM36.747 156.556C35.9018 156.791 34.3256 156.988 31.9389 157.122C29.5784 157.253 26.4989 157.32 22.6947 157.32V159.32C26.5171 159.32 29.6377 159.253 32.0505 159.118C34.4371 158.985 36.2076 158.782 37.2823 158.484L36.747 156.556ZM35.388 126.279C35.9928 124.707 36.2547 122.225 36.2547 118.96H34.2547C34.2547 122.202 33.9832 124.36 33.5213 125.561L35.388 126.279ZM36.2547 118.96C36.2547 116.582 35.6902 114.621 34.3618 113.293L32.9476 114.707C33.7525 115.512 34.2547 116.858 34.2547 118.96H36.2547ZM34.3797 113.311C33.1235 111.989 31.2593 111.355 28.9846 111.241L28.8848 113.239C30.8768 113.338 32.1592 113.878 32.9297 114.689L34.3797 113.311ZM28.9347 111.24C27.5224 111.24 26.1101 111.294 24.698 111.403L24.8514 113.397C26.2126 113.292 27.5737 113.24 28.9347 113.24V111.24ZM23.7747 112.4V125.76H25.7747V112.4H23.7747ZM24.8334 126.758C25.7127 126.707 26.8644 126.68 28.2947 126.68V124.68C26.845 124.68 25.65 124.707 24.716 124.762L24.8334 126.758ZM28.2947 126.68C30.4573 126.68 32.4827 126.759 34.3716 126.917L34.5377 124.923C32.5867 124.761 30.5055 124.68 28.2947 124.68V126.68ZM31.0947 149.4C34.1465 149.4 36.4814 149.139 37.9593 148.523L37.1901 146.677C36.108 147.128 34.1228 147.4 31.0947 147.4V149.4ZM38.5448 147.843C39.0919 145.654 39.3747 143.677 39.3747 141.92H37.3747C37.3747 143.47 37.1241 145.279 36.6045 147.357L38.5448 147.843ZM39.3747 141.92C39.3747 139.105 38.6426 136.851 36.923 135.462L35.6664 137.018C36.7201 137.869 37.3747 139.402 37.3747 141.92H39.3747ZM36.923 135.462C35.26 134.119 32.619 133.56 29.2547 133.56V135.56C32.5038 135.56 34.5561 136.121 35.6664 137.018L36.923 135.462ZM29.2547 133.56C28.5154 133.56 27.5992 133.617 26.5152 133.725L26.7142 135.715C27.7635 135.61 28.6073 135.56 29.2547 135.56V133.56ZM26.5713 133.721L24.7313 133.801L24.8181 135.799L26.6581 135.719L26.5713 133.721ZM23.7747 134.8V147.84H25.7747V134.8H23.7747ZM24.5786 148.821C26.5227 149.209 28.6967 149.4 31.0947 149.4V147.4C28.7993 147.4 26.76 147.217 24.9708 146.859L24.5786 148.821ZM73.3741 149.84L73.1098 148.876L72.336 149.088L72.3753 149.889L73.3741 149.84ZM79.2141 148.24L79.4783 149.204L80.2141 149.003V148.24H79.2141ZM78.8941 115.04L77.9803 115.446L77.9895 115.467L77.9996 115.487L78.8941 115.04ZM77.2141 113.76L76.727 114.633L76.7786 114.662L76.8333 114.685L77.2141 113.76ZM73.0541 111.44L72.0567 111.367L72.0102 112.003L72.567 112.313L73.0541 111.44ZM73.5341 104.88L73.3889 103.891L72.5953 104.007L72.5367 104.807L73.5341 104.88ZM110.574 104.88L110.258 105.829L110.271 105.833L110.574 104.88ZM118.254 110.24L117.416 110.786L117.423 110.797L117.431 110.807L118.254 110.24ZM118.174 128.56L118.995 129.131L119.001 129.123L118.174 128.56ZM110.894 134.24L110.504 133.319L109.429 133.775L110.044 134.767L110.894 134.24ZM123.694 154.88L124.694 154.906L124.701 154.607L124.544 154.353L123.694 154.88ZM123.614 158V159H124.589L124.614 158.026L123.614 158ZM109.054 158L108.179 158.485L108.465 159H109.054V158ZM97.2141 136.64L98.0887 136.155L97.8105 135.653L97.2368 135.64L97.2141 136.64ZM93.6941 136.56L93.7168 135.56L92.6941 135.537V136.56H93.6941ZM93.9341 148L93.0149 148.394L93.0511 148.478L93.102 148.555L93.9341 148ZM95.3741 149.12L95.8767 148.255L95.8702 148.252L95.3741 149.12ZM98.8141 151.12L99.813 151.166L99.8412 150.56L99.3167 150.255L98.8141 151.12ZM98.4941 158V159H99.4486L99.493 158.046L98.4941 158ZM73.7741 158L72.7753 158.049L72.8219 159H73.7741V158ZM105.054 126.8L105.425 127.728L105.885 127.545L106.018 127.068L105.054 126.8ZM104.094 114.24L103.387 114.947L103.395 114.955L103.404 114.963L104.094 114.24ZM93.8541 112.8L93.7512 111.805L92.8541 111.898V112.8H93.8541ZM93.8541 127.12H92.8541V127.916L93.6292 128.094L93.8541 127.12ZM73.6383 150.804L79.4783 149.204L78.9498 147.276L73.1098 148.876L73.6383 150.804ZM80.2141 148.24V117.76H78.2141V148.24H80.2141ZM80.2141 117.76C80.2141 117.045 80.1868 116.43 80.1272 115.923C80.0704 115.44 79.9749 114.966 79.7885 114.593L77.9996 115.487C78.0265 115.541 78.0911 115.733 78.1409 116.157C78.188 116.557 78.2141 117.088 78.2141 117.76H80.2141ZM79.8079 114.634C79.4306 113.785 78.5555 113.231 77.5948 112.835L76.8333 114.685C77.686 115.036 77.9309 115.335 77.9803 115.446L79.8079 114.634ZM77.7011 112.887L73.5411 110.567L72.567 112.313L76.727 114.633L77.7011 112.887ZM74.0514 111.513L74.5314 104.953L72.5367 104.807L72.0567 111.367L74.0514 111.513ZM73.6792 105.869C81.6354 104.702 89.2934 104.12 96.6541 104.12V102.12C89.188 102.12 81.4327 102.711 73.3889 103.891L73.6792 105.869ZM96.6541 104.12C102.359 104.12 106.88 104.703 110.258 105.829L110.89 103.931C107.228 102.711 102.469 102.12 96.6541 102.12V104.12ZM110.271 105.833C113.63 106.902 115.972 108.572 117.416 110.786L119.092 109.694C117.336 107.001 114.558 105.098 110.877 103.927L110.271 105.833ZM117.431 110.807C118.933 112.989 119.734 115.969 119.734 119.84H121.734C121.734 115.711 120.881 112.291 119.078 109.673L117.431 110.807ZM119.734 119.84C119.734 122.965 118.931 125.672 117.347 127.997L119.001 129.123C120.831 126.435 121.734 123.328 121.734 119.84H119.734ZM117.353 127.989C115.769 130.266 113.502 132.049 110.504 133.319L111.284 135.161C114.579 133.765 117.166 131.761 118.995 129.131L117.353 127.989ZM110.044 134.767L122.844 155.407L124.544 154.353L111.744 133.713L110.044 134.767ZM122.694 154.854L122.614 157.974L124.614 158.026L124.694 154.906L122.694 154.854ZM123.614 157H109.054V159H123.614V157ZM109.929 157.515L98.0887 136.155L96.3394 137.125L108.179 158.485L109.929 157.515ZM97.2368 135.64L93.7168 135.56L93.6713 137.56L97.1913 137.64L97.2368 135.64ZM92.6941 136.56V145.52H94.6941V136.56H92.6941ZM92.6941 145.52C92.6941 146.177 92.7144 146.739 92.7587 147.196C92.8005 147.628 92.8709 148.058 93.0149 148.394L94.8532 147.606C94.8533 147.606 94.8519 147.603 94.8492 147.595C94.8466 147.588 94.843 147.577 94.8388 147.562C94.8303 147.533 94.8203 147.492 94.8096 147.439C94.7881 147.331 94.7672 147.188 94.7494 147.004C94.7137 146.635 94.6941 146.143 94.6941 145.52H92.6941ZM93.102 148.555C93.4567 149.087 94.1236 149.557 94.8779 149.988L95.8702 148.252C95.1311 147.829 94.8381 147.553 94.7661 147.445L93.102 148.555ZM94.8714 149.985L98.3114 151.985L99.3167 150.255L95.8767 148.255L94.8714 149.985ZM97.8151 151.074L97.4951 157.954L99.493 158.046L99.813 151.166L97.8151 151.074ZM98.4941 157H73.7741V159H98.4941V157ZM74.7729 157.951L74.3729 149.791L72.3753 149.889L72.7753 158.049L74.7729 157.951ZM98.8141 128.6C101.669 128.6 103.908 128.336 105.425 127.728L104.683 125.872C103.534 126.331 101.613 126.6 98.8141 126.6V128.6ZM106.018 127.068C106.582 125.037 106.854 122.649 106.854 119.92H104.854C104.854 122.525 104.593 124.723 104.091 126.532L106.018 127.068ZM106.854 119.92C106.854 117.149 106.251 114.917 104.785 113.517L103.404 114.963C104.284 115.803 104.854 117.358 104.854 119.92H106.854ZM104.801 113.533C103.4 112.132 101.175 111.56 98.4141 111.56V113.56C100.986 113.56 102.548 114.108 103.387 114.947L104.801 113.533ZM98.4141 111.56C96.885 111.56 95.3306 111.642 93.7512 111.805L93.957 113.795C95.4708 113.638 96.9565 113.56 98.4141 113.56V111.56ZM92.8541 112.8V127.12H94.8541V112.8H92.8541ZM93.6292 128.094C95.1101 128.436 96.8428 128.6 98.8141 128.6V126.6C96.9453 126.6 95.3714 126.444 94.0789 126.146L93.6292 128.094ZM149.285 152.4L148.565 153.094L148.569 153.099L149.285 152.4ZM146.085 116.64L146.977 117.092L146.979 117.087L146.085 116.64ZM155.445 106.56L155.946 107.425L155.946 107.425L155.445 106.56ZM193.365 145.76L192.472 145.308L192.472 145.308L193.365 145.76ZM183.845 155.68L183.362 154.804L183.357 154.807L183.845 155.68ZM179.525 145.76L180.012 146.633L180.341 146.45L180.467 146.094L179.525 145.76ZM180.885 139.6L181.876 139.729L181.877 139.727L180.885 139.6ZM178.005 118.8L177.193 119.384L177.2 119.393L178.005 118.8ZM159.525 115.92L159.156 114.99L158.833 115.118L158.659 115.419L159.525 115.92ZM158.165 120.96L159.155 121.098L159.156 121.095L158.165 120.96ZM161.045 143.12L161.873 142.559L161.873 142.559L161.045 143.12ZM169.125 158.12C160.428 158.12 154.119 155.92 150 151.701L148.569 153.099C153.197 157.84 160.115 160.12 169.125 160.12V158.12ZM150.005 151.706C145.933 147.483 143.805 140.981 143.805 132H141.805C141.805 141.259 143.996 148.357 148.565 153.094L150.005 151.706ZM143.805 132C143.805 126.203 144.875 121.244 146.977 117.092L145.192 116.188C142.921 120.676 141.805 125.957 141.805 132H143.805ZM146.979 117.087C149.082 112.881 152.069 109.67 155.946 107.425L154.944 105.695C150.713 108.144 147.46 111.653 145.19 116.193L146.979 117.087ZM155.946 107.425C159.819 105.183 164.466 104.04 169.925 104.04V102.04C164.183 102.04 159.177 103.244 154.944 105.695L155.946 107.425ZM169.925 104.04C178.672 104.04 185.05 106.271 189.25 110.56C193.455 114.852 195.645 121.376 195.645 130.32H197.645C197.645 121.078 195.382 113.961 190.679 109.16C185.973 104.355 178.991 102.04 169.925 102.04V104.04ZM195.645 130.32C195.645 136.172 194.574 141.157 192.472 145.308L194.257 146.212C196.529 141.723 197.645 136.414 197.645 130.32H195.645ZM192.472 145.308C190.375 149.453 187.342 152.61 183.362 154.804L184.327 156.556C188.667 154.163 191.981 150.707 194.257 146.212L192.472 145.308ZM183.357 154.807C179.428 157.001 174.697 158.12 169.125 158.12V160.12C174.966 160.12 180.048 158.946 184.332 156.553L183.357 154.807ZM170.805 149.08C174.023 149.08 177.096 148.259 180.012 146.633L179.038 144.887C176.406 146.354 173.666 147.08 170.805 147.08V149.08ZM180.467 146.094C181.085 144.354 181.551 142.227 181.876 139.729L179.893 139.471C179.579 141.88 179.138 143.86 178.582 145.426L180.467 146.094ZM181.877 139.727C182.202 137.18 182.365 134.684 182.365 132.24H180.365C180.365 134.595 180.208 137.006 179.893 139.473L181.877 139.727ZM182.365 132.24C182.365 126.219 181.23 121.491 178.81 118.207L177.2 119.393C179.259 122.188 180.365 126.421 180.365 132.24H182.365ZM178.816 118.216C176.414 114.876 172.862 113.24 168.325 113.24V115.24C172.321 115.24 175.222 116.644 177.193 119.384L178.816 118.216ZM168.325 113.24C165.159 113.24 162.1 113.824 159.156 114.99L159.893 116.85C162.602 115.776 165.411 115.24 168.325 115.24V113.24ZM158.659 115.419C157.97 116.61 157.497 118.454 157.174 120.825L159.156 121.095C159.472 118.773 159.906 117.257 160.39 116.421L158.659 115.419ZM157.174 120.822C156.846 123.172 156.685 125.86 156.685 128.88H158.685C158.685 125.927 158.843 123.335 159.155 121.098L157.174 120.822ZM156.685 128.88C156.685 135.165 157.819 140.141 160.217 143.681L161.873 142.559C159.791 139.486 158.685 134.969 158.685 128.88H156.685ZM160.217 143.681C162.657 147.284 166.233 149.08 170.805 149.08V147.08C166.843 147.08 163.912 145.57 161.873 142.559L160.217 143.681ZM216.43 157.52L215.432 157.572L215.476 158.431L216.332 158.515L216.43 157.52ZM216.03 149.84L215.766 148.876L214.99 149.088L215.032 149.892L216.03 149.84ZM221.87 148.24L222.135 149.204L222.87 149.003V148.24H221.87ZM221.55 115.04L220.637 115.446L220.646 115.467L220.656 115.487L221.55 115.04ZM219.87 113.76L219.383 114.633L219.435 114.662L219.49 114.685L219.87 113.76ZM215.71 111.44L214.713 111.368L214.667 112.003L215.223 112.313L215.71 111.44ZM216.19 104.8L216.114 103.803L215.255 103.869L215.193 104.728L216.19 104.8ZM230.19 103.84L230.247 104.839L230.261 104.838L230.19 103.84ZM256.99 106L256.631 106.933L256.634 106.934L256.99 106ZM266.75 114.08L265.874 114.562L265.88 114.572L266.75 114.08ZM264.59 147.36L265.384 147.968L265.389 147.962L265.394 147.956L264.59 147.36ZM252.03 155.92L252.317 156.878L252.323 156.876L252.03 155.92ZM253.07 145.2L253.448 146.126L253.86 145.958L254.011 145.539L253.07 145.2ZM254.35 138.96L253.362 138.811L253.36 138.82L253.359 138.829L254.35 138.96ZM251.23 117.68L250.469 118.329L250.476 118.337L251.23 117.68ZM238.03 113.44L237.94 112.444L237.94 112.444L238.03 113.44ZM236.35 113.6L236.251 112.605L235.35 112.695V113.6H236.35ZM236.35 146.4H235.35V147.283L236.226 147.392L236.35 146.4ZM232.35 157.24C226.617 157.24 221.344 157.001 216.529 156.525L216.332 158.515C221.223 158.999 226.563 159.24 232.35 159.24V157.24ZM217.429 157.468L217.029 149.788L215.032 149.892L215.432 157.572L217.429 157.468ZM216.295 150.804L222.135 149.204L221.606 147.276L215.766 148.876L216.295 150.804ZM222.87 148.24V117.76H220.87V148.24H222.87ZM222.87 117.76C222.87 117.045 222.843 116.43 222.783 115.923C222.727 115.44 222.631 114.966 222.445 114.593L220.656 115.487C220.683 115.541 220.747 115.733 220.797 116.157C220.844 116.557 220.87 117.088 220.87 117.76H222.87ZM222.464 114.634C222.087 113.785 221.212 113.231 220.251 112.835L219.49 114.685C220.342 115.036 220.587 115.335 220.637 115.446L222.464 114.634ZM220.357 112.887L216.197 110.567L215.223 112.313L219.383 114.633L220.357 112.887ZM216.708 111.512L217.188 104.872L215.193 104.728L214.713 111.368L216.708 111.512ZM216.267 105.797C221.81 105.371 226.469 105.051 230.247 104.838L230.134 102.842C226.338 103.055 221.664 103.376 216.114 103.803L216.267 105.797ZM230.261 104.838C234.037 104.572 237.051 104.44 239.31 104.44V102.44C236.983 102.44 233.917 102.575 230.12 102.842L230.261 104.838ZM239.31 104.44C246.608 104.44 252.364 105.288 256.631 106.933L257.35 105.067C252.763 103.299 246.733 102.44 239.31 102.44V104.44ZM256.634 106.934C260.926 108.569 263.978 111.119 265.874 114.562L267.626 113.598C265.469 109.681 262.015 106.844 257.346 105.066L256.634 106.934ZM265.88 114.572C267.846 118.05 268.87 122.741 268.87 128.72H270.87C270.87 122.539 269.815 117.47 267.621 113.588L265.88 114.572ZM268.87 128.72C268.87 136.25 267.146 142.235 263.787 146.764L265.394 147.956C269.075 142.991 270.87 136.55 270.87 128.72H268.87ZM263.797 146.752C260.784 150.683 256.777 153.421 251.738 154.964L252.323 156.876C257.737 155.219 262.103 152.25 265.384 147.968L263.797 146.752ZM251.744 154.962C246.696 156.471 240.241 157.24 232.35 157.24V159.24C240.353 159.24 247.018 158.462 252.317 156.878L251.744 154.962ZM242.43 147.8C246.973 147.8 250.665 147.262 253.448 146.126L252.692 144.274C250.249 145.272 246.848 145.8 242.43 145.8V147.8ZM254.011 145.539C254.529 144.1 254.966 141.932 255.342 139.091L253.359 138.829C252.988 141.641 252.572 143.633 252.129 144.861L254.011 145.539ZM255.339 139.109C255.772 136.241 255.99 133.551 255.99 131.04H253.99C253.99 133.436 253.782 136.026 253.362 138.811L255.339 139.109ZM255.99 131.04C255.99 124.904 254.719 120.165 251.985 117.023L250.476 118.337C252.755 120.955 253.99 125.122 253.99 131.04H255.99ZM251.992 117.032C249.289 113.859 245.205 112.36 239.95 112.36V114.36C244.829 114.36 248.265 115.741 250.469 118.328L251.992 117.032ZM239.95 112.36C239.232 112.36 238.561 112.388 237.94 112.444L238.121 114.436C238.673 114.386 239.282 114.36 239.95 114.36V112.36ZM237.94 112.444C237.35 112.498 236.787 112.551 236.251 112.605L236.45 114.595C236.98 114.542 237.537 114.489 238.121 114.436L237.94 112.444ZM235.35 113.6V146.4H237.35V113.6H235.35ZM236.226 147.392C238.396 147.663 240.464 147.8 242.43 147.8V145.8C240.556 145.8 238.571 145.67 236.474 145.408L236.226 147.392ZM287.71 150.88L287.187 150.027L286.684 150.336L286.711 150.925L287.71 150.88ZM290.19 149.36L290.712 150.213L290.99 150.042L291.114 149.741L290.19 149.36ZM308.91 104L308.822 103.004L308.217 103.057L307.985 103.619L308.91 104ZM322.51 102.8L323.447 102.453L323.182 101.737L322.422 101.804L322.51 102.8ZM338.51 146L337.572 146.347L337.576 146.359L338.51 146ZM340.83 150.48L341.617 149.864L341.616 149.862L340.83 150.48ZM342.27 152.32L343.266 152.404L343.299 152.013L343.057 151.704L342.27 152.32ZM341.79 158V159H342.709L342.786 158.084L341.79 158ZM319.31 158L318.315 158.105L318.409 159H319.31V158ZM318.51 150.4L318.264 149.431L317.425 149.643L317.515 150.505L318.51 150.4ZM324.19 148.96L324.435 149.929L325.463 149.669L325.143 148.658L324.19 148.96ZM321.63 140.88L322.583 140.578L322.358 139.869L321.615 139.88L321.63 140.88ZM305.39 141.12L305.375 140.12L304.676 140.13L304.446 140.79L305.39 141.12ZM303.63 146.16L302.686 145.83L302.683 145.837L302.681 145.844L303.63 146.16ZM303.55 148.24L302.655 148.687L302.728 148.832L302.843 148.947L303.55 148.24ZM304.27 148.64L304.657 147.718L304.622 147.703L304.586 147.691L304.27 148.64ZM309.79 150.96L310.783 151.073L310.868 150.328L310.177 150.038L309.79 150.96ZM308.99 158V159H309.882L309.983 158.113L308.99 158ZM288.03 158L287.031 158.045L287.074 159H288.03V158ZM313.87 116.48L314.823 116.177L313.906 113.297L312.924 116.155L313.87 116.48ZM308.59 131.84L307.644 131.515L307.21 132.777L308.543 132.839L308.59 131.84ZM318.91 132.32L318.863 133.319L320.298 133.386L319.863 132.017L318.91 132.32ZM288.232 151.733L290.712 150.213L289.667 148.507L287.187 150.027L288.232 151.733ZM291.114 149.741L309.834 104.381L307.985 103.619L289.265 148.979L291.114 149.741ZM308.998 104.996L322.598 103.796L322.422 101.804L308.822 103.004L308.998 104.996ZM321.572 103.147L337.572 146.347L339.447 145.653L323.447 102.453L321.572 103.147ZM337.576 146.359C338.106 147.737 338.497 148.69 338.735 149.167L340.524 148.273C340.336 147.897 339.98 147.037 339.443 145.641L337.576 146.359ZM338.735 149.167C338.996 149.688 339.447 150.339 340.043 151.098L341.616 149.862C341.039 149.127 340.69 148.605 340.524 148.273L338.735 149.167ZM340.042 151.096L341.482 152.936L343.057 151.704L341.617 149.864L340.042 151.096ZM341.273 152.236L340.793 157.916L342.786 158.084L343.266 152.404L341.273 152.236ZM341.79 157H319.31V159H341.79V157ZM320.304 157.895L319.504 150.295L317.515 150.505L318.315 158.105L320.304 157.895ZM318.755 151.369L324.435 149.929L323.944 147.991L318.264 149.431L318.755 151.369ZM325.143 148.658L322.583 140.578L320.676 141.182L323.236 149.262L325.143 148.658ZM321.615 139.88L305.375 140.12L305.404 142.12L321.644 141.88L321.615 139.88ZM304.446 140.79L302.686 145.83L304.574 146.49L306.334 141.45L304.446 140.79ZM302.681 145.844C302.504 146.374 302.39 146.889 302.39 147.36H304.39C304.39 147.191 304.435 146.906 304.578 146.476L302.681 145.844ZM302.39 147.36C302.39 147.81 302.451 148.278 302.655 148.687L304.444 147.793C304.435 147.775 304.39 147.657 304.39 147.36H302.39ZM302.843 148.947C303.153 149.257 303.553 149.455 303.953 149.589L304.586 147.691C304.347 147.612 304.266 147.543 304.257 147.533L302.843 148.947ZM303.882 149.562L309.402 151.882L310.177 150.038L304.657 147.718L303.882 149.562ZM308.796 150.847L307.996 157.887L309.983 158.113L310.783 151.073L308.796 150.847ZM308.99 157H288.03V159H308.99V157ZM289.029 157.955L288.709 150.835L286.711 150.925L287.031 158.045L289.029 157.955ZM312.924 116.155L307.644 131.515L309.535 132.165L314.815 116.805L312.924 116.155ZM308.543 132.839L318.863 133.319L318.956 131.321L308.636 130.841L308.543 132.839ZM319.863 132.017L314.823 116.177L312.917 116.783L317.957 132.623L319.863 132.017ZM365.615 151.76L366.365 151.099L366.365 151.099L365.615 151.76ZM362.175 115.84L361.283 115.388L361.28 115.393L362.175 115.84ZM371.375 106.24L371.854 107.117L371.863 107.113L371.375 106.24ZM404.895 107.12L405.89 107.22L405.963 106.489L405.288 106.2L404.895 107.12ZM402.575 123.04L402.64 124.038L403.418 123.987L403.558 123.22L402.575 123.04ZM396.495 123.44L395.669 124.004L395.991 124.475L396.56 124.438L396.495 123.44ZM390.975 115.36L391.8 114.796L391.6 114.502L391.258 114.401L390.975 115.36ZM377.135 114.88L376.944 113.898L376.468 113.991L376.246 114.421L377.135 114.88ZM377.455 142.88L376.651 143.475L376.657 143.484L376.664 143.492L377.455 142.88ZM387.775 147.28L387.752 148.28L387.763 148.28H387.775V147.28ZM394.815 146.48L395 147.463L395.007 147.461L395.014 147.46L394.815 146.48ZM403.215 144.24L404.177 143.969L403.893 142.96L402.898 143.291L403.215 144.24ZM405.695 153.04L406.242 153.877L406.856 153.475L406.657 152.769L405.695 153.04ZM395.615 157.52L395.891 158.481L395.9 158.479L395.615 157.52ZM384.335 158.2C376.445 158.2 370.506 155.796 366.365 151.099L364.865 152.421C369.47 157.644 376.011 160.2 384.335 160.2V158.2ZM366.365 151.099C362.204 146.379 360.055 139.634 360.055 130.72H358.055C358.055 139.939 360.279 147.221 364.865 152.421L366.365 151.099ZM360.055 130.72C360.055 125.079 361.073 120.279 363.069 116.287L361.28 115.393C359.116 119.721 358.055 124.841 358.055 130.72H360.055ZM363.067 116.292C365.112 112.252 368.038 109.204 371.854 107.117L370.895 105.363C366.711 107.65 363.504 111.001 361.283 115.388L363.067 116.292ZM371.863 107.113C375.687 104.971 380.259 103.88 385.615 103.88V101.88C379.984 101.88 375.062 103.029 370.886 105.367L371.863 107.113ZM385.615 103.88C391.701 103.88 397.994 105.258 404.502 108.04L405.288 106.2C398.569 103.329 392.009 101.88 385.615 101.88V103.88ZM403.9 107.02C403.423 111.788 402.654 117.067 401.591 122.86L403.558 123.22C404.629 117.386 405.406 112.052 405.89 107.22L403.9 107.02ZM402.509 122.042L396.429 122.442L396.56 124.438L402.64 124.038L402.509 122.042ZM397.32 122.876L391.8 114.796L390.149 115.924L395.669 124.004L397.32 122.876ZM391.258 114.401C388.806 113.677 386.123 113.32 383.215 113.32V115.32C385.96 115.32 388.45 115.657 390.691 116.319L391.258 114.401ZM383.215 113.32C381.023 113.32 378.932 113.512 376.944 113.898L377.326 115.862C379.177 115.502 381.14 115.32 383.215 115.32V113.32ZM376.246 114.421C375.334 116.189 374.617 118.476 374.073 121.248L376.036 121.632C376.559 118.964 377.229 116.878 378.023 115.339L376.246 114.421ZM374.073 121.248C373.528 124.031 373.255 126.842 373.255 129.68H375.255C375.255 126.971 375.515 124.289 376.036 121.632L374.073 121.248ZM373.255 129.68C373.255 135.687 374.331 140.343 376.651 143.475L378.258 142.285C376.312 139.657 375.255 135.513 375.255 129.68H373.255ZM376.664 143.492C379.089 146.627 382.859 148.169 387.752 148.28L387.797 146.28C383.304 146.178 380.193 144.786 378.246 142.268L376.664 143.492ZM387.775 148.28C389.727 148.28 392.141 148.002 395 147.463L394.629 145.497C391.835 146.025 389.555 146.28 387.775 146.28V148.28ZM395.014 147.46C397.933 146.865 400.772 146.108 403.531 145.189L402.898 143.291C400.218 144.185 397.457 144.921 394.615 145.5L395.014 147.46ZM402.252 144.511L404.732 153.311L406.657 152.769L404.177 143.969L402.252 144.511ZM405.147 152.203C402.472 153.952 399.205 155.409 395.33 156.561L395.9 158.479C399.918 157.284 403.371 155.754 406.242 153.877L405.147 152.203ZM395.338 156.559C391.524 157.656 387.858 158.2 384.335 158.2V160.2C388.065 160.2 391.918 159.624 395.891 158.481L395.338 156.559ZM427.185 148.08L426.386 147.48L426.166 147.772L426.187 148.136L427.185 148.08ZM452.225 114.72L453.025 115.32L454.341 113.567L452.155 113.723L452.225 114.72ZM440.945 115.52L440.875 114.523L440.478 114.551L440.209 114.843L440.945 115.52ZM434.625 122.4L434.439 123.382L434.985 123.486L435.362 123.076L434.625 122.4ZM428.305 121.2L427.313 121.075L427.196 122.007L428.119 122.182L428.305 121.2ZM430.465 104.08V103.08H429.584L429.473 103.955L430.465 104.08ZM470.625 104.08L471.621 103.993L471.541 103.08H470.625V104.08ZM471.425 113.2L472.224 113.802L472.455 113.495L472.421 113.113L471.425 113.2ZM445.665 147.36L444.867 146.758L443.559 148.493L445.727 148.358L445.665 147.36ZM461.105 146.4L461.167 147.398L461.614 147.37L461.891 147.018L461.105 146.4ZM466.705 139.28L466.926 138.305L466.31 138.165L465.919 138.662L466.705 139.28ZM473.425 140.8L474.419 140.914L474.521 140.023L473.646 139.825L473.425 140.8ZM471.265 158V159H472.127L472.254 158.148L471.265 158ZM427.745 158L426.747 158.056L426.8 159H427.745V158ZM427.985 148.68L453.025 115.32L451.426 114.12L426.386 147.48L427.985 148.68ZM452.155 113.723L440.875 114.523L441.016 116.517L452.296 115.717L452.155 113.723ZM440.209 114.843L433.889 121.723L435.362 123.076L441.682 116.196L440.209 114.843ZM434.812 121.418L428.492 120.218L428.119 122.182L434.439 123.382L434.812 121.418ZM429.297 121.325L431.457 104.205L429.473 103.955L427.313 121.075L429.297 121.325ZM430.465 105.08H470.625V103.08H430.465V105.08ZM469.629 104.167L470.429 113.287L472.421 113.113L471.621 103.993L469.629 104.167ZM470.627 112.598L444.867 146.758L446.464 147.962L472.224 113.802L470.627 112.598ZM445.727 148.358L461.167 147.398L461.043 145.402L445.603 146.362L445.727 148.358ZM461.891 147.018L467.491 139.898L465.919 138.662L460.319 145.782L461.891 147.018ZM466.485 140.255L473.205 141.775L473.646 139.825L466.926 138.305L466.485 140.255ZM472.432 140.686C471.525 148.578 470.807 154.297 470.276 157.852L472.254 158.148C472.79 154.556 473.512 148.809 474.419 140.914L472.432 140.686ZM471.265 157H427.745V159H471.265V157ZM428.744 157.944L428.184 148.024L426.187 148.136L426.747 158.056L428.744 157.944Z" fill="black"/>
</svg>
